<svg xmlns="http://www.w3.org/2000/svg" viewBox="0 0 1000 1000"><g style="isolation:isolate"><g id="Layer_1" data-name="Layer 1"><path d="M936.56,467.51C874.3,560.72,741.45,849,774.13,956l-476.63.11s-68.87-51.28-135.78-140.43c-12.16-16.2-24.25-33.66-35.84-52.28a648,648,0,0,1-34.73-63c-31-64.58-53.16-139.41-54-222.12C34,191.91,281.78-74.19,618.9,33.19S998.8,374.3,936.56,467.51Z" style="fill:#eaf9f8"/><path d="M638.35,959.37a3.29,3.29,0,0,1-2.56-1.22l-254.18-316a3.28,3.28,0,0,1,5.11-4.1L640.9,954a3.27,3.27,0,0,1-2.55,5.33Z" style="fill:#e03c03"/><path d="M244.06,959.37a3.27,3.27,0,0,1-2.55-5.33L495.69,638a3.28,3.28,0,0,1,5.11,4.1l-254.18,316A3.29,3.29,0,0,1,244.06,959.37Z" style="fill:#ff6224"/><path d="M498.25,959.37a3.29,3.29,0,0,1-2.56-1.22l-254.18-316a3.28,3.28,0,0,1,5.11-4.1L500.8,954a3.27,3.27,0,0,1-2.55,5.33Z" style="fill:#ff6224"/><path d="M289.11,648.45H171a8.39,8.39,0,0,1-8.39-8.39h0a8.39,8.39,0,0,1,8.39-8.39H289.11a8.39,8.39,0,0,1,8.38,8.39h0A8.39,8.39,0,0,1,289.11,648.45Z" style="fill:#e03c03"/><path d="M628.87,648.45H291.36a8.39,8.39,0,0,1-8.39-8.39h0a8.39,8.39,0,0,1,8.39-8.39H628.87Z" style="fill:#ff6224"/><path d="M380.32,798.08a9.17,9.17,0,1,1-9.16-9.17A9.16,9.16,0,0,1,380.32,798.08Z" style="fill:#e03c03"/><path d="M520.42,798.08a9.17,9.17,0,1,1-9.17-9.17A9.16,9.16,0,0,1,520.42,798.08Z" style="fill:#ffc947"/><rect x="268.87" y="271.43" width="140.24" height="109.75" rx="3.99" style="fill:#20c3c5"/><path d="M369.43,319.9H365a26,26,0,0,0-3-6.78l3.4-3.39a3.33,3.33,0,0,0,0-4.69l-4.78-4.79a3.33,3.33,0,0,0-4.69,0l-3.61,3.62a25.86,25.86,0,0,0-6.4-2.58v-5.42a3.31,3.31,0,0,0-3.31-3.31H335.9a3.31,3.31,0,0,0-3.32,3.31v5.48a26.83,26.83,0,0,0-6.21,2.47l-4-4a3.33,3.33,0,0,0-4.69,0l-4.78,4.78a3.31,3.31,0,0,0,0,4.69l3.67,3.67a27,27,0,0,0-2.89,6.34h-5.16a3.32,3.32,0,0,0-3.32,3.31v6.77a3.32,3.32,0,0,0,3.32,3.31h4.52a26.24,26.24,0,0,0,2.54,7.08l-3.08,3.09a3.31,3.31,0,0,0,0,4.69l4.78,4.78a3.31,3.31,0,0,0,4.69,0l2.68-2.68A26.33,26.33,0,0,0,332,353v3.75a3.32,3.32,0,0,0,3.32,3.32h6.76a3.32,3.32,0,0,0,3.32-3.32v-3.5a26.63,26.63,0,0,0,7.58-3.06l2.59,2.59a3.33,3.33,0,0,0,4.69,0l4.78-4.79a3.33,3.33,0,0,0,0-4.69l-2.66-2.65a26.45,26.45,0,0,0,2.92-7.35h4.12a3.31,3.31,0,0,0,3.31-3.32v-6.76A3.31,3.31,0,0,0,369.43,319.9Zm-26.82,24A17,17,0,1,1,356,330.56,17.06,17.06,0,0,1,342.61,343.94Z" style="fill:#fff"/><rect x="447.98" y="210.81" width="140.24" height="109.75" rx="3.99" style="fill:#ff6224"/><path d="M494.42,284.13a3.18,3.18,0,0,1-2.31-1l-14.78-15.82a3.67,3.67,0,0,1,0-4.95l15-16.09a3.12,3.12,0,0,1,4.63,0,3.68,3.68,0,0,1,0,5l-12.72,13.6,12.47,13.35a3.67,3.67,0,0,1,0,5A3.19,3.19,0,0,1,494.42,284.13Z" style="fill:#fff"/><path d="M541.78,284.13a3.19,3.19,0,0,1-2.32-1,3.69,3.69,0,0,1,0-5l12.47-13.35-12.72-13.6a3.7,3.7,0,0,1,0-5,3.13,3.13,0,0,1,4.64,0l15,16.09a3.62,3.62,0,0,1,1,2.47,3.66,3.66,0,0,1-1,2.48L544.09,283.1A3.15,3.15,0,0,1,541.78,284.13Z" style="fill:#fff"/><path d="M510.76,288.47a3,3,0,0,1-1.23-.26,3.59,3.59,0,0,1-1.8-4.56l14.68-38.58a3.19,3.19,0,0,1,4.26-1.92,3.59,3.59,0,0,1,1.8,4.57L513.8,286.29A3.28,3.28,0,0,1,510.76,288.47Z" style="fill:#fff"/><path d="M391.45,328.16H683.32a1.66,1.66,0,0,1,1.66,1.66v11.83a0,0,0,0,1,0,0H389.79a0,0,0,0,1,0,0V329.82A1.66,1.66,0,0,1,391.45,328.16Z" style="fill:#fff"/><path d="M389.79,341.64H685a0,0,0,0,1,0,0V495.93a3.09,3.09,0,0,1-3.09,3.09h-289a3.09,3.09,0,0,1-3.09-3.09V341.64A0,0,0,0,1,389.79,341.64Z" style="fill:#383873"/><path d="M670.81,334.9a2.08,2.08,0,1,1-2.07-2.07A2.08,2.08,0,0,1,670.81,334.9Z" style="fill:#ff6224"/><path d="M656.55,334.9a2.08,2.08,0,1,1-2.08-2.07A2.08,2.08,0,0,1,656.55,334.9Z" style="fill:#ff6224"/><path d="M642.28,334.9a2.08,2.08,0,1,1-2.07-2.07A2.08,2.08,0,0,1,642.28,334.9Z" style="fill:#ff6224"/><path d="M569,362.91H405.1a2.85,2.85,0,0,1-2.86-2.85h0a2.85,2.85,0,0,1,2.86-2.85H569a2.85,2.85,0,0,1,2.86,2.85h0A2.85,2.85,0,0,1,569,362.91Z" style="fill:#20c3c5"/><path d="M569,381.07H405.1a2.86,2.86,0,0,1-2.86-2.86h0a2.86,2.86,0,0,1,2.86-2.85H569a2.86,2.86,0,0,1,2.86,2.85h0A2.86,2.86,0,0,1,569,381.07Z" style="fill:#20c3c5"/><path d="M490.82,399.22H405.1a2.85,2.85,0,0,1-2.86-2.85h0a2.85,2.85,0,0,1,2.86-2.85h85.72a2.85,2.85,0,0,1,2.85,2.85h0A2.85,2.85,0,0,1,490.82,399.22Z" style="fill:#20c3c5"/><path d="M569,435.53H405.1a2.85,2.85,0,0,1-2.86-2.85h0a2.86,2.86,0,0,1,2.86-2.85H569a2.86,2.86,0,0,1,2.86,2.85h0A2.85,2.85,0,0,1,569,435.53Z" style="fill:#ff6224"/><path d="M490.82,453.69H405.1a2.86,2.86,0,0,1-2.86-2.85h0A2.86,2.86,0,0,1,405.1,448h85.72a2.86,2.86,0,0,1,2.85,2.86h0A2.86,2.86,0,0,1,490.82,453.69Z" style="fill:#ff6224"/><path d="M490.82,471.84H405.1a2.85,2.85,0,0,1-2.86-2.85h0a2.86,2.86,0,0,1,2.86-2.85h85.72a2.86,2.86,0,0,1,2.85,2.85h0A2.85,2.85,0,0,1,490.82,471.84Z" style="fill:#20c3c5"/><path d="M569,399.22h-61.6a2.85,2.85,0,0,1-2.85-2.85h0a2.85,2.85,0,0,1,2.85-2.85H569a2.85,2.85,0,0,1,2.86,2.85h0A2.85,2.85,0,0,1,569,399.22Z" style="fill:#fff"/><path d="M650.38,358.45,606.82,402a2.85,2.85,0,0,1-4,0h0a2.84,2.84,0,0,1,0-4l43.55-43.56a2.85,2.85,0,0,1,4,0h0A2.85,2.85,0,0,1,650.38,358.45Z" style="fill:#ff6224"/><circle cx="626.58" cy="440.85" r="25.68" transform="translate(53.07 948.82) rotate(-76.66)" style="fill:#ff6224"/><path d="M623.22,458.75a14.54,14.54,0,1,1-14.54-14.54A14.54,14.54,0,0,1,623.22,458.75Z" style="fill:#20c3c5"/><polyline points="389.79 483.09 389.79 535.02 437.52 487.3" style="fill:#383873"/><polygon points="338.99 549.06 443.71 549.06 481.57 621.94 376.86 621.94 338.99 549.06" style="fill:#86bfbc"/><path d="M379,616.55l-31.36-60.34a1.91,1.91,0,0,1,1.69-2.78H439.9a1.9,1.9,0,0,1,1.69,1l31.35,60.35a1.9,1.9,0,0,1-1.68,2.78H380.67A1.91,1.91,0,0,1,379,616.55Z" style="fill:#fff"/><rect x="376.86" y="621.94" width="84.81" height="9.73" style="fill:#b8e3e2"/><path d="M534.53,621.94H450.84a4.87,4.87,0,0,0-4.86,4.87h0a4.87,4.87,0,0,0,4.86,4.86h83.69a4.87,4.87,0,0,0,4.87-4.86h0A4.87,4.87,0,0,0,534.53,621.94Z" style="fill:#9fccc9"/><path d="M376.86,621.94,339,549.06l-1.9,1.43a3.1,3.1,0,0,0-.88,3.94l40.65,77.24Z" style="fill:#b8e3e2"/><rect x="405.65" y="626.48" width="9.34" height="1.62" style="fill:#9fccc9"/><rect x="417.38" y="626.48" width="9.34" height="1.62" style="fill:#9fccc9"/><rect x="429.12" y="626.48" width="9.34" height="1.62" style="fill:#9fccc9"/><path d="M567.77,764.59s-86.86,67.63-100.63,84.81c-5.2,6.5-14.26,17.9-23.64,29.58-15.41,19.19-31.76,39.18-33.71,39.66-3.1.79-29.16-19-30-23.33-.48-2.67,23.25-43.4,43.79-76.14,12.51-19.91,23.82-36.9,27.79-40.56,10.5-9.74,75.12-44,75.12-44Z" style="fill:#383873"/><path d="M402,904.21s81.14-115.5,121.88-135" style="fill:none;stroke:#000;stroke-linecap:round;stroke-miterlimit:10;stroke-width:0.8184779999999999px;opacity:0.15;mix-blend-mode:overlay"/><path d="M658.3,468c-.92,2.1-2,4.28-3.14,6.51-6.36,12.14-1.66,24.3-8.91,27.4a8.08,8.08,0,0,1-1.46.45c-9.34,2.08-30.87-10.36-31.81-16.59s6.64-16.87,0-18.16-10.21,9.87-10.21,9.87c-5.46.57-7.4-8.58-16.35-8.58a14.94,14.94,0,0,0-3.72.48A26.7,26.7,0,0,0,572.44,475a28.29,28.29,0,0,0-2.75,2.62s-8-5-7.59-15c.63-15.74,6.44-27.22,20.43-29.56,1.55-17.51,16-26.85,35.21-27.44,16.88-.52,19.41,14.65,19.8,18.43-.15-2.82-.94-12.08-4.95-18.43,8.44-.37,15.89,5.65,13.94,25.3,2-5.85,8.76-9.54,14-5.26-4.85,0-9.52,8.16-9.52,8.16a32.92,32.92,0,0,1,9.58,10.4C663.82,449.85,662.6,458.08,658.3,468Z" style="fill:#382424"/><path d="M646.25,501.92,646,504.8,645.29,515s-15.54,13.3-24.36,0c-.07-.08-.11-.17-.2-.26-2.73-4.06-5.19-5.48-7.44-5.74-4.87-.59-8.8,4.17-12.86-1-11.61-14.74-16.24-31.81-17.73-38.64a14.94,14.94,0,0,1,3.72-.48c9,0,10.89,9.15,16.35,8.58,0,0,3.58-11.16,10.21-9.87s-.94,11.94,0,18.16c.42,2.78,4.94,6.79,10.66,10.2,6.65,4,15,7.16,20.21,6.55.33,0,.63-.09.94-.16A8.08,8.08,0,0,0,646.25,501.92Z" style="fill:#ffad94"/><path d="M648.67,520.93c-7,4.78-19.84,5.57-19.84,5.57L618.33,525s-4.39-6.38-2.34-9.94a12.38,12.38,0,0,1,2.78-2.79,75.28,75.28,0,0,1,12.05-7.73c4.84-2.51,9.84-4.5,13.44-4.71C653.08,499.27,655.68,516.13,648.67,520.93Z" style="opacity:0.25;mix-blend-mode:overlay"/><path d="M646.6,691.2c-15.63,3-48.7-6.2-64.53-13.32-4.67-2.09-7.86-4-8.62-5.37-3-5.34,0-9.45,7.55-26.43q1.28-2.88,2.71-6.24c5.11-12,5.13-37.68,5.11-59.8-.07-18.92-.16-35.25,2.86-38.15C598.2,535.6,630.77,515,630.77,515l6.49,33.8s3.66,17.15,7.53,39.55C651.9,629.6,659.72,688.67,646.6,691.2Z" style="fill:#20c3c5"/><path d="M657.49,706.24c0,1.55-15.56,37.85-28.62,43s-91.72-.53-91.72-.53l-38.9,25.44,8.14,76.62,5.67,53.39.18,1.73c-11.9,7.77-41.87,9.86-45.1,3.16a.06.06,0,0,1,0,0C464,902.31,416.28,758.63,435,733.72s138.49-61.21,138.49-61.21a65.12,65.12,0,0,0,10.7,5.37c13.31,5.46,30.23,8.89,43.11,10.9,5,.76,9.3,1.33,12.62,1.72,4.19.5,6.72.7,6.72.7S657.49,704.67,657.49,706.24Z" style="fill:#383873"/><path d="M517.17,956H416c-.5-1.79.18-3.6,1.71-5.43,4.1-4.94,14.38-9.89,24.29-14.17,9.41-4.06,18.45-7.55,21.48-9.95,7.14-5.66,3.85-16.66,3.65-17.34,1.09,2.25,5.22,3.52,10.67,3.89,10.72.76,26.55-1.9,34.43-7l-.18-1.73c3,5.77,4.44,34.25,4.92,46.35C517.11,953.9,517.17,956,517.17,956Z" style="fill:#0c2059"/><path d="M477.81,913c-.3,4.82-1,12.64-2.4,14.73-2.07,3.13-24.38,14-27.48,13-2-.65-4.45-2.84-5.92-4.3,9.41-4.06,18.45-7.55,21.48-9.95,7.14-5.66,3.85-16.66,3.65-17.34C468.23,911.35,472.36,912.62,477.81,913Z" style="fill:#2e4780"/><path d="M517.17,956H416c-.5-1.79.18-3.6,1.71-5.43H517C517.11,953.9,517.17,956,517.17,956Z" style="fill:#2e4780"/><path d="M409.79,918.64s-7.68,20.26-14.34,31c-2.64,4.28-5.15,7-6.92,6.37-6.22-2.33-68.74-55.49-62.76-59.37a10,10,0,0,1,4-1.18c5.43-.7,14.45.06,22.79.91,7.16.75,13.82,1.55,17.29,1.55,8.82,0,10-2.59,10-2.59.2,1,1.86,3,4.32,5.32C391.89,908,407.43,919.23,409.79,918.64Z" style="fill:#0c2059"/><path d="M384.16,900.63c-13.25,8.78-27.06,3.5-29.79,1.49-2-1.47-2-4.19-1.79-5.77,7.16.75,13.82,1.55,17.29,1.55,8.82,0,10-2.59,10-2.59C380,896.33,381.7,898.28,384.16,900.63Z" style="fill:#2e4780"/><path d="M395.45,949.62c-2.64,4.28-5.15,7-6.92,6.37-6.22-2.33-68.74-55.49-62.76-59.37a10,10,0,0,1,4-1.18Z" style="fill:#2e4780"/><path d="M582.12,625c-4.89,6.81-13.65,17.2-20.85,16.15-.26,0-.55-.08-.9-.15-13.75-2.42-94.63-22.7-98.45-23.46s-31.11-1-29.56-3.89,17.12-11.92,21.27-11.7,20.49,4.95,36.82,4.43,59.14,0,59.14,0l2.07-3.58,3.06-5.28C553.87,613.36,573,626.28,582.12,625Z" style="fill:#ffad94"/><path d="M582.12,684.06s-3.73,19.84,10.79,26.45" style="fill:none;stroke:#000;stroke-linecap:round;stroke-miterlimit:10;stroke-width:0.8184779999999999px;opacity:0.15;mix-blend-mode:overlay"/><path d="M574.49,700S478.42,741,473.8,753.7s24.45,150.51,24.45,150.51" style="fill:none;stroke:#000;stroke-linecap:round;stroke-miterlimit:10;stroke-width:0.8184779999999999px;opacity:0.15;mix-blend-mode:overlay"/><path d="M657.49,706.24c0,1.55-15.56,37.85-28.62,43s-91.72-.53-91.72-.53l-38.9,25.44,8.14,76.62S490,763.3,490,757.58c0-4.89,108.67-36.12,137.31-68.8,11.22,1.77,19.34,2.42,19.34,2.42S657.49,704.67,657.49,706.24Z" style="opacity:0.15;mix-blend-mode:overlay"/><path d="M606.26,613.38c-6.75,9.56-17.62,21.7-25.26,32.7q1.28-2.88,2.71-6.24c5.11-12,5.13-37.68,5.11-59.8l23.29-15.41S617.15,597.94,606.26,613.38Z" style="opacity:0.25;mix-blend-mode:overlay"/><path d="M586.37,622c-1,.92-2,1.84-3,2.69a5.12,5.12,0,0,1-1.2.26c-9.15,1.29-28.25-11.63-27.4-27.48.06-1.18,1-3.54,2.53-6.62,7.82-15.76,31.33-50.84,35.65-49.22,0,0,15.11,2.33,19.21,23C616,584,602.09,607.48,586.37,622Z" style="fill:#169799"/><path d="M639.88,690.5c-3.32-.39-7.67-1-12.62-1.72-12.88-2-29.8-5.44-43.11-10.9,11.74-.41,36.87-8.14,39.9-65.66a283.82,283.82,0,0,0,6.33,33.33C634.24,660.73,637.89,676.73,639.88,690.5Z" style="opacity:0.25;mix-blend-mode:overlay"/><path d="M633.68,500.76a40.6,40.6,0,0,0-2.86,3.73,75.28,75.28,0,0,0-12.05,7.73,8.77,8.77,0,0,0-5.48-3.21l10.35-13A55.87,55.87,0,0,0,633.68,500.76Z" style="opacity:0.25;mix-blend-mode:overlay"/><path d="M582.12,625c-4.89,6.81-13.65,17.2-20.85,16.15-.26,0-.55-.08-.9-.15-8.9-12.88-9.23-29.75-8.71-38.2l3.06-5.28C553.87,613.36,573,626.28,582.12,625Z" style="opacity:0.25;mix-blend-mode:overlay"/><path d="M658.3,468c-.92,2.1-2,4.28-3.14,6.51-3.12,6-3.56,11.9-4.09,16.81a30,30,0,0,0-3.18-2.18,56.18,56.18,0,0,0-14.21,11.61l0,0c-9.52-3.4-20-10.7-20.68-15-.94-6.22,6.64-16.87,0-18.16s-10.21,9.87-10.21,9.87c-5.46.57-7.4-8.58-16.35-8.58a14.94,14.94,0,0,0-3.72.48A26.7,26.7,0,0,0,572.44,475s10.09-14.16,25.92-11.3c0,0-2.32-4.41-13-3.89,22.31-7.27,36.56-4.41,43.44,3.62C634.44,470,647.6,478.17,658.3,468Z" style="opacity:0.25;mix-blend-mode:overlay"/><path d="M703.66,774.2H625.84S687.57,756,687.57,633.61c0-1.57,0-3.12,0-4.67-.63-81.81-18.12-126.94-39.66-139.79a93.45,93.45,0,0,1,27.57-10.46,143.08,143.08,0,0,1,17.18-2.77c53.28-5.44,95.85,15.45,100.92,39.09S767.45,774.2,703.66,774.2Z" style="fill:#b8e3e2"/><path d="M687.57,633.61c0,122.42-61.73,140.59-61.73,140.59H498.25l5.3-3.78,33.6-21.66,67.43-4.67c3.62-15,13.49-15.54,28.53-17.11,8.75-.9,9.6-15.67,6.94-35.21-1.94-14.06-5.7-30.59-9.67-46.22a283.82,283.82,0,0,1-6.33-33.33,290.13,290.13,0,0,1-2.42-36,303.65,303.65,0,0,1,6.26-63.79c.31-1.55.63-3,1-4.45,0,0,0-.11,0-.15a31.47,31.47,0,0,1,4.79-7.1l0,0a56.18,56.18,0,0,1,14.21-11.61,30,30,0,0,1,3.18,2.18c20.07,15.28,35.87,59.88,36.48,137.61C687.57,630.49,687.57,632,687.57,633.61Z" style="fill:#86bfbc"/><path d="M663,956H571.09a3.3,3.3,0,0,1-2-5.91l23-18a42.19,42.19,0,0,0,16.15-33.18V774.2h17.64V898.91A42.13,42.13,0,0,0,642,932.09l23,18A3.3,3.3,0,0,1,663,956Z" style="fill:#b8e3e2"/><g style="opacity:0.25;mix-blend-mode:overlay"><path d="M733,480.62s.25.63.7,1.92" style="fill:none;stroke:#000;stroke-linecap:round;stroke-miterlimit:10;stroke-width:0.8184779999999999px"/><path d="M735,486.4c3,9.6,8.93,31.13,13.28,64.74,8.6,66.27-.63,160.06-61.09,217" style="fill:none;stroke:#000;stroke-linecap:round;stroke-miterlimit:10;stroke-width:0.8184779999999999px;stroke-dasharray:4.078415393829346,4.078415393829346"/><path d="M685.67,769.51l-1.52,1.37" style="fill:none;stroke:#000;stroke-linecap:round;stroke-miterlimit:10;stroke-width:0.8184779999999999px"/></g><path d="M625.84,774.2v34a123.44,123.44,0,0,1-17.64,7.42V774.2Z" style="opacity:0.15;mix-blend-mode:overlay"/><path d="M650.22,721.28c-4.14,13-30.05,10.65-33.2,20.24-6.67,20.35-10.37,11.39-36,14-14.67,1.48-25.32,10.89-31.74,18.69h-51l5.3-3.78,33.6-21.66,67.43-4.67c3.62-15,13.49-15.54,28.53-17.11,8.75-.9,9.6-15.67,6.94-35.21-1.94-14.06-5.7-30.59-9.67-46.22a283.82,283.82,0,0,1-6.33-33.33,290.13,290.13,0,0,1-2.42-36C631.6,628.27,653.3,711.68,650.22,721.28Z" style="opacity:0.15;mix-blend-mode:overlay"/><path d="M687.57,633.61c0-1.57,0-3.12,0-4.67-.63-81.81-18.12-126.94-39.66-139.79a93.45,93.45,0,0,1,27.57-10.46c-3.56,5.13-7.27,12.83-5.52,21.06,3.12,14.56,38.39,70.58,24.9,160.32-9.73,64.75-6.5,98.43,3.67,114.13H625.84S687.57,756,687.57,633.61Z" style="opacity:0.15;mix-blend-mode:overlay"/><path d="M242.32,566.92a40.94,40.94,0,0,1-.83,7.91h-25c-7.36-4.89-19.37-14.56-26.57-29.08,6.7,7.29,18.14,16.18,29.8,18.88C229.85,567,237.43,566,242.32,566.92Z" style="opacity:0.25;mix-blend-mode:overlay"/><path d="M300.47,467.51c-2.79,10.15-15.61,29.84-27.31,50.93-12.79,23-24.23,47.65-19.75,63.31a34.84,34.84,0,0,1,1.61,8.88c0,6.81-5.13,4.69-10.35.83A95.23,95.23,0,0,1,234,581.75l.39-30.35s-17.2-15.8-3.08-50.38c.9-2.18,1.92-4.45,3.08-6.81,19.45-39.29,48.61-80.53,21-92.21C293.48,399.67,306.32,446.27,300.47,467.51Z" style="fill:#20c3c5"/><g style="opacity:0.53;mix-blend-mode:overlay"><path d="M255.35,402a28.28,28.28,0,0,1,17.24,12.5,39,39,0,0,1,2.64,4.78c.35.84.66,1.7,1,2.55l.49,1.27c.15.44.25.88.38,1.32l.72,2.63c.24.88.34,1.79.52,2.69l.46,2.69a22.72,22.72,0,0,1,.16,2.73,44.81,44.81,0,0,1-1.64,10.8c-.93,3.52-2.09,7-3.36,10.39-2.55,6.83-5.52,13.48-8.58,20.09-6.12,13.2-12.72,26.19-18.56,39.51a180,180,0,0,0-7.74,20.35,65.71,65.71,0,0,0-2.34,10.59,23.57,23.57,0,0,0,.72,10.61h0a.41.41,0,0,1-.25.52.41.41,0,0,1-.52-.25h0a24.33,24.33,0,0,1-.71-11,67,67,0,0,1,2.41-10.69,184.31,184.31,0,0,1,7.86-20.4c5.92-13.31,12.58-26.27,18.76-39.44,3.09-6.58,6.08-13.22,8.66-20a108.1,108.1,0,0,0,3.4-10.36,44.38,44.38,0,0,0,1.69-10.73,24.61,24.61,0,0,0-.15-2.71l-.45-2.68c-.17-.89-.26-1.8-.5-2.68l-.71-2.63c-.12-.44-.23-.88-.37-1.31l-.48-1.27c-.33-.85-.63-1.71-1-2.55a39.3,39.3,0,0,0-2.6-4.77A28.24,28.24,0,0,0,255.35,402Z"/></g><path d="M283,528.83c-11.65,30.74,0,54-17.5,57.37-8,1.53-11.55-4.41-13-11.31-1.74-8.16-.58-17.66-.58-17.66a59.33,59.33,0,0,1,9.21-15C266.15,536.25,273.38,530.4,283,528.83Z" style="fill:#169799"/><path d="M242.32,566.92c-.07,7.16-1.68,13.23-5,16.42a11.52,11.52,0,0,1-1,.85c-8.28,6.7-13.56-5.57-13.56-5.57s-22-10.84-32.92-32.87c-8.36-16.92-10.21-40.45,9.45-70.71,2.89,21.55,14.69,36.22,26.4,50.15v0l4.34,5.17C238.17,540.1,242.43,555,242.32,566.92Z" style="fill:#b8e3e2"/><g style="opacity:0.53;mix-blend-mode:overlay"><path d="M199.33,475.05a91,91,0,0,0-1.87,14.05,95.6,95.6,0,0,0,.21,14.16c.92,9.38,3.5,18.72,8.5,26.75a89.69,89.69,0,0,0,8.43,11.35c3.06,3.6,6.3,7.06,9.34,10.69a54,54,0,0,1,7.93,11.83,27.56,27.56,0,0,1,2.49,14,.41.41,0,0,1-.82-.07h0a26.55,26.55,0,0,0-2.33-13.63,52.86,52.86,0,0,0-7.74-11.73c-6-7.24-12.76-14.05-17.65-22.23s-7.5-17.53-8.35-26.94a94.68,94.68,0,0,1-.11-14.19A90.9,90.9,0,0,1,199.33,475.05Z"/></g><g style="opacity:0.25;mix-blend-mode:overlay"><path d="M283,528.83c-3.38,3.83-6.54,7.86-9.56,12s-5.88,8.36-8.46,12.76A111.73,111.73,0,0,0,258,567.19a64.56,64.56,0,0,0-4.21,14.61h0a.41.41,0,0,1-.47.34.4.4,0,0,1-.34-.46h0A66.09,66.09,0,0,1,257.45,567a111.31,111.31,0,0,1,7.15-13.59c2.65-4.38,5.59-8.58,8.64-12.68S279.53,532.62,283,528.83Z"/></g><path d="M275.89,582.51l-7.47,45.84a4.09,4.09,0,0,1-4,3.32H217.89a4.09,4.09,0,0,1-4-3.32l-6.07-37.22-1.39-8.62a4.08,4.08,0,0,1,4-4.82h61.45A4.08,4.08,0,0,1,275.89,582.51Z" style="fill:#b8e3e2"/><path d="M283,591.85H199.33l2.21-12.48a5.52,5.52,0,0,1,5.41-4.54h68.42a5.5,5.5,0,0,1,5.39,4.54Z" style="fill:#86bfbc"/><path d="M251.86,557.23s-1.16,9.45.56,17.6H241.49a40.94,40.94,0,0,0,.83-7.91c.11-11.89-4.15-26.82-12.25-36.54l-4.34-5.17v0c.17-6.71,1.7-14.74,5.54-24.17.63,11,3.34,30.19,14.34,32.22,8.36,1.53,19.26-6.77,27.55-14.8-4.39,7.88-8.6,16-12.09,23.82A59.33,59.33,0,0,0,251.86,557.23Z" style="opacity:0.25;mix-blend-mode:overlay"/><path d="M245.66,631.67H217.89a4.09,4.09,0,0,1-4-3.32l-6-36.5h24c-.59,5.11-1.31,14.65.51,22C233.82,619.77,239,627.33,245.66,631.67Z" style="opacity:0.25;mix-blend-mode:overlay"/><path d="M510.25,153.72c4.45,0,5.5-3,5.5-5.66a64.76,64.76,0,0,0-.48-6.88,69.36,69.36,0,0,1-.49-7.12c0-7.29,4.46-10.36,10.2-10.36h1v4.21h-1.21c-3.4,0-4.78,2.42-4.78,6.07a49.29,49.29,0,0,0,.49,6.15c.16,2.1.4,4,.4,6,.09,6.31-2.1,8.49-5.58,9.47v.16c3.48,1.05,5.67,3.24,5.58,9.63,0,2-.24,4.05-.4,6.07a51.73,51.73,0,0,0-.49,6.23c0,3.64,1.22,6.15,4.86,6.15H526V188H524.9c-5.34,0-10.12-2.67-10.12-10.36a70.94,70.94,0,0,1,.49-7.2,69.59,69.59,0,0,0,.48-7c0-2.59-1-5.75-5.5-5.75Z" style="fill:#383873"/><path d="M592.76,157.77c-4.45,0-5.5,3.16-5.5,5.75a69.59,69.59,0,0,0,.48,7,68.16,68.16,0,0,1,.49,7.2c0,7.69-4.77,10.36-10.12,10.36h-1.05v-4.21h1.14c3.64-.4,4.85-2.51,4.85-6.15,0-2.18-.24-4.21-.4-6.23a49.65,49.65,0,0,1-.49-6.07c-.08-6.39,2.1-8.58,5.58-9.63v-.16c-3.48-1-5.66-3.16-5.58-9.47a50.84,50.84,0,0,1,.49-6c.16-1.95.4-4,.4-6.15,0-3.65-1.38-5.67-4.77-6.07h-1.22V123.7h1c5.75,0,10.2,3.07,10.2,10.36a66.65,66.65,0,0,1-.49,7.12,64.76,64.76,0,0,0-.48,6.88c0,2.67,1,5.66,5.5,5.66Z" style="fill:#383873"/><polygon points="564.99 163.66 564.99 148.09 551.51 140.3 538.02 148.09 538.02 163.66 551.51 171.44 564.99 163.66" style="fill:#ff6224"/><path d="M666.44,241.23a32.89,32.89,0,0,0-39.24,51.29l-5-.59a1.09,1.09,0,1,0-.25,2.17l7.53.89a1.08,1.08,0,0,0,.8-.22,1.1,1.1,0,0,0,.41-.73l.86-7.28a1.09,1.09,0,1,0-2.16-.26l-.55,4.64a30.71,30.71,0,0,1,36.57-48,1.1,1.1,0,0,0,1.47-.49A1.09,1.09,0,0,0,666.44,241.23Z" style="fill:#ff6224"/><path d="M638.1,301.64a32.89,32.89,0,0,0,39.24-51.29l4.94.59a1.09,1.09,0,0,0,.26-2.17l-7.53-.9a1.12,1.12,0,0,0-.8.23,1.06,1.06,0,0,0-.41.73l-.87,7.28a1.09,1.09,0,0,0,2.17.26l.55-4.64a30.7,30.7,0,0,1-36.58,48,1.09,1.09,0,0,0-1,2Z" style="fill:#ff6224"/><path d="M930,362.91H732.48a6.52,6.52,0,0,1-6.52-6.52h0a6.52,6.52,0,0,1,6.52-6.52H930a6.52,6.52,0,0,1,6.52,6.52h0A6.52,6.52,0,0,1,930,362.91Z" style="fill:#ff6224"/><path d="M859.49,391.26h-127a6.52,6.52,0,0,1-6.52-6.52h0a6.52,6.52,0,0,1,6.52-6.53h127a6.52,6.52,0,0,1,6.52,6.53h0A6.51,6.51,0,0,1,859.49,391.26Z" style="fill:#20c3c5"/><path d="M859.49,421.69h-127a6.52,6.52,0,0,1-6.52-6.52h0a6.51,6.51,0,0,1,6.52-6.52h127a6.51,6.51,0,0,1,6.52,6.52h0A6.51,6.51,0,0,1,859.49,421.69Z" style="fill:#20c3c5"/><path d="M229.54,254.58H126.92a6.52,6.52,0,0,1-6.52-6.53h0a6.52,6.52,0,0,1,6.52-6.52H229.54a6.52,6.52,0,0,1,6.52,6.52h0A6.52,6.52,0,0,1,229.54,254.58Z" style="fill:#20c3c5"/><path d="M190.8,282.92H126.92a6.52,6.52,0,0,1-6.52-6.52h0a6.52,6.52,0,0,1,6.52-6.52H190.8a6.52,6.52,0,0,1,6.52,6.52h0A6.52,6.52,0,0,1,190.8,282.92Z" style="fill:#ff6224"/><path d="M190.8,313.35H126.92a6.52,6.52,0,0,1-6.52-6.52h0a6.52,6.52,0,0,1,6.52-6.52H190.8a6.52,6.52,0,0,1,6.52,6.52h0A6.52,6.52,0,0,1,190.8,313.35Z" style="fill:#ff6224"/><path d="M841,727.24a319.24,319.24,0,0,1-22,49.38c-27.61,50.45-59.68,82.54-60.88,129.58,0,0-10-44.31-2-94.81,4.48-28.35,14.61-58.65,35.32-84.15,57.65-70.9,49.12-135.39,49.12-135.39S869.5,644.75,841,727.24Z" style="fill:#169799"/><g style="opacity:0.25;mix-blend-mode:overlay"><path d="M773.78,850.89a39.1,39.1,0,0,1-.42-4.3l-.09-2.14V842.3c0-1.43.08-2.86.15-4.28s.22-2.85.36-4.27l.21-2.14.32-2.12c.23-1.41.39-2.83.67-4.23.59-2.79,1.08-5.61,1.86-8.35A158.88,158.88,0,0,1,789,785l1.93-3.82c.62-1.28,1.39-2.49,2.08-3.73,1.44-2.47,2.78-5,4.3-7.4l9.25-14.35a199.86,199.86,0,0,0,15.06-30.53,295,295,0,0,0,10.71-32.38c1.52-5.48,2.82-11,4.08-16.57s2.34-11.13,3.27-16.75,1.79-11.23,2.45-16.88,1.2-11.32,1.5-17a164.56,164.56,0,0,0,.15-17.06c-.08-1.42-.14-2.85-.3-4.26l-.21-2.12L843,600a27,27,0,0,0-2.36-8.17A27.3,27.3,0,0,1,843,600l.33,2.11.22,2.12c.17,1.42.23,2.84.32,4.26a164.73,164.73,0,0,1-.07,17.07c-.28,5.69-.77,11.37-1.43,17s-1.43,11.3-2.37,16.92-2,11.2-3.19,16.78-2.51,11.11-4,16.61a296.62,296.62,0,0,1-10.58,32.48,199.48,199.48,0,0,1-15,30.71L798,770.46c-1.51,2.4-2.85,4.91-4.29,7.36-.68,1.25-1.45,2.45-2.07,3.73l-1.91,3.8a157.3,157.3,0,0,0-12.11,31.76c-.78,2.73-1.27,5.53-1.85,8.3-.28,1.39-.45,2.8-.67,4.2l-.32,2.1-.21,2.12c-.14,1.41-.31,2.82-.35,4.23s-.17,2.83-.15,4.25a52.52,52.52,0,0,0,.49,8.43v0a.42.42,0,0,1-.35.47A.41.41,0,0,1,773.78,850.89Z"/></g><path d="M819,776.62c-27.61,50.45-59.68,82.54-60.88,129.58,0,0-10-44.31-2-94.81C774.06,804.08,799.23,792.16,819,776.62Z" style="opacity:0.25;mix-blend-mode:overlay"/><path d="M774.14,956S754,921.52,801.69,879s85.07-98.82,77.81-144.34c-45.65,53-167,128.24-132.79,221.35Z" style="fill:#20c3c5"/><g style="opacity:0.25;mix-blend-mode:overlay"><path d="M879.5,734.64a117.67,117.67,0,0,1-7.9,14.51c-2.9,4.69-6.11,9.18-9.4,13.6a242.51,242.51,0,0,1-21.78,24.86l-5.93,5.76-6.13,5.54-1.54,1.39-1.58,1.33-3.18,2.65-6.33,5.3-1.59,1.33-1.53,1.38c-1,.93-2.06,1.83-3.06,2.78-2,1.92-4,3.81-5.85,5.82s-3.73,4-5.58,6.08-3.59,4.18-5.26,6.37a184.23,184.23,0,0,0-18,27.61c-2.6,4.85-4.92,9.84-7.08,14.9s-4,10.26-5.61,15.52a142.1,142.1,0,0,0-3.88,16,108.42,108.42,0,0,0-1.78,16.37c-.35,10.94,1,22.1,5.4,32.17a.42.42,0,0,1-.21.54.41.41,0,0,1-.54-.21h0c-4.42-10.24-5.75-21.51-5.37-32.53a111,111,0,0,1,1.84-16.46,142.9,142.9,0,0,1,4-16.08c1.65-5.27,3.52-10.47,5.67-15.56s4.53-10.07,7.15-14.92a184.1,184.1,0,0,1,18.17-27.62c1.68-2.19,3.52-4.25,5.29-6.37s3.67-4.12,5.61-6.08,3.9-3.9,5.89-5.82c1-.94,2-1.84,3.07-2.77l1.54-1.38,1.59-1.32,6.36-5.29,3.17-2.64,1.59-1.32,1.54-1.38,6.15-5.52,5.94-5.74a243.46,243.46,0,0,0,21.84-24.77c3.3-4.41,6.52-8.89,9.43-13.57A117.64,117.64,0,0,0,879.5,734.64Z"/></g><path d="M89.23,706.23s-24.9-22.69-38.13-79.42C127.35,691.45,146,749,146,749Z" style="fill:#169799"/><g style="opacity:0.25;mix-blend-mode:overlay"><path d="M51.1,626.81Q66.86,649.67,81.89,673q7.5,11.7,14.63,23.62l3.51,6,3.39,6.07c1.13,2,2.16,4.1,3.24,6.15s2,4.2,3,6.3a.4.4,0,0,1-.19.54.41.41,0,0,1-.55-.19h0v0c-1-2.09-1.88-4.22-2.92-6.28s-2.08-4.12-3.19-6.15L99.45,703,96,697q-7-12-14.44-23.72Q66.73,649.79,51.1,626.81Z"/></g><path d="M144.48,738.13c-13.71-12.35-34-24.6-53.33-37.78-25.7-17.53-49.64-36.79-54.08-60.3C27,724.9,125.68,763.11,125.68,763.11l.2.28,35.84,52.28S176.37,766.93,144.48,738.13Z" style="fill:#20c3c5"/><g style="opacity:0.25;mix-blend-mode:overlay"><path d="M37.07,640.05c0,9.46,2.76,18.73,6.71,27.25a83.85,83.85,0,0,0,16.45,22.81,107.68,107.68,0,0,0,10.71,9.19c3.77,2.83,7.67,5.48,11.61,8.07,7.89,5.17,15.9,10.16,23.68,15.5a197.4,197.4,0,0,1,22.28,17.45c.88.78,1.74,1.6,2.57,2.43s1.7,1.65,2.52,2.5c1.61,1.72,3.27,3.41,4.78,5.23a101,101,0,0,1,8.53,11.32l1.88,3c.62,1,1.16,2.06,1.74,3.09,1.2,2,2.14,4.22,3.18,6.34a92,92,0,0,1,4.77,13.36,106.39,106.39,0,0,1,3.65,28.07.41.41,0,0,1-.41.41.41.41,0,0,1-.41-.41h0a105.68,105.68,0,0,0-3.52-27.88,92.25,92.25,0,0,0-4.69-13.28c-1-2.11-1.95-4.27-3.13-6.3-.57-1-1.11-2.08-1.71-3.08l-1.87-3A98.57,98.57,0,0,0,138,750.85c-1.49-1.82-3.14-3.5-4.74-5.23-.81-.85-1.66-1.66-2.5-2.49s-1.67-1.65-2.55-2.44A198.06,198.06,0,0,0,106,723.2c-7.76-5.36-15.75-10.37-23.61-15.58-3.94-2.6-7.83-5.27-11.6-8.11a107.13,107.13,0,0,1-10.7-9.26,83.73,83.73,0,0,1-16.4-22.91C39.76,658.8,37.07,649.51,37.07,640.05Z"/></g><path d="M847.08,993.86H184a18.93,18.93,0,0,1-18.93-18.93h0A18.94,18.94,0,0,1,184,956H847.08A18.93,18.93,0,0,1,866,974.93h0A18.92,18.92,0,0,1,847.08,993.86Z" style="fill:#eaf9f8"/></g></g></svg>