<svg id="Layer_1" data-name="Layer 1" xmlns="http://www.w3.org/2000/svg" viewBox="0 0 1000 689"><rect x="10.53" y="75.94" width="105.54" height="110.02" style="fill:#e1e1e1"/><rect x="3.39" y="75.94" width="105.54" height="110.02" style="fill:#f5f5f5"/><path d="M109,186H3.35V75.91H109ZM3.42,185.93H108.89V76H3.42Z" style="fill:#e1e1e1"/><rect x="17.57" y="90.73" width="77.17" height="80.44" style="fill:#fff"/><path d="M17.57,171.71a12.22,12.22,0,0,1-1.9,2.21c-1.23,1.3-3,3.06-4.9,5s-3.73,3.62-5,4.83a12.35,12.35,0,0,1-2.23,1.86,12.76,12.76,0,0,1,1.9-2.21c1.23-1.3,3-3.06,4.91-5s3.74-3.63,5-4.83A12.42,12.42,0,0,1,17.57,171.71Z" style="fill:#e1e1e1"/><path d="M94.74,171.51a12.76,12.76,0,0,1,2.21,1.9c1.3,1.24,3.06,3,5,4.91s3.61,3.72,4.82,5a12.21,12.21,0,0,1,1.86,2.23,12.25,12.25,0,0,1-2.21-1.89c-1.3-1.24-3.06-3-5-4.92s-3.62-3.73-4.83-5.05A12.42,12.42,0,0,1,94.74,171.51Z" style="fill:#e1e1e1"/><path d="M94.53,91a13,13,0,0,1,1.9-2.22c1.24-1.3,3-3.06,4.91-5s3.72-3.61,5-4.82a12.21,12.21,0,0,1,2.23-1.86,12,12,0,0,1-1.89,2.2c-1.24,1.3-3,3.07-4.92,5s-3.74,3.62-5,4.83A12.42,12.42,0,0,1,94.53,91Z" style="fill:#e1e1e1"/><path d="M17.36,91.15a13.17,13.17,0,0,1-2.21-1.91c-1.3-1.23-3.06-3-5-4.9s-3.62-3.73-4.83-5a13.22,13.22,0,0,1-1.86-2.23A11.85,11.85,0,0,1,5.7,79c1.3,1.23,3.06,3,5,4.92s3.63,3.73,4.84,5.05A11.65,11.65,0,0,1,17.36,91.15Z" style="fill:#e1e1e1"/><path d="M94.53,171.17a2.87,2.87,0,0,1,0-.39c0-.27,0-.64,0-1.12,0-1,0-2.46,0-4.34,0-3.81,0-9.36-.08-16.4,0-14.09-.09-34.16-.15-58.19l.3.3-76.95,0h0l.35-.35c0,29.53,0,57.15-.05,80.44l-.3-.29,55.72.15,15.66.08,4.14,0,1.07,0h.37a2.14,2.14,0,0,1-.34,0l-1,0-4.08,0-15.59.08-55.91.15h-.29v-.3c0-23.29,0-50.91-.05-80.44v-.34h.35l77,0h.3v.29c-.07,24.11-.12,44.25-.15,58.38,0,7-.06,12.54-.08,16.33,0,1.86,0,3.29,0,4.28,0,.47,0,.83,0,1.09S94.53,171.18,94.53,171.17Z" style="fill:#e1e1e1"/><rect x="43.28" y="118.08" width="25.75" height="25.75" style="fill:#ececec"/><path d="M812.62,98.28a56.83,56.83,0,0,1,13.93-6.06l2.87-13.79,23.3-.41,3.36,13.68a57.08,57.08,0,0,1,14.13,5.56L882,89.54l16.76,16.19-7.3,12a56.66,56.66,0,0,1,6.06,13.93l13.79,2.87.41,23.3L898,161.23a57.47,57.47,0,0,1-5.56,14.13l7.71,11.78L884,203.9l-12-7.3A57.21,57.21,0,0,1,858,202.66l-2.87,13.79-23.3.41-3.36-13.68a57.11,57.11,0,0,1-14.13-5.57l-11.78,7.72-16.76-16.18,7.29-12a57.18,57.18,0,0,1-6-13.93l-13.79-2.87-.41-23.3,13.68-3.36a57.08,57.08,0,0,1,5.56-14.13l-7.72-11.78L800.58,91l12,7.3Zm12.42,31a25,25,0,1,0,35.35-.62A25,25,0,0,0,825,129.31Z" style="fill:#e1e1e1"/><path d="M936.73,193.61a30.4,30.4,0,0,1,6.12-5.23l-.68-7.43,11.74-3.81,3.82,6.41a29.81,29.81,0,0,1,8,.63l4.77-5.74,11,5.61-1.83,7.22a30.08,30.08,0,0,1,5.22,6.13l7.43-.69,3.82,11.74-6.41,3.82a30.61,30.61,0,0,1-.63,8l5.73,4.78-5.6,11L982,234.23a30.4,30.4,0,0,1-6.12,5.23l.68,7.43-11.74,3.81L961,244.29a29.81,29.81,0,0,1-8-.63l-4.77,5.74-11-5.61,1.83-7.23a30,30,0,0,1-5.22-6.12l-7.43.68-3.82-11.74,6.41-3.81a30.72,30.72,0,0,1,.63-8l-5.73-4.77,5.6-11,7.23,1.84Zm11.1,13.8a13.24,13.24,0,1,0,17.81-5.79A13.24,13.24,0,0,0,947.83,207.41Z" style="fill:#e1e1e1"/><path d="M891.09,285a31.61,31.61,0,0,1,6.4-5.46l-.71-7.77,12.27-4,4,6.7a31.32,31.32,0,0,1,8.39.65l5-6L937.9,275,936,282.55a31.29,31.29,0,0,1,5.46,6.4l7.77-.71,4,12.27-6.7,4a31.67,31.67,0,0,1-.66,8.38l6,5L946,329.36l-7.56-1.92a31.29,31.29,0,0,1-6.4,5.46l.72,7.77-12.27,4-4-6.7a31.75,31.75,0,0,1-8.39-.66l-5,6-11.5-5.85,1.92-7.56a31.83,31.83,0,0,1-5.46-6.39l-7.77.71-4-12.27,6.7-4a31.63,31.63,0,0,1,.65-8.38l-6-5,5.86-11.5,7.55,1.92Zm11.6,14.42a13.84,13.84,0,1,0,18.61-6.05A13.85,13.85,0,0,0,902.69,299.41Z" style="fill:#f5f5f5"/><path d="M533,67.4a36.3,36.3,0,0,1,7.36-6.29l-.82-8.94,14.13-4.59,4.59,7.71a36.59,36.59,0,0,1,9.65.76l5.74-6.9,13.24,6.74-2.21,8.7A36.62,36.62,0,0,1,591,72l8.94-.82,4.59,14.13-7.72,4.59a36.16,36.16,0,0,1-.75,9.65l6.9,5.74-6.75,13.24-8.69-2.21a36.67,36.67,0,0,1-7.37,6.29l.82,8.94-14.12,4.59-4.6-7.72a36.2,36.2,0,0,1-9.65-.75l-5.74,6.9-13.23-6.75,2.21-8.69a36.09,36.09,0,0,1-6.29-7.37l-8.94.82L516,98.41l7.71-4.6a36.66,36.66,0,0,1,.76-9.65l-6.9-5.74,6.74-13.23L533,67.4ZM546.37,84a15.93,15.93,0,1,0,21.43-7A15.94,15.94,0,0,0,546.37,84Z" style="fill:#e1e1e1"/><path d="M51.22,542.36a42.29,42.29,0,0,0-18-6.21c-2.94-.3-6.17-.21-8.53,1.57a1.77,1.77,0,0,0-.88,1.56,1.88,1.88,0,0,0,.84,1.07c7.34,5.6,18.44,6.3,26.62,2" style="fill:#e1e1e1"/><path d="M50.75,541.85A87.41,87.41,0,0,1,39.1,531.6a29.54,29.54,0,0,1-7.31-13.51c-.31-1.54-.41-3.3.58-4.52,9.29,7.25,16.59,16.63,18.38,28.28" style="fill:#e1e1e1"/><path d="M51.12,542.29a42.29,42.29,0,0,1,.21-15.3c1.17-5,3.89-9.77,8.15-12.62,1.61,3.75.92,8.07-.21,12a58.52,58.52,0,0,1-8.08,17" style="fill:#e1e1e1"/><path d="M60.22,558.61c-5.52.67-10.34,3.58-14.46,7.32a27.36,27.36,0,0,0-8.28,14.21c5.42-.34,10-4.16,13.36-8.45s5.64-9,9.31-13" style="fill:#e1e1e1"/><path d="M62.2,561.22a35.7,35.7,0,0,1,4.12-33.76c3.15,11.2,2,23.86-4.12,33.76" style="fill:#e1e1e1"/><path d="M74.23,575.54a25.83,25.83,0,0,0-24.67,14.21c-.31.61-.58,1.38-.17,1.93a1.83,1.83,0,0,0,1.64.48c4.86-.31,9.17-3.24,12.73-6.57s6.65-7.18,10.58-10.06" style="fill:#e1e1e1"/><path d="M73.85,574.76a45.93,45.93,0,0,1-.46-25.67c.91-3.3,2.42-6.78,5.48-8.33a1.05,1.05,0,0,1,.84-.14,1.07,1.07,0,0,1,.53.61,15.56,15.56,0,0,1,1.29,7.36,45.93,45.93,0,0,1-1.16,7.46c-1,4.56-1.47,9.45-4,13.38a28.66,28.66,0,0,0-1.59,2.94c-.47,1-.47,1.35-.91,2.15" style="fill:#e1e1e1"/><path d="M105.7,579.51c-2.36-9,.14-19.86,5.8-27.21.41-.55,1-1.13,1.65-1.06,1,.09,1.31,1.48,1.26,2.53a49.21,49.21,0,0,1-8.71,25.74" style="fill:#e1e1e1"/><path d="M108.57,581.47c10.9,2.84,23.41.08,32.48-6.6a26.21,26.21,0,0,0-17.58-2.16c-5.88,1.34-11.25,4-14.9,8.76" style="fill:#e1e1e1"/><path d="M111,575.5c6.11-10,17.81-16.46,29.48-17-1.34,4.74-5.24,8.43-9.64,10.66s-9.31,3.2-14.15,4.14c-1.89.36-4.47.77-5.69,2.25" style="fill:#e1e1e1"/><path d="M106.3,546.5c1.66-5.67,3.32-11.38,3.77-17.27s-.38-12-3.43-17.07c-5.71,11-6.29,23.93-.51,34.93" style="fill:#e1e1e1"/><path d="M125.51,536.79c6.67-12.12,20.28-21.81,34.05-23.16-5.31,13.22-19.8,23.45-34,23.16" style="fill:#e1e1e1"/><path d="M121.31,539.17c9.95,1.51,18.43,7.87,27.72,11.72a12.48,12.48,0,0,0,6.27,1.2,4.9,4.9,0,0,0,3.07-8.68,13.39,13.39,0,0,0-4.55-2.76c-10.13-4.22-21-4.32-31.65-1.77" style="fill:#e1e1e1"/><path d="M115.55,546.15c2.26.64,3,1.81,4.81,3.33a51.8,51.8,0,0,0,21,10.79c.81.2,1.86.28,2.26-.44s-.1-1.4-.55-2a28.89,28.89,0,0,0-12.69-8.61c-4.85-1.81-9.05-4-14.85-3.52" style="fill:#e1e1e1"/><path d="M109.06,504a39.79,39.79,0,0,0,30.5,10.38,2.11,2.11,0,0,0,1.39-.5c.77-.83-.16-2.12-1-2.82-9-7-19.83-9.89-30.84-7.06" style="fill:#e1e1e1"/><path d="M116.76,501.18a42.52,42.52,0,0,1,38.06-6.28c-4.79,4.73-11.44,7.27-18.14,8a57.24,57.24,0,0,1-19.92-1.68" style="fill:#e1e1e1"/><path d="M113.7,481.82c-.88-8.95-.31-16-.93-25,0-.72-.21-1.59-.88-1.84-.93-.37-1.71.79-2,1.74a28.64,28.64,0,0,0,3.82,24.91" style="fill:#e1e1e1"/><path d="M113.06,482.81c6.06-3.76,10.61-8.66,14.82-14.42,2.93-4,5.4-8.8,4.73-13.72-4.11-.08-8,2.19-10.69,5.31a29.67,29.67,0,0,0-5.45,11c-1.19,3.94-2,8-3.41,11.86" style="fill:#e1e1e1"/><path d="M127.62,478.76a119.55,119.55,0,0,0,36.49-21.52c-4.36-1.75-9.35-.7-13.7,1.06-10,4-18.1,10.8-23,20.36" style="fill:#e1e1e1"/><path d="M117.15,487.7c6.74.74,13.58,1.22,20.26.1s12.78-3.7,18.92-6.28a2.21,2.21,0,0,0,1.28-1,1.47,1.47,0,0,0-.46-1.62,3.85,3.85,0,0,0-1.61-.75c-6.67-1.87-13.88-1-20.44,1.22a94.57,94.57,0,0,0-17.95,8.31" style="fill:#e1e1e1"/><path d="M78.69,504.31c-4.6-9.28-4.3-20.1-.33-29.67,2.8,4.26,3.14,9.69,2.63,14.75s-2.06,10.29-2.16,15.38" style="fill:#e1e1e1"/><path d="M60.33,495.05a41.38,41.38,0,0,0-30.74,13.09c5.72.9,11.62-.57,16.83-3.12s9.84-6.11,14.43-9.65" style="fill:#e1e1e1"/><path d="M48,490.92c-5.62-.46-11-1.15-16.41.5S21.27,496.83,19.07,502a29.66,29.66,0,0,0,15.38-2.91A88.57,88.57,0,0,0,48,490.92" style="fill:#e1e1e1"/><path d="M66.26,491.11c-5.05-3.31-10.23-6.68-16.11-8.05s-12.7-.36-16.8,4.07c4.76,2.8,10.54,3.13,16.06,3.12s12.28-.06,17.48,1.78" style="fill:#e1e1e1"/><path d="M66.29,491.38c-8.63-8.48-11.9-23.71-8.43-35.3a53.77,53.77,0,0,1,8.43,35.3" style="fill:#e1e1e1"/><path d="M90,467.36c1.63-3.79,2.77-7.76,4.23-11.61a33.32,33.32,0,0,1,6-10.71A15.92,15.92,0,0,1,111,439.5a43,43,0,0,1-20.75,27.92" style="fill:#e1e1e1"/><path d="M85.73,472.36c-2.69-3.71-5.8-8.74-9.46-11.51s-8.41-4.44-12.87-3.38a30,30,0,0,0,22.33,14.89" style="fill:#e1e1e1"/><path d="M86.59,467.67c-1.76-4.49-3.54-9-4.25-13.8s-.28-9.86,2.15-14c4.74,9,6.27,18.57,2.35,27.92" style="fill:#e1e1e1"/><path d="M90.07,439.85c2.69-8.88,10.82-15.42,19.6-18.42a7.25,7.25,0,0,1,3.43-.51,3,3,0,0,1,2.53,2.11c.33,1.51-.92,2.86-2.1,3.87a66.7,66.7,0,0,1-23.46,13" style="fill:#e1e1e1"/><path d="M90.17,432.59c.34-5.73.7-11.54,2.56-17s5.45-10.51,10.67-12.89c.89,5.78-1.66,11.54-4.74,16.51s-6.78,9.68-8.63,15.23" style="fill:#e1e1e1"/><path d="M90,436.53c-2.22-6.47-2.45-14.69-6.32-20.33-2.71-3.94-7-6.63-9.38-10.8a16.44,16.44,0,0,0,.54,12.26A35.36,35.36,0,0,0,82,427.92c2.87,3.07,5.32,5.37,8,8.61" style="fill:#e1e1e1"/><path d="M90.07,627.11c-.17,0-.32-43.17-.33-96.41s.12-96.43.29-96.43.32,43.17.33,96.43S90.25,627.11,90.07,627.11Z" style="fill:#e1e1e1"/><path d="M127.8,497.79a9.27,9.27,0,0,1-1.62.61l-4.47,1.51c-3.77,1.28-8.94,3.14-14.56,5.44s-10.8,4.32-13.79,6.91a10.25,10.25,0,0,0-2.77,3.67c-.43,1-.5,1.63-.56,1.62a1.4,1.4,0,0,1,0-.45,6.39,6.39,0,0,1,.32-1.26,9.66,9.66,0,0,1,2.7-3.91,24.25,24.25,0,0,1,6-3.72c2.4-1.11,5-2.28,7.87-3.44,5.63-2.3,10.84-4.1,14.65-5.28,1.91-.59,3.46-1,4.54-1.32A9.93,9.93,0,0,1,127.8,497.79Z" style="fill:#e1e1e1"/><path d="M140.17,467.42a3.71,3.71,0,0,1-.46.48l-1.38,1.3-5.17,4.7-17.22,15.33c-6.72,6-12.52,11.7-16.55,16-2,2.15-3.6,3.93-4.68,5.17l-1.25,1.43c-.29.32-.45.49-.47.47a2.61,2.61,0,0,1,.37-.55c.26-.35.64-.87,1.16-1.51,1-1.29,2.57-3.12,4.55-5.31a217.88,217.88,0,0,1,16.46-16.17c6.74-6,12.87-11.32,17.33-15.19l5.31-4.55,1.46-1.21C140,467.54,140.15,467.4,140.17,467.42Z" style="fill:#e1e1e1"/><path d="M108.69,495.31c-.18-.08,1.23-3.32,2.62-7.42s2.08-7.55,2.26-7.53-.24,3.58-1.66,7.73a52,52,0,0,1-2.09,5.19A8.56,8.56,0,0,1,108.69,495.31Z" style="fill:#e1e1e1"/><path d="M90.11,521.44a7.51,7.51,0,0,1-1-1.2l-2.65-3.4C84.2,514,81.12,510,77.66,505.63s-6.62-8.25-8.92-11.08c-1.09-1.34-2-2.46-2.71-3.35a7.7,7.7,0,0,1-.94-1.28A7.59,7.59,0,0,1,66.21,491c.69.75,1.67,1.85,2.87,3.23,2.38,2.75,5.61,6.62,9.07,11s6.49,8.38,8.63,11.33c1.07,1.48,1.92,2.68,2.49,3.53A7.12,7.12,0,0,1,90.11,521.44Z" style="fill:#e1e1e1"/><path d="M81.84,510.82c-.1.11-2.31-2.51-3.46-6.49a18.25,18.25,0,0,1-.79-6.54l.28,0c-.13.5-.22.76-.27.75s0-.29,0-.8l.28,0a29.64,29.64,0,0,0,1.1,6.37C80.09,508,82,510.72,81.84,510.82Z" style="fill:#e1e1e1"/><path d="M71.16,497.39A10.87,10.87,0,0,0,68.74,496a16.26,16.26,0,0,0-6.72-.53,40.8,40.8,0,0,0-6.76,1.09,21.07,21.07,0,0,1-2.78.67,9.27,9.27,0,0,1,2.66-1.1A31.3,31.3,0,0,1,62,494.83a14.61,14.61,0,0,1,6.93.74A4.23,4.23,0,0,1,71.16,497.39Z" style="fill:#e1e1e1"/><path d="M68.63,494.13c0,.1-1.41-.56-3.71-1.35a37.36,37.36,0,0,0-18.68-1.42c-2.39.43-3.83.87-3.87.77a3.63,3.63,0,0,1,1-.42,22.76,22.76,0,0,1,2.8-.78,32.95,32.95,0,0,1,18.91,1.44,21.85,21.85,0,0,1,2.65,1.2A3.53,3.53,0,0,1,68.63,494.13Z" style="fill:#e1e1e1"/><path d="M90,480.36c-.17.05-1.38-4.16-2.7-9.39s-2.27-9.5-2.1-9.54,1.38,4.16,2.7,9.39S90.2,480.32,90,480.36Z" style="fill:#e1e1e1"/><path d="M90.2,480.36c-.18.06-1-2.74-3-5.62a25.41,25.41,0,0,0-4.41-4.55,4.17,4.17,0,0,1,1.7.88,14,14,0,0,1,3.22,3.31C89.83,477.37,90.35,480.35,90.2,480.36Z" style="fill:#e1e1e1"/><path d="M90.07,604.1c-.06,0-.19-1-.68-2.87a40.7,40.7,0,0,0-2.88-7.48c-3-6.09-8.41-13.82-15.31-21.56-3.42-3.91-6.73-7.59-9.55-11.12a78.43,78.43,0,0,1-6.82-9.84,47.52,47.52,0,0,1-3.45-7.31c-.32-.9-.55-1.6-.68-2.09a3.76,3.76,0,0,1-.17-.74s.37,1,1.08,2.74a53.88,53.88,0,0,0,3.6,7.18,83,83,0,0,0,6.89,9.7c2.83,3.49,6.15,7.16,9.57,11.07,6.92,7.76,12.33,15.59,15.24,21.78a37,37,0,0,1,2.72,7.61,21,21,0,0,1,.38,2.17A2.9,2.9,0,0,1,90.07,604.1Z" style="fill:#e1e1e1"/><path d="M124.17,565.59a15.62,15.62,0,0,1-1.79,1,38.43,38.43,0,0,0-4.64,3.06,54,54,0,0,0-6.08,5.55c-2.14,2.26-4.34,4.88-6.58,7.69-4.5,5.63-8.69,10.62-11.21,14.59-1.28,2-2.2,3.64-2.81,4.81a14.63,14.63,0,0,1-1,1.8,1.79,1.79,0,0,1,.17-.51c.13-.32.31-.8.6-1.4a45.27,45.27,0,0,1,2.66-4.93c2.44-4.08,6.61-9.13,11.09-14.75,2.25-2.82,4.48-5.44,6.65-7.7a48.59,48.59,0,0,1,6.24-5.5,32.4,32.4,0,0,1,4.79-2.93c.59-.3,1.07-.48,1.39-.62A1.7,1.7,0,0,1,124.17,565.59Z" style="fill:#e1e1e1"/><path d="M124.83,578.08a23.91,23.91,0,0,1-3.77.55,49.3,49.3,0,0,0-9,1.77,26.93,26.93,0,0,0-8,4.21c-1.85,1.42-2.72,2.61-2.81,2.54a3.07,3.07,0,0,1,.56-.87,14.8,14.8,0,0,1,2-2,24.32,24.32,0,0,1,8.11-4.46,40.41,40.41,0,0,1,9.1-1.61A21,21,0,0,1,124.83,578.08Z" style="fill:#e1e1e1"/><path d="M102.38,585.77c-.2-.11,1.5-2.71,2.82-6.2s1.53-6.63,1.75-6.59a6,6,0,0,1-.06,2,22.21,22.21,0,0,1-1.1,4.77,23.64,23.64,0,0,1-2.19,4.38C102.92,585.21,102.45,585.82,102.38,585.77Z" style="fill:#e1e1e1"/><path d="M135.21,532.06a3.06,3.06,0,0,1-.61.32l-1.77.8c-.78.34-1.72.76-2.79,1.32s-2.31,1.12-3.61,1.9l-2.06,1.17c-.71.41-1.42.9-2.17,1.37-1.52.92-3,2-4.66,3.21a88.33,88.33,0,0,0-9.74,8.56,89.33,89.33,0,0,0-8.23,10c-1.1,1.66-2.18,3.22-3,4.77-.44.77-.91,1.49-1.29,2.22s-.75,1.43-1.1,2.1c-.74,1.32-1.26,2.59-1.78,3.67s-.91,2-1.22,2.83l-.74,1.8a2.8,2.8,0,0,1-.3.61,2.72,2.72,0,0,1,.18-.65l.64-1.85c.27-.8.63-1.78,1.12-2.88s1-2.39,1.7-3.73l1.07-2.13c.38-.74.84-1.47,1.27-2.25.86-1.57,1.93-3.15,3-4.84a77.09,77.09,0,0,1,18.09-18.72c1.65-1.15,3.19-2.28,4.73-3.19.77-.46,1.49-.94,2.21-1.35l2.09-1.14c1.32-.76,2.59-1.3,3.67-1.82s2.05-.93,2.84-1.23l1.83-.7A2.82,2.82,0,0,1,135.21,532.06Z" style="fill:#e1e1e1"/><path d="M108.23,550.13a4.28,4.28,0,0,1,1.48-2.21,9.39,9.39,0,0,1,6-2.29,16.37,16.37,0,0,1,6.29,1.23,8.77,8.77,0,0,1,2.38,1.16,15.83,15.83,0,0,1-2.53-.74,19.11,19.11,0,0,0-6.12-1,9.76,9.76,0,0,0-5.71,2A15.53,15.53,0,0,0,108.23,550.13Z" style="fill:#e1e1e1"/><path d="M104.19,554.29c-.17-.09,1.35-2.32,1.7-5.52s-.57-5.71-.38-5.76a3.6,3.6,0,0,1,.7,1.61,11.18,11.18,0,0,1,.3,4.22,11.37,11.37,0,0,1-1.27,4C104.72,553.84,104.25,554.34,104.19,554.29Z" style="fill:#e1e1e1"/><path d="M60.26,610.29c.93,16.49,5.9,33.27,13.55,50.24h33.25c7.29-16.8,11.92-33.55,12.74-50.24Z" style="fill:#e1e1e1"/><path d="M114.41,637c0,.18-10.94.31-24.45.31s-24.45-.13-24.45-.31,10.94-.31,24.45-.31S114.41,636.81,114.41,637Z" style="fill:#fafafa"/><path d="M113.67,643c0,.17-10.26.31-22.92.31s-22.93-.14-22.93-.31,10.26-.31,22.93-.31S113.67,642.79,113.67,643Z" style="fill:#fafafa"/><path d="M74.34,621.12c.17,0,.31,3.43.31,7.66s-.14,7.66-.31,7.66S74,633,74,628.78,74.17,621.12,74.34,621.12Z" style="fill:#fafafa"/><path d="M92.16,621.12c.17,0,.31,3.55.31,7.93s-.14,7.93-.31,7.93-.31-3.55-.31-7.93S92,621.12,92.16,621.12Z" style="fill:#fafafa"/><path d="M108.89,621c.17,0,.31,3.63.31,8.09s-.14,8.09-.31,8.09-.32-3.62-.32-8.09S108.71,621,108.89,621Z" style="fill:#fafafa"/><path d="M118.75,621.12c0,.17-12.84.31-28.68.31s-28.68-.14-28.68-.31,12.84-.31,28.68-.31S118.75,621,118.75,621.12Z" style="fill:#fafafa"/><path d="M957.74,659.58c0,.21-208.08.38-464.71.38s-464.75-.17-464.75-.38,208-.37,464.75-.37S957.74,659.38,957.74,659.58Z" style="fill:#1a2e35"/><path d="M780.47,84H176.24a18.87,18.87,0,0,0-18.86,18.86V529.65a18.87,18.87,0,0,0,18.86,18.87H408.15L396.41,661.93l168.91-1-9.67-112.36H780.47a18.86,18.86,0,0,0,18.86-18.86V102.88A18.86,18.86,0,0,0,780.47,84Z" style="fill:#375a64"/><path d="M486.43,503.63c8.22,11.75-4.65,24.61-16.4,16.39a4,4,0,0,1-1-1c-8.2-11.74,4.65-24.59,16.4-16.39A4.21,4.21,0,0,1,486.43,503.63Z" style="fill:#1a2e35"/><path d="M177.49,91.83H779.23a9.7,9.7,0,0,1,9.7,9.7V470.44a0,0,0,0,1,0,0H167.79a0,0,0,0,1,0,0V101.53A9.7,9.7,0,0,1,177.49,91.83Z" style="fill:#fff"/><path d="M176.94,91.83H781.41a7.52,7.52,0,0,1,7.52,7.52v23.94a0,0,0,0,1,0,0H167.79a0,0,0,0,1,0,0V101A9.15,9.15,0,0,1,176.94,91.83Z" style="fill:#f5f5f5"/><path d="M191.93,108.22a4.37,4.37,0,1,1-4.36-4.36A4.37,4.37,0,0,1,191.93,108.22Z" style="fill:#e1e1e1"/><path d="M204.94,108.22a4.37,4.37,0,1,1-4.36-4.36A4.37,4.37,0,0,1,204.94,108.22Z" style="fill:#e1e1e1"/><path d="M217.31,108.22a4.37,4.37,0,1,1-4.36-4.36A4.37,4.37,0,0,1,217.31,108.22Z" style="fill:#e1e1e1"/><path d="M618,548.52c0,.21-50.66.38-113.12.38s-113.14-.17-113.14-.38,50.65-.37,113.14-.37S618,548.32,618,548.52Z" style="fill:#1a2e35"/><rect x="167.79" y="123.29" width="102.09" height="347.15" style="fill:#ececec"/><path d="M212.66,130.71a7.13,7.13,0,0,1,1.7-.74l.35-1.68,2.84,0,.41,1.67a7,7,0,0,1,1.72.68l1.44-.94,2,2-.9,1.47a6.55,6.55,0,0,1,.74,1.7l1.69.35.05,2.84-1.67.41a7.32,7.32,0,0,1-.68,1.73l.94,1.43-2,2-1.46-.89a7.31,7.31,0,0,1-1.7.74l-.35,1.68-2.85.05-.41-1.67a7,7,0,0,1-1.72-.68l-1.44.94-2-2,.89-1.47a6.91,6.91,0,0,1-.74-1.7l-1.68-.35-.05-2.84,1.67-.41a6.89,6.89,0,0,1,.67-1.73l-.94-1.43,2-2.05,1.47.89Zm1.51,3.79a3.05,3.05,0,1,0,4.31-.08A3,3,0,0,0,214.17,134.5Z" style="fill:#e1e1e1"/><path d="M236.24,210.37h-44.5a4.58,4.58,0,0,1-4.58-4.57h0a4.58,4.58,0,0,1,4.58-4.58h44.5a4.58,4.58,0,0,1,4.58,4.58h0A4.58,4.58,0,0,1,236.24,210.37Z" style="fill:#e1e1e1"/><path d="M236.24,187.07h-44.5a4.58,4.58,0,0,1-4.58-4.57h0a4.58,4.58,0,0,1,4.58-4.58h44.5a4.58,4.58,0,0,1,4.58,4.58h0A4.58,4.58,0,0,1,236.24,187.07Z" style="fill:#e1e1e1"/><path d="M236.24,165.76h-44.5a4.58,4.58,0,0,1-4.58-4.58h0a4.58,4.58,0,0,1,4.58-4.57h44.5a4.58,4.58,0,0,1,4.58,4.57h0A4.58,4.58,0,0,1,236.24,165.76Z" style="fill:#e1e1e1"/><path d="M355.82,163.13H313.66a4.58,4.58,0,0,1-4.57-4.57h0a4.58,4.58,0,0,1,4.57-4.58h42.16a4.58,4.58,0,0,1,4.57,4.58h0A4.58,4.58,0,0,1,355.82,163.13Z" style="fill:#1a2e35"/><path d="M355.82,187.07H313.66a4.58,4.58,0,0,1-4.57-4.57h0a4.58,4.58,0,0,1,4.57-4.58h42.16a4.58,4.58,0,0,1,4.57,4.58h0A4.58,4.58,0,0,1,355.82,187.07Z" style="fill:#e1e1e1"/><path d="M355.82,211.81H313.66a4.58,4.58,0,0,1-4.57-4.57h0a4.58,4.58,0,0,1,4.57-4.58h42.16a4.58,4.58,0,0,1,4.57,4.58h0A4.58,4.58,0,0,1,355.82,211.81Z" style="fill:#ff735d"/><path d="M337.84,259.65H313.66a4.58,4.58,0,0,1-4.57-4.58h0a4.58,4.58,0,0,1,4.57-4.57h24.18a4.58,4.58,0,0,1,4.57,4.57h0A4.58,4.58,0,0,1,337.84,259.65Z" style="fill:#1a2e35"/><path d="M337.84,284.44H313.66a4.58,4.58,0,0,1-4.57-4.57h0a4.58,4.58,0,0,1,4.57-4.58h24.18a4.58,4.58,0,0,1,4.57,4.58h0A4.58,4.58,0,0,1,337.84,284.44Z" style="fill:#1a2e35"/><path d="M409.68,284.44H365.35a4.58,4.58,0,0,1-4.57-4.57h0a4.58,4.58,0,0,1,4.57-4.58h44.33a4.58,4.58,0,0,1,4.57,4.58h0A4.58,4.58,0,0,1,409.68,284.44Z" style="fill:#e1e1e1"/><path d="M384.61,306.49H340.28a4.58,4.58,0,0,1-4.57-4.57h0a4.58,4.58,0,0,1,4.57-4.58h44.33a4.58,4.58,0,0,1,4.57,4.58h0A4.58,4.58,0,0,1,384.61,306.49Z" style="fill:#ff735d"/><rect x="360.86" y="322.49" width="36.69" height="9.15" rx="3.11" style="fill:#ff735d"/><path d="M393,380.93H365.43a4.58,4.58,0,0,1-4.57-4.57h0a4.58,4.58,0,0,1,4.57-4.58H393a4.58,4.58,0,0,1,4.58,4.58h0A4.58,4.58,0,0,1,393,380.93Z" style="fill:#ff735d"/><path d="M393,433H365.43a4.58,4.58,0,0,1-4.57-4.57h0a4.57,4.57,0,0,1,4.57-4.57H393a4.57,4.57,0,0,1,4.58,4.57h0A4.58,4.58,0,0,1,393,433Z" style="fill:#ff735d"/><path d="M460.68,433H412.4a4.58,4.58,0,0,1-4.58-4.57h0a4.57,4.57,0,0,1,4.58-4.57h48.28a4.57,4.57,0,0,1,4.57,4.57h0A4.58,4.58,0,0,1,460.68,433Z" style="fill:#375a64"/><path d="M494.47,433h-7a4.57,4.57,0,0,1-4.57-4.57h0a4.56,4.56,0,0,1,4.57-4.57h7a4.57,4.57,0,0,1,4.58,4.57h0A4.58,4.58,0,0,1,494.47,433Z" style="fill:#e1e1e1"/><path d="M457.79,380.93H417a4.58,4.58,0,0,1-4.57-4.57h0a4.58,4.58,0,0,1,4.57-4.58h40.81a4.58,4.58,0,0,1,4.57,4.58h0A4.58,4.58,0,0,1,457.79,380.93Z" style="fill:#e1e1e1"/><path d="M547.26,403.79H417a4.58,4.58,0,0,1-4.57-4.58h0a4.58,4.58,0,0,1,4.57-4.57H547.26a4.58,4.58,0,0,1,4.58,4.57h0A4.58,4.58,0,0,1,547.26,403.79Z" style="fill:#e1e1e1"/><path d="M562.31,380.93H479.13a4.58,4.58,0,0,1-4.57-4.57h0a4.58,4.58,0,0,1,4.57-4.58h83.18a4.58,4.58,0,0,1,4.58,4.58h0A4.58,4.58,0,0,1,562.31,380.93Z" style="fill:#375a64"/><rect x="409.53" y="322.49" width="43.61" height="9.15" rx="3.11" style="fill:#375a64"/><rect x="465.25" y="322.49" width="17.71" height="9.15" rx="3.11" style="fill:#e1e1e1"/><rect x="496.43" y="322.49" width="52.24" height="9.15" rx="3.11" style="fill:#e1e1e1"/><path d="M414.63,306.49h-9.88a4.58,4.58,0,0,1-4.57-4.57h0a4.58,4.58,0,0,1,4.57-4.58h9.88a4.58,4.58,0,0,1,4.57,4.58h0A4.58,4.58,0,0,1,414.63,306.49Z" style="fill:#1a2e35"/><path d="M498.31,306.49H435.42a4.57,4.57,0,0,1-4.57-4.57h0a4.57,4.57,0,0,1,4.57-4.58h62.89a4.58,4.58,0,0,1,4.57,4.58h0A4.58,4.58,0,0,1,498.31,306.49Z" style="fill:#e1e1e1"/><path d="M423.35,163.13H381.2a4.58,4.58,0,0,1-4.58-4.57h0A4.58,4.58,0,0,1,381.2,154h42.15a4.58,4.58,0,0,1,4.58,4.58h0A4.58,4.58,0,0,1,423.35,163.13Z" style="fill:#375a64"/><path d="M477.67,187.07H381.2a4.58,4.58,0,0,1-4.58-4.57h0a4.58,4.58,0,0,1,4.58-4.58h96.47a4.58,4.58,0,0,1,4.57,4.58h0A4.58,4.58,0,0,1,477.67,187.07Z" style="fill:#1a2e35"/><path d="M581.53,211.81H381.2a4.58,4.58,0,0,1-4.58-4.57h0a4.58,4.58,0,0,1,4.58-4.58H581.53a4.58,4.58,0,0,1,4.58,4.58h0A4.58,4.58,0,0,1,581.53,211.81Z" style="fill:#e1e1e1"/><path d="M475.66,229.24H381.2a4.58,4.58,0,0,1-4.58-4.57h0a4.58,4.58,0,0,1,4.58-4.58h94.46a4.58,4.58,0,0,1,4.57,4.58h0A4.58,4.58,0,0,1,475.66,229.24Z" style="fill:#e1e1e1"/><path d="M456.34,259.65H361.88a4.58,4.58,0,0,1-4.58-4.58h0a4.58,4.58,0,0,1,4.58-4.57h94.46a4.58,4.58,0,0,1,4.57,4.57h0A4.58,4.58,0,0,1,456.34,259.65Z" style="fill:#375a64"/><path d="M509.22,259.65H477.55a4.58,4.58,0,0,1-4.57-4.58h0a4.58,4.58,0,0,1,4.57-4.57h31.67a4.58,4.58,0,0,1,4.57,4.57h0A4.58,4.58,0,0,1,509.22,259.65Z" style="fill:#ff735d"/><path d="M590.17,259.5H530.36a4.58,4.58,0,0,1-4.58-4.58h0a4.58,4.58,0,0,1,4.58-4.57h59.81a4.58,4.58,0,0,1,4.57,4.57h0A4.58,4.58,0,0,1,590.17,259.5Z" style="fill:#1a2e35"/><path d="M671.56,259.5H611.75a4.58,4.58,0,0,1-4.57-4.58h0a4.58,4.58,0,0,1,4.57-4.57h59.81a4.57,4.57,0,0,1,4.57,4.57h0A4.57,4.57,0,0,1,671.56,259.5Z" style="fill:#e1e1e1"/><path d="M217,235H191.74a4.58,4.58,0,0,1-4.58-4.58h0a4.58,4.58,0,0,1,4.58-4.57H217a4.58,4.58,0,0,1,4.57,4.57h0A4.58,4.58,0,0,1,217,235Z" style="fill:#e1e1e1"/><path d="M209.42,309H191.74a4.58,4.58,0,0,1-4.58-4.57h0a4.58,4.58,0,0,1,4.58-4.58h17.68a4.58,4.58,0,0,1,4.57,4.58h0A4.58,4.58,0,0,1,209.42,309Z" style="fill:#e1e1e1"/><path d="M240.82,259.7H191.74a4.58,4.58,0,0,1-4.58-4.57h0a4.58,4.58,0,0,1,4.58-4.58h49.08a4.58,4.58,0,0,1,4.57,4.58h0A4.58,4.58,0,0,1,240.82,259.7Z" style="fill:#e1e1e1"/><path d="M232.2,284.37H191.74a4.58,4.58,0,0,1-4.58-4.58h0a4.58,4.58,0,0,1,4.58-4.57H232.2a4.58,4.58,0,0,1,4.58,4.57h0A4.58,4.58,0,0,1,232.2,284.37Z" style="fill:#e1e1e1"/><path d="M293,158.56a4.65,4.65,0,1,1-4.65-4.65A4.65,4.65,0,0,1,293,158.56Z" style="fill:#375a64"/><path d="M293,182.43a4.65,4.65,0,1,1-4.65-4.65A4.65,4.65,0,0,1,293,182.43Z" style="fill:#375a64"/><path d="M293,207.24a4.65,4.65,0,1,1-4.65-4.65A4.65,4.65,0,0,1,293,207.24Z" style="fill:#375a64"/><path d="M293,232.05a4.65,4.65,0,1,1-4.65-4.64A4.65,4.65,0,0,1,293,232.05Z" style="fill:#375a64"/><path d="M293,256.86a4.65,4.65,0,1,1-4.65-4.64A4.65,4.65,0,0,1,293,256.86Z" style="fill:#375a64"/><path d="M293,281.68a4.65,4.65,0,1,1-4.65-4.65A4.65,4.65,0,0,1,293,281.68Z" style="fill:#375a64"/><path d="M293,306.49a4.65,4.65,0,1,1-4.65-4.64A4.65,4.65,0,0,1,293,306.49Z" style="fill:#375a64"/><path d="M293,331.3a4.65,4.65,0,1,1-4.65-4.64A4.65,4.65,0,0,1,293,331.3Z" style="fill:#375a64"/><path d="M293,356.12a4.65,4.65,0,1,1-4.65-4.65A4.65,4.65,0,0,1,293,356.12Z" style="fill:#375a64"/><path d="M293,380.93a4.65,4.65,0,1,1-4.65-4.64A4.65,4.65,0,0,1,293,380.93Z" style="fill:#375a64"/><path d="M293,405.74a4.65,4.65,0,1,1-4.65-4.64A4.65,4.65,0,0,1,293,405.74Z" style="fill:#375a64"/><path d="M293,430.56a4.65,4.65,0,1,1-4.65-4.65A4.65,4.65,0,0,1,293,430.56Z" style="fill:#375a64"/><path d="M876.81,659.55l-163.87-.1A35.55,35.55,0,0,1,677.27,624l.08-407.48a35.55,35.55,0,0,1,35.72-35.4l163.86.09a35.55,35.55,0,0,1,35.67,35.42l-.08,407.48A35.55,35.55,0,0,1,876.81,659.55Z" style="fill:#1a2e35"/><path d="M876.39,195.79l-31.77,0a7.86,7.86,0,0,0-7.72,8v5.72a7.85,7.85,0,0,1-7.71,8l-61.93,0a7.87,7.87,0,0,1-7.72-8v-5.71a7.88,7.88,0,0,0-7.72-8H740.66l-27.81,0a24.89,24.89,0,0,0-25,24.79l-.08,397.74a24.9,24.9,0,0,0,25,24.8l163.53.1a24.91,24.91,0,0,0,25-24.8l.08-397.73A24.89,24.89,0,0,0,876.39,195.79Z" style="fill:#fff"/><path d="M687.94,255.83h58.33a0,0,0,0,1,0,0V643.39a0,0,0,0,1,0,0H706a18.1,18.1,0,0,1-18.1-18.1V255.83A0,0,0,0,1,687.94,255.83Z" style="fill:#ececec"/><path d="M807.63,282.88H779.85a3.1,3.1,0,0,1-3-3.17h0a3.1,3.1,0,0,1,3-3.17h27.78a3.1,3.1,0,0,1,3,3.17h0A3.1,3.1,0,0,1,807.63,282.88Z" style="fill:#1a2e35"/><path d="M808.49,299.43H780.71a3.09,3.09,0,0,1-3-3.17h0a3.1,3.1,0,0,1,3-3.17h27.78a3.1,3.1,0,0,1,3,3.17h0A3.09,3.09,0,0,1,808.49,299.43Z" style="fill:#e1e1e1"/><path d="M808.83,318.36H781a3.1,3.1,0,0,1-3-3.17h0a3.1,3.1,0,0,1,3-3.17h27.79a3.1,3.1,0,0,1,3,3.17h0A3.1,3.1,0,0,1,808.83,318.36Z" style="fill:#ff735d"/><path d="M852.25,332.71H824.47a3.1,3.1,0,0,1-3-3.17h0a3.1,3.1,0,0,1,3-3.17h27.78a3.1,3.1,0,0,1,3,3.17h0A3.1,3.1,0,0,1,852.25,332.71Z" style="fill:#e1e1e1"/><path d="M801.7,351.53H785.77a3.1,3.1,0,0,1-3-3.17h0a3.1,3.1,0,0,1,3-3.17H801.7a3.1,3.1,0,0,1,3,3.17h0A3.1,3.1,0,0,1,801.7,351.53Z" style="fill:#1a2e35"/><path d="M801.7,368.72H785.77a3.1,3.1,0,0,1-3-3.17h0a3.1,3.1,0,0,1,3-3.17H801.7a3.1,3.1,0,0,1,3,3.17h0A3.1,3.1,0,0,1,801.7,368.72Z" style="fill:#1a2e35"/><path d="M849.05,368.72H819.84a3.1,3.1,0,0,1-3-3.17h0a3.1,3.1,0,0,1,3-3.17h29.21a3.1,3.1,0,0,1,3,3.17h0A3.1,3.1,0,0,1,849.05,368.72Z" style="fill:#e1e1e1"/><path d="M815,389H785.74a3.1,3.1,0,0,1-3-3.17h0a3.1,3.1,0,0,1,3-3.17H815a3.1,3.1,0,0,1,3,3.17h0A3.1,3.1,0,0,1,815,389Z" style="fill:#ff735d"/><rect x="795.84" y="396.92" width="24.18" height="6.34" rx="2.15" style="fill:#ff735d"/><path d="M806.16,431.05H788a3.1,3.1,0,0,1-3-3.17h0a3.1,3.1,0,0,1,3-3.17h18.15a3.1,3.1,0,0,1,3,3.17h0A3.1,3.1,0,0,1,806.16,431.05Z" style="fill:#ff735d"/><path d="M806.16,467.15H788a3.1,3.1,0,0,1-3-3.17h0a3.1,3.1,0,0,1,3-3.17h18.15a3.1,3.1,0,0,1,3,3.17h0A3.1,3.1,0,0,1,806.16,467.15Z" style="fill:#ff735d"/><path d="M850.78,467.15H819a3.1,3.1,0,0,1-3-3.17h0a3.1,3.1,0,0,1,3-3.17h31.82a3.1,3.1,0,0,1,3,3.17h0A3.1,3.1,0,0,1,850.78,467.15Z" style="fill:#375a64"/><path d="M891.14,431.74H859.32a3.1,3.1,0,0,1-3-3.17h0a3.1,3.1,0,0,1,3-3.17h31.82a3.1,3.1,0,0,1,3,3.17h0A3.1,3.1,0,0,1,891.14,431.74Z" style="fill:#375a64"/><path d="M852.91,445.23H821.08a3.1,3.1,0,0,1-3-3.18h0a3.1,3.1,0,0,1,3-3.17h31.83a3.1,3.1,0,0,1,3,3.17h0A3.1,3.1,0,0,1,852.91,445.23Z" style="fill:#375a64"/><path d="M873.05,467.15h-4.58a3.1,3.1,0,0,1-3-3.17h0a3.1,3.1,0,0,1,3-3.17h4.58a3.1,3.1,0,0,1,3,3.17h0A3.1,3.1,0,0,1,873.05,467.15Z" style="fill:#e1e1e1"/><path d="M848.87,431.05H822a3.1,3.1,0,0,1-3-3.17h0a3.1,3.1,0,0,1,3-3.17h26.89a3.1,3.1,0,0,1,3,3.17h0A3.1,3.1,0,0,1,848.87,431.05Z" style="fill:#e1e1e1"/><rect x="827.92" y="396.92" width="28.74" height="6.34" rx="2.15" style="fill:#375a64"/><rect x="864.64" y="396.92" width="11.67" height="6.34" rx="2.15" style="fill:#e1e1e1"/><path d="M834.74,389h-6.51a3.1,3.1,0,0,1-3-3.17h0a3.1,3.1,0,0,1,3-3.17h6.51a3.09,3.09,0,0,1,3,3.17h0A3.09,3.09,0,0,1,834.74,389Z" style="fill:#1a2e35"/><path d="M889.89,389H848.44a3.1,3.1,0,0,1-3-3.17h0a3.1,3.1,0,0,1,3-3.17h41.45a3.1,3.1,0,0,1,3,3.17h0A3.1,3.1,0,0,1,889.89,389Z" style="fill:#e1e1e1"/><path d="M849.43,282.88H821.65a3.1,3.1,0,0,1-3-3.17h0a3.1,3.1,0,0,1,3-3.17h27.78a3.1,3.1,0,0,1,3,3.17h0A3.1,3.1,0,0,1,849.43,282.88Z" style="fill:#375a64"/><path d="M884.24,299.43H820.66a3.09,3.09,0,0,1-3-3.17h0a3.1,3.1,0,0,1,3-3.17h63.58a3.1,3.1,0,0,1,3,3.17h0A3.09,3.09,0,0,1,884.24,299.43Z" style="fill:#1a2e35"/><path d="M885.46,318.23H823.2a3.1,3.1,0,0,1-3-3.17h0a3.1,3.1,0,0,1,3-3.17h62.26a3.1,3.1,0,0,1,3,3.17h0A3.1,3.1,0,0,1,885.46,318.23Z" style="fill:#e1e1e1"/><path d="M879.8,351.53H817.55a3.1,3.1,0,0,1-3-3.17h0a3.1,3.1,0,0,1,3-3.17H879.8a3.1,3.1,0,0,1,3,3.17h0A3.1,3.1,0,0,1,879.8,351.53Z" style="fill:#375a64"/><path d="M801.7,592.56H785.77a3.1,3.1,0,0,1-3-3.18h0a3.1,3.1,0,0,1,3-3.17H801.7a3.1,3.1,0,0,1,3,3.17h0A3.1,3.1,0,0,1,801.7,592.56Z" style="fill:#1a2e35"/><path d="M801.7,609.75H785.77a3.1,3.1,0,0,1-3-3.17h0a3.1,3.1,0,0,1,3-3.17H801.7a3.1,3.1,0,0,1,3,3.17h0A3.1,3.1,0,0,1,801.7,609.75Z" style="fill:#1a2e35"/><path d="M879.8,592.56H817.55a3.1,3.1,0,0,1-3-3.18h0a3.1,3.1,0,0,1,3-3.17H879.8a3.1,3.1,0,0,1,3,3.17h0A3.1,3.1,0,0,1,879.8,592.56Z" style="fill:#375a64"/><path d="M722,338.72H705.41a3.1,3.1,0,0,1-3-3.17h0a3.1,3.1,0,0,1,3-3.17H722a3.1,3.1,0,0,1,3,3.17h0A3.1,3.1,0,0,1,722,338.72Z" style="fill:#e1e1e1"/><path d="M722,356.37H705.41a3.1,3.1,0,0,1-3-3.17h0a3.1,3.1,0,0,1,3-3.17H722a3.1,3.1,0,0,1,3,3.17h0A3.1,3.1,0,0,1,722,356.37Z" style="fill:#e1e1e1"/><path d="M722,374H705.41a3.1,3.1,0,0,1-3-3.17h0a3.1,3.1,0,0,1,3-3.17H722a3.1,3.1,0,0,1,3,3.17h0A3.1,3.1,0,0,1,722,374Z" style="fill:#e1e1e1"/><path d="M722,321.08H705.41a3.1,3.1,0,0,1-3-3.18h0a3.1,3.1,0,0,1,3-3.17H722a3.1,3.1,0,0,1,3,3.17h0A3.1,3.1,0,0,1,722,321.08Z" style="fill:#e1e1e1"/><path d="M722,303.43H705.41a3.1,3.1,0,0,1-3-3.17h0a3.1,3.1,0,0,1,3-3.17H722a3.1,3.1,0,0,1,3,3.17h0A3.1,3.1,0,0,1,722,303.43Z" style="fill:#e1e1e1"/><path d="M722,285.78H705.41a3.1,3.1,0,0,1-3-3.17h0a3.1,3.1,0,0,1,3-3.17H722a3.1,3.1,0,0,1,3,3.17h0A3.1,3.1,0,0,1,722,285.78Z" style="fill:#e1e1e1"/><path d="M717.07,391.66H705.41a3.1,3.1,0,0,1-3-3.17h0a3.1,3.1,0,0,1,3-3.17h11.66a3.1,3.1,0,0,1,3,3.17h0A3.1,3.1,0,0,1,717.07,391.66Z" style="fill:#e1e1e1"/><path d="M763.25,279.71a3.11,3.11,0,1,1-3.11-3.22A3.17,3.17,0,0,1,763.25,279.71Z" style="fill:#375a64"/><path d="M763.25,296.26a3.11,3.11,0,1,1-3.11-3.22A3.18,3.18,0,0,1,763.25,296.26Z" style="fill:#375a64"/><path d="M763.25,313.47a3.11,3.11,0,1,1-3.11-3.22A3.17,3.17,0,0,1,763.25,313.47Z" style="fill:#375a64"/><path d="M763.25,330.67a3.11,3.11,0,1,1-3.11-3.22A3.18,3.18,0,0,1,763.25,330.67Z" style="fill:#375a64"/><path d="M763.25,347.88a3.11,3.11,0,1,1-3.11-3.22A3.17,3.17,0,0,1,763.25,347.88Z" style="fill:#375a64"/><path d="M763.25,365.08a3.11,3.11,0,1,1-3.11-3.22A3.18,3.18,0,0,1,763.25,365.08Z" style="fill:#375a64"/><path d="M763.25,382.29a3.11,3.11,0,1,1-3.11-3.22A3.17,3.17,0,0,1,763.25,382.29Z" style="fill:#375a64"/><path d="M763.25,399.49a3.11,3.11,0,1,1-3.11-3.22A3.18,3.18,0,0,1,763.25,399.49Z" style="fill:#375a64"/><path d="M763.25,416.7a3.11,3.11,0,1,1-3.11-3.22A3.17,3.17,0,0,1,763.25,416.7Z" style="fill:#375a64"/><path d="M763.25,433.9a3.11,3.11,0,1,1-3.11-3.22A3.18,3.18,0,0,1,763.25,433.9Z" style="fill:#375a64"/><path d="M763.25,451.11a3.11,3.11,0,1,1-3.11-3.22A3.17,3.17,0,0,1,763.25,451.11Z" style="fill:#375a64"/><path d="M763.25,468.31a3.11,3.11,0,1,1-3.11-3.22A3.18,3.18,0,0,1,763.25,468.31Z" style="fill:#375a64"/><path d="M815,491.7H785.74a3.1,3.1,0,0,1-3-3.17h0a3.1,3.1,0,0,1,3-3.17H815a3.1,3.1,0,0,1,3,3.17h0A3.1,3.1,0,0,1,815,491.7Z" style="fill:#ff735d"/><rect x="795.84" y="499.62" width="24.18" height="6.34" rx="2.15" style="fill:#ff735d"/><path d="M806.16,533.76H788a3.1,3.1,0,0,1-3-3.17h0a3.1,3.1,0,0,1,3-3.18h18.15a3.1,3.1,0,0,1,3,3.18h0A3.1,3.1,0,0,1,806.16,533.76Z" style="fill:#ff735d"/><path d="M806.16,569.86H788a3.1,3.1,0,0,1-3-3.18h0a3.1,3.1,0,0,1,3-3.17h18.15a3.1,3.1,0,0,1,3,3.17h0A3.1,3.1,0,0,1,806.16,569.86Z" style="fill:#ff735d"/><path d="M850.78,569.86H819a3.1,3.1,0,0,1-3-3.18h0a3.1,3.1,0,0,1,3-3.17h31.82a3.1,3.1,0,0,1,3,3.17h0A3.1,3.1,0,0,1,850.78,569.86Z" style="fill:#375a64"/><path d="M891.14,534.45H859.32a3.1,3.1,0,0,1-3-3.18h0a3.1,3.1,0,0,1,3-3.17h31.82a3.1,3.1,0,0,1,3,3.17h0A3.1,3.1,0,0,1,891.14,534.45Z" style="fill:#375a64"/><path d="M852.91,547.93H821.08a3.1,3.1,0,0,1-3-3.17h0a3.1,3.1,0,0,1,3-3.17h31.83a3.1,3.1,0,0,1,3,3.17h0A3.1,3.1,0,0,1,852.91,547.93Z" style="fill:#375a64"/><path d="M873.05,569.86h-4.58a3.1,3.1,0,0,1-3-3.18h0a3.1,3.1,0,0,1,3-3.17h4.58a3.1,3.1,0,0,1,3,3.17h0A3.1,3.1,0,0,1,873.05,569.86Z" style="fill:#e1e1e1"/><path d="M848.87,533.76H822a3.1,3.1,0,0,1-3-3.17h0a3.1,3.1,0,0,1,3-3.18h26.89a3.1,3.1,0,0,1,3,3.18h0A3.1,3.1,0,0,1,848.87,533.76Z" style="fill:#e1e1e1"/><rect x="827.92" y="499.62" width="28.74" height="6.34" rx="2.15" style="fill:#375a64"/><rect x="864.64" y="499.62" width="11.67" height="6.34" rx="2.15" style="fill:#e1e1e1"/><path d="M834.74,491.7h-6.51a3.1,3.1,0,0,1-3-3.17h0a3.1,3.1,0,0,1,3-3.17h6.51a3.09,3.09,0,0,1,3,3.17h0A3.09,3.09,0,0,1,834.74,491.7Z" style="fill:#1a2e35"/><path d="M889.89,491.7H848.44a3.1,3.1,0,0,1-3-3.17h0a3.1,3.1,0,0,1,3-3.17h41.45a3.1,3.1,0,0,1,3,3.17h0A3.1,3.1,0,0,1,889.89,491.7Z" style="fill:#e1e1e1"/><path d="M763.25,485a3.11,3.11,0,1,1-3.11-3.22A3.17,3.17,0,0,1,763.25,485Z" style="fill:#375a64"/><path d="M763.25,502.2a3.11,3.11,0,1,1-3.11-3.22A3.17,3.17,0,0,1,763.25,502.2Z" style="fill:#375a64"/><path d="M763.25,519.41a3.11,3.11,0,1,1-3.11-3.22A3.17,3.17,0,0,1,763.25,519.41Z" style="fill:#375a64"/><path d="M763.25,536.61a3.11,3.11,0,1,1-3.11-3.22A3.17,3.17,0,0,1,763.25,536.61Z" style="fill:#375a64"/><path d="M763.25,553.82a3.11,3.11,0,1,1-3.11-3.22A3.17,3.17,0,0,1,763.25,553.82Z" style="fill:#375a64"/><path d="M763.25,571a3.11,3.11,0,1,1-3.11-3.22A3.17,3.17,0,0,1,763.25,571Z" style="fill:#375a64"/><path d="M763.25,589.38a3.11,3.11,0,1,1-3.11-3.22A3.18,3.18,0,0,1,763.25,589.38Z" style="fill:#375a64"/><path d="M763.25,607.75a3.11,3.11,0,1,1-3.11-3.22A3.17,3.17,0,0,1,763.25,607.75Z" style="fill:#375a64"/><path d="M876.39,195.79l-31.77,0a7.86,7.86,0,0,0-7.72,8v5.72a7.85,7.85,0,0,1-7.72,8l-61.92,0a7.87,7.87,0,0,1-7.72-8v-5.71a7.88,7.88,0,0,0-7.72-8H740.66l-27.81,0a24.89,24.89,0,0,0-25,24.79v35.35H901.36V220.59A24.89,24.89,0,0,0,876.39,195.79Z" style="fill:#f5f5f5"/><circle cx="702.06" cy="241.9" r="3.94" style="fill:#e1e1e1"/><path d="M718.17,241.9a3.95,3.95,0,1,1-3.94-3.94A3.95,3.95,0,0,1,718.17,241.9Z" style="fill:#e1e1e1"/><path d="M730.33,241.9a3.94,3.94,0,1,1-3.94-3.94A3.95,3.95,0,0,1,730.33,241.9Z" style="fill:#e1e1e1"/><path d="M796,228.19a10.39,10.39,0,0,1,2.52-1.09l.51-2.49,4.21-.07.6,2.47a10.16,10.16,0,0,1,2.56,1l2.12-1.39,3,2.92-1.32,2.17a10,10,0,0,1,1.09,2.52l2.49.52.08,4.2-2.47.61a10.51,10.51,0,0,1-1,2.55l1.4,2.12-2.93,3-2.17-1.32a10,10,0,0,1-2.51,1.09l-.52,2.49-4.21.08-.6-2.47a10.12,10.12,0,0,1-2.55-1l-2.13,1.4-3-2.92,1.31-2.18a10.32,10.32,0,0,1-1.09-2.51l-2.49-.52-.07-4.21,2.47-.6a10.09,10.09,0,0,1,1-2.55l-1.39-2.13,2.92-3,2.17,1.31Zm2.24,5.61a4.51,4.51,0,1,0,6.38-.12A4.51,4.51,0,0,0,798.19,233.8Z" style="fill:#e1e1e1"/><rect x="61.17" y="173.99" width="134.3" height="134.3" rx="9.87" style="fill:#f15a24"/><path d="M103.82,224.27a31.07,31.07,0,0,1,7.52-3.27l1.55-7.44,12.58-.22,1.81,7.38a30.61,30.61,0,0,1,7.64,3l6.36-4.17,9.05,8.74-3.94,6.5a30.69,30.69,0,0,1,3.27,7.52l7.44,1.55.22,12.58-7.38,1.81a30.61,30.61,0,0,1-3,7.64l4.17,6.36-8.74,9.05-6.5-3.94a31.07,31.07,0,0,1-7.52,3.27l-1.55,7.44-12.58.22-1.81-7.38a30.61,30.61,0,0,1-7.64-3l-6.36,4.17-9.05-8.74,3.94-6.5A30.69,30.69,0,0,1,90,259.32l-7.44-1.55-.22-12.58,7.38-1.82a30.69,30.69,0,0,1,3-7.63l-4.17-6.36,8.74-9,6.5,3.94ZM110.53,241a13.5,13.5,0,1,0,19.08-.33A13.5,13.5,0,0,0,110.53,241Z" style="fill:#fff"/><path d="M150.64,200.54a12,12,0,0,1,2.43-2.08l-.27-3,4.67-1.51,1.52,2.55a11.86,11.86,0,0,1,3.19.25l1.9-2.28,4.38,2.22-.73,2.88a12.06,12.06,0,0,1,2.08,2.44l2.95-.27,1.52,4.67L171.73,208a11.89,11.89,0,0,1-.25,3.19l2.28,1.9-2.23,4.37-2.87-.73a12,12,0,0,1-2.44,2.08l.27,3-4.67,1.52-1.52-2.56a11.86,11.86,0,0,1-3.19-.25l-1.9,2.29-4.37-2.23.73-2.88a11.5,11.5,0,0,1-2.08-2.44l-3,.28L145,210.8l2.55-1.52a12.81,12.81,0,0,1,.25-3.2l-2.28-1.89,2.23-4.38,2.88.73Zm4.41,5.49a5.27,5.27,0,1,0,7.09-2.3A5.27,5.27,0,0,0,155.05,206Z" style="fill:#fff"/><polygon points="752.07 131.02 787.93 179.79 826.53 130.95 752.07 131.02" style="fill:#f15a24"/><path d="M807.7,139.28H770.91V86.69c0-11-3.92-14.64-5.2-15.85-5.52-5.19-16-6.52-24-6-.46,0-1.07.06-1.81.06h-.09c-13,0-21.88,3.47-26.52,10.31a24.48,24.48,0,0,0-3.92,11.67v-.3l-36.8.28c0-2.37.31-23.69,17-40.41,12.09-12.14,29-18.31,50.14-18.34,9.86-.59,34.11-.12,51.2,16,7.66,7.2,16.79,20.44,16.79,42.65Z" style="fill:#f15a24"/><path d="M235.62,254.25l7.18,58c1,9.92,2.6,24.61,18.22,22.28h0c13.4-3.06,15.51-16.32,14.54-25.59-.46-4.39-.83-8.06-.85-8.51,0,0,14.72-2.93,14.27-17.75-.21-7.17-1.86-21.88-3.5-35.18a27.61,27.61,0,0,0-28.6-24.18l-1.43.06C240.08,224.92,233.64,238.92,235.62,254.25Z" style="fill:#ffcfb3"/><path d="M274.75,300.42a35.88,35.88,0,0,1-19.53-4.88s5.17,10.61,19.89,8.65Z" style="fill:#ff9d62"/><path d="M262.07,257.21c-.31.12-1.9-.82-4.35-1.16s-4.38.08-4.61-.13.23-.34,1.07-.55a10.48,10.48,0,0,1,3.73-.1,9.4,9.4,0,0,1,3.43,1.13C262,256.82,262.22,257.16,262.07,257.21Z" style="fill:#1a2e35"/><path d="M261.63,262.58a2,2,0,0,1-1.84,2.1,1.91,1.91,0,0,1-2.14-1.71,2,2,0,0,1,1.84-2.11A1.92,1.92,0,0,1,261.63,262.58Z" style="fill:#1a2e35"/><path d="M269.62,272.76a14.91,14.91,0,0,1,3.66-.82c.58-.09,1.13-.23,1.21-.63a3,3,0,0,0-.46-1.71l-1.91-4.35c-2.66-6.2-4.6-11.31-4.35-11.41s2.6,4.83,5.26,11l1.83,4.39a3.35,3.35,0,0,1,.4,2.27,1.45,1.45,0,0,1-.92.89,3.86,3.86,0,0,1-1,.18A14.67,14.67,0,0,1,269.62,272.76Z" style="fill:#1a2e35"/><path d="M259.35,247.25c-.17.57-2.19.39-4.53.78s-4.22,1.14-4.55.65c-.15-.24.16-.78.9-1.36a7.43,7.43,0,0,1,3.34-1.37,7.31,7.31,0,0,1,3.58.28C259,246.55,259.43,247,259.35,247.25Z" style="fill:#1a2e35"/><path d="M283.23,249.1c-.2.47-2.18.2-4.51.4s-4.23.72-4.53.28c-.13-.21.2-.65,1-1.1a8.39,8.39,0,0,1,3.38-1,8.55,8.55,0,0,1,3.51.45C282.9,248.48,283.32,248.87,283.23,249.1Z" style="fill:#1a2e35"/><path d="M237.32,265.37c-.27-.1-10.88-2.42-9.81,8.17s11.48,7.33,11.47,7S237.32,265.37,237.32,265.37Z" style="fill:#ffcfb3"/><path d="M235.34,276.88c-.05,0-.17.15-.47.32a1.86,1.86,0,0,1-1.38.17c-1.16-.3-2.28-2-2.52-3.88a6,6,0,0,1,.25-2.7,2.1,2.1,0,0,1,1.24-1.55.94.94,0,0,1,1.14.39c.17.28.13.5.19.51s.2-.2.07-.63a1.17,1.17,0,0,0-.48-.62,1.37,1.37,0,0,0-1-.16,2.6,2.6,0,0,0-1.76,1.83,6.37,6.37,0,0,0-.34,3c.28,2.13,1.58,4,3.15,4.3a2,2,0,0,0,1.66-.45C235.34,277.14,235.38,276.89,235.34,276.88Z" style="fill:#ff9d62"/><path d="M270.81,279.71c0-.27-2.06-.06-4.06-1.25a11.27,11.27,0,0,1-2.31-1.91c-.56-.57-.94-.91-1-.83s.13.51.59,1.19a7.43,7.43,0,0,0,2.34,2.24,5.94,5.94,0,0,0,3.15.84C270.32,280,270.81,279.8,270.81,279.71Z" style="fill:#1a2e35"/><path d="M283.49,254.16c-.21.26-2,.31-4.31,1.29s-3.72,2.31-4,2.27c-.14,0,0-.4.65-1a11,11,0,0,1,3.15-2,10,10,0,0,1,3.5-.84C283.26,253.87,283.59,254,283.49,254.16Z" style="fill:#1a2e35"/><path d="M281.93,260.81a2,2,0,0,1-1.85,2.1,1.91,1.91,0,0,1-2.13-1.72,2,2,0,0,1,1.84-2.1A1.92,1.92,0,0,1,281.93,260.81Z" style="fill:#1a2e35"/><path d="M303.82,232a2.36,2.36,0,0,0-1.27-1.25,7.28,7.28,0,0,0-3.82-.18,21.26,21.26,0,0,1-9.45-1.24,10.66,10.66,0,0,0,2.48-2.21,6.33,6.33,0,0,0,1.08-6.47,1.36,1.36,0,0,0-.89-.86c-.68-.13-1.17.58-1.57,1.14a5.45,5.45,0,0,1-4.85,2.75,8.88,8.88,0,0,1-3.95-.69l-.14-.12c-.58-.48-1.15-.93-1.71-1.37h0C275.52,218.2,272,216,268.48,215c-5.13-1.41-13.41-1.26-18.36.68s-9.06,6.6-9.16,11.92c-3.15-2.09-7.44-1.57-10.77.23l-.09,0c-3.72,1.84-5.45,6.2-6.14,10.29,0,.23-.07.45-.1.68a15.5,15.5,0,0,1-4.64,5.71c-.35.26-.74.58-.74,1s.41.75.79,1a7.71,7.71,0,0,0,3.29.94,17.11,17.11,0,0,1-1,2.88c-.35.8-.77,1.74-.3,2.47a1.65,1.65,0,0,0,1.8.55,4.9,4.9,0,0,0,1.72-1c-.32,1.09-.63,2.18-.94,3.27a9.18,9.18,0,0,0,4.19-.78,105.37,105.37,0,0,0,4,10.63c1.62-.19,3.12-.75,4.22,0,1.51,1.07,2.38,3.3,4.54,2.16,1.1-.58,1.87-3.11,2.12-4.33a57.81,57.81,0,0,0-.33-24.53,18.45,18.45,0,0,1,5.2-4.76l-.15.18c3.94-1.9,8.41-3.84,12.53-2.37,3.19,1.14,5.33,4.07,7.87,6.31a22,22,0,0,0,16.73,5.72c1.09,4.36,1.26,10,2,14.14l3-7.11v0a15.3,15.3,0,0,0,.58-1.55l.06-.15v0a24.77,24.77,0,0,1,.89-2.49l0,0a2.6,2.6,0,0,0,3.37-3.89,6,6,0,0,0-1.39-1.11,4.09,4.09,0,0,0,4,.56,3.23,3.23,0,0,0,1.9-3.43,2.76,2.76,0,0,0-1.88-2,9.28,9.28,0,0,0,5.1-1.76C303.42,234.36,304.33,233.27,303.82,232Z" style="fill:#1a2e35"/><path d="M245.77,228.77a13.8,13.8,0,0,0-1.31,1.52,10.62,10.62,0,0,0-1.69,5.14,18.47,18.47,0,0,0,.06,3.77c.15,1.35.42,2.79.71,4.3a39.12,39.12,0,0,1,.66,4.8,17.13,17.13,0,0,1,0,2.58,5.48,5.48,0,0,1-.75,2.59,2.23,2.23,0,0,1-2,.93,3.33,3.33,0,0,1-2-.83,7.78,7.78,0,0,1-1.85-3.57h.31a12.38,12.38,0,0,1-1.42,3.28,4.43,4.43,0,0,1-2.68,1.89,2.87,2.87,0,0,1-1.54-.09,2.47,2.47,0,0,1-1.15-.9,2.4,2.4,0,0,1-.46-1.26,1.79,1.79,0,0,1,.34-1.2l.17.12a9.59,9.59,0,0,1-2.88,2.74,10.15,10.15,0,0,1-.93.49l-.34.13a1.34,1.34,0,0,1,.31-.18c.21-.12.52-.29.9-.54a9.8,9.8,0,0,0,2.76-2.75l.18.12a1.88,1.88,0,0,0,.15,2.19,2.31,2.31,0,0,0,1,.79,2.55,2.55,0,0,0,1.4.06,4.16,4.16,0,0,0,2.48-1.78,12.09,12.09,0,0,0,1.37-3.21l.16-.5.16.5a7.3,7.3,0,0,0,1.76,3.41,3,3,0,0,0,1.77.75,1.88,1.88,0,0,0,1.7-.8,5.08,5.08,0,0,0,.69-2.41,17.86,17.86,0,0,0,0-2.53,38.75,38.75,0,0,0-.65-4.76c-.27-1.51-.54-3-.68-4.33a18.86,18.86,0,0,1,0-3.83,10.43,10.43,0,0,1,1.82-5.19A6,6,0,0,1,245.77,228.77Z" style="fill:#375a64"/><path d="M292.84,237.79s0,0-.1.12l-.34.31a5.5,5.5,0,0,1-.57.47,10.07,10.07,0,0,1-.84.57,13.11,13.11,0,0,1-6.15,1.86,16.7,16.7,0,0,1-9.24-2.25A28.69,28.69,0,0,1,267,231c-1.28-1.65-2.36-3.37-3.51-4.94a19.4,19.4,0,0,0-3.8-4.09,10.12,10.12,0,0,0-4.53-2.08,7.44,7.44,0,0,0-2.26,0,8.35,8.35,0,0,0-2,.63,8.54,8.54,0,0,0-2.84,2.2,8.35,8.35,0,0,0-1.41,2.34,9.93,9.93,0,0,0-.5,2.29s0-.05,0-.15,0-.28,0-.46a7.31,7.31,0,0,1,.36-1.72,8.29,8.29,0,0,1,1.39-2.42,8.67,8.67,0,0,1,2.89-2.3,8.58,8.58,0,0,1,2.06-.67,7.39,7.39,0,0,1,2.35,0,10.3,10.3,0,0,1,4.67,2.11,19.71,19.71,0,0,1,3.88,4.14c1.17,1.58,2.25,3.3,3.51,4.93a29.09,29.09,0,0,0,8.51,7.83,16.71,16.71,0,0,0,9.07,2.28,13.32,13.32,0,0,0,6.1-1.74A20.82,20.82,0,0,0,292.84,237.79Z" style="fill:#375a64"/><path d="M293.43,231.19a2.4,2.4,0,0,1-.48.42,11.15,11.15,0,0,1-1.47,1,15.68,15.68,0,0,1-2.37,1.09,15.91,15.91,0,0,1-6.31.94,14.56,14.56,0,0,1-2.59-.36,11.32,11.32,0,0,1-1.69-.5,2.25,2.25,0,0,1-.59-.27c0-.06.88.26,2.32.53a17.4,17.4,0,0,0,2.56.28,19.15,19.15,0,0,0,3.14-.17,18.39,18.39,0,0,0,3.05-.75,16.36,16.36,0,0,0,2.36-1C292.67,231.69,293.39,231.13,293.43,231.19Z" style="fill:#375a64"/><path d="M283.19,331.88,190.63,333a8.4,8.4,0,0,0-8.29,8.33L181,504.75l124.7,1.7L291.67,339.57A8.4,8.4,0,0,0,283.19,331.88Z" style="fill:#375a64"/><path d="M389.39,610.89l-.51,31.55s31.9,11.12,32.37,17L360,660.61l-1.23-49.2Z" style="fill:#ff735d"/><path d="M369.9,640.16a2.52,2.52,0,0,0-1.68,2.89,2.41,2.41,0,0,0,2.85,1.68,2.62,2.62,0,0,0,1.76-3.06c-.43-1.15-2.09-2-3.16-1.42" style="fill:#e1e1e1"/><path d="M360,660.61l-.21-5,58.94.7s2.75,1.13,2.48,3.06Z" style="fill:#e1e1e1"/><path d="M389.86,642.11c0,.3-1.49.47-2.94,1.46s-2.21,2.26-2.49,2.15.13-1.85,1.91-3S389.92,641.84,389.86,642.11Z" style="fill:#1a2e35"/><path d="M396.34,644.64c.07.29-1.21.82-2.2,2.11s-1.26,2.63-1.56,2.62-.52-1.7.74-3.27S396.33,644.36,396.34,644.64Z" style="fill:#1a2e35"/><path d="M400.14,652.25c-.27.07-.72-1.41,0-3.06s2.12-2.34,2.25-2.09-.72,1.14-1.3,2.51S400.43,652.22,400.14,652.25Z" style="fill:#1a2e35"/><path d="M389.18,634.91c-.12.27-1.5-.11-3.18,0s-3,.7-3.16.45,1.09-1.34,3.08-1.49S389.32,634.67,389.18,634.91Z" style="fill:#1a2e35"/><path d="M297.42,448.68s18.12,2.73,36.8,6.2c22.39,4.16,46.22,9.36,49.42,11.87,5.86,4.6,7.11,17.16,9.62,32.64s3.08,130.7,3.08,130.7l-41.58,1.21-8.23-120.88s-60.71,0-73.2-.09c-10.08-.08-37.19,1.05-47.48-4.37-16.18-8.53-13.15-41-13.15-41,4-3.47,73.27-24,73.27-24Z" style="fill:#1a2e35"/><path d="M399.81,535.1l6,31.81s34.34,4.6,36,10.37L380.55,591.1,369.2,541.92Z" style="fill:#ff735d"/><path d="M386.25,568.53a2.57,2.57,0,0,0-1.09,3.24,2.47,2.47,0,0,0,3.21,1.11,2.7,2.7,0,0,0,1.13-3.44c-.67-1.07-2.51-1.61-3.46-.78" style="fill:#e1e1e1"/><path d="M380.8,592.4l-1.11-4.77,59-12.91s3,.57,3.12,2.56Z" style="fill:#e1e1e1"/><path d="M406.71,566.37c.06.31-1.41.78-2.66,2.07s-1.76,2.73-2.06,2.67-.24-1.88,1.3-3.42S406.71,566.09,406.71,566.37Z" style="fill:#1a2e35"/><path d="M413.74,567.58c.13.28-1.05,1.08-1.78,2.57s-.72,2.9-1,3-.88-1.6.07-3.44S413.67,567.3,413.74,567.58Z" style="fill:#1a2e35"/><path d="M419.12,574.45c-.26.12-1-1.28-.61-3.09s1.65-2.78,1.83-2.56-.48,1.3-.79,2.79S419.41,574.35,419.12,574.45Z" style="fill:#1a2e35"/><path d="M404.54,559.28c-.06.3-1.53.2-3.19.69s-2.86,1.33-3.08,1.11.82-1.58,2.79-2.13S404.64,559,404.54,559.28Z" style="fill:#1a2e35"/><path d="M370,425.11s14.33-1,17.4,11.24c4.27,17,23.07,118.57,23.07,118.57l-42.34,8.18L345.84,464l-40.1-6.52-16.53-6.61s9.34-10,28.69-16.12C331.07,430.52,370,425.11,370,425.11Z" style="fill:#1a2e35"/><path d="M346,466.54c.19.11,1.68-3.27,5-6.14s6.86-3.93,6.78-4.14-3.77.59-7.23,3.63a17.34,17.34,0,0,0-3.67,4.44A6.06,6.06,0,0,0,346,466.54Z" style="fill:#375a64"/><path d="M355.2,446.43s-.3.15-.79.51a19.17,19.17,0,0,0-1.9,1.74A24.45,24.45,0,0,0,345.84,464a17.45,17.45,0,0,0,0,2.57c.06.61.11.94.16.94s.06-1.34.3-3.47a27.5,27.5,0,0,1,6.55-15C354.26,447.38,355.28,446.52,355.2,446.43Z" style="fill:#375a64"/><path d="M389.36,446.42s.05.18.13.52.18.89.33,1.55c.28,1.39.69,3.4,1.22,6L395.52,477c3.79,19.26,9.11,46.37,15.29,77.84l.07.32-.32.06-42.33,8.2-.33.07-.07-.33-.7-3.12c-8.21-36.56-15.74-70.13-21.55-96l.22.2-42.1-7-11.53-1.95-3-.53c-.68-.12-1-.21-1-.21s.36,0,1,.13l3,.45L303.75,457l42.13,6.74.18,0,0,.18c5.84,25.87,13.43,59.43,21.69,96l.7,3.13-.39-.26,42.33-8.17-.25.38c-6.09-31.49-11.33-58.62-15.06-77.89-1.83-9.62-3.29-17.27-4.29-22.55-.49-2.61-.87-4.63-1.12-6-.12-.67-.21-1.18-.28-1.55A5.19,5.19,0,0,1,389.36,446.42Z" style="fill:#375a64"/><path d="M297.28,319.72s7.85,5.21,11.31,20.61c2.77,12.36,7.18,35.79,7.18,35.79l16.45,10.81a3.69,3.69,0,0,1,1.2,4.9c-3.87,6.84-13.58,23.06-19.93,25-8.07,2.49-15.85-3.85-15.85-3.85Z" style="fill:#ff735d"/><path d="M297.28,319.72l-18.94-7.62-3.23-6.31-2.94,13.06-30.82-18.36-2.19,7.67S209.77,320.5,206,324c-4.68,4.27,8.12,75.45,8.12,75.45s-4.65,57.12-2.94,68.49c0,0,20.57-5.91,37.66-8.25s37.74-8.9,37.74-8.9l18.64-11.53Z" style="fill:#ff735d"/><path d="M300.1,350.73a4.25,4.25,0,0,1,.1.95c0,.7.08,1.61.13,2.74.11,2.46.27,5.88.46,10.08.38,8.51,1,20.26,1.73,33.24s1.53,24.72,2.17,33.21c.33,4.19.6,7.61.79,10.06.1,1.13.17,2,.23,2.73a5.79,5.79,0,0,1,0,1,5.61,5.61,0,0,1-.17-.95c-.09-.68-.2-1.59-.35-2.72-.27-2.36-.63-5.8-1-10-.77-8.49-1.61-20.23-2.36-33.21s-1.28-24.74-1.55-33.26c-.13-4.26-.21-7.71-.23-10.09,0-1.14,0-2.05,0-2.74A6.46,6.46,0,0,1,300.1,350.73Z" style="fill:#1a2e35"/><path d="M222.82,344.9c-.12,0,0-1.52-.29-3.91a19.71,19.71,0,0,0-3.45-8.63,19.51,19.51,0,0,0-7.12-6c-2.16-1.07-3.65-1.39-3.62-1.5a2.66,2.66,0,0,1,1.06.14,15.15,15.15,0,0,1,2.77.92,18.55,18.55,0,0,1,7.46,6,18.3,18.3,0,0,1,3.37,9,15.84,15.84,0,0,1,0,2.92A2.89,2.89,0,0,1,222.82,344.9Z" style="fill:#1a2e35"/><path d="M303.44,419.51l-9-9.18-18.57-4.49s-17,4.88-17.43,4.86-15-4.86-15-4.86l-4.82,18.76,25.94,1.7,29.62-1.13s1.54-1.38.63-2.32,4.95,1.59,5.64,1.62,2,.54,3-.52C304,423.23,304.82,420.91,303.44,419.51Z" style="fill:#ffcfb3"/><path d="M205.75,324s-6.59,4.13-9.85,17-13.43,65.86-10.53,73.7,67.12,17.95,67.12,17.95l7.31-23.24-44.57-14.76s6.53-25.51,6.89-35.84S205.75,324,205.75,324Z" style="fill:#ff735d"/><path d="M294.76,422.85a16.75,16.75,0,0,1-2.95-.8c-1.8-.55-4.29-1.28-7.08-2s-5.34-1.19-7.19-1.55a16.83,16.83,0,0,1-3-.66,12.79,12.79,0,0,1,3.07.22,67,67,0,0,1,7.28,1.37,66.27,66.27,0,0,1,7.06,2.15A12.78,12.78,0,0,1,294.76,422.85Z" style="fill:#ff9d62"/><path d="M303.44,419.51a41.8,41.8,0,0,1-4.12-1.27c-2.53-.82-6.06-1.82-10-2.87s-7.42-2.23-10.07-2.38a27.34,27.34,0,0,0-4.28.16,3.7,3.7,0,0,1,1.11-.36,13.12,13.12,0,0,1,3.2-.25c2.73,0,6.33,1.11,10.22,2.22s7.47,2.12,10,3.05c1.25.46,2.25.87,2.93,1.17A4.13,4.13,0,0,1,303.44,419.51Z" style="fill:#ff9d62"/><path d="M202.41,399.38c-.14-.08,2.08-2.66,5.91-4.06s7.19-.93,7.14-.78-3.25,0-6.9,1.42S202.55,399.55,202.41,399.38Z" style="fill:#1a2e35"/><path d="M195.32,420.68l.28.05.8.22c.7.21,1.75.47,3.12.8,2.74.66,6.75,1.56,11.82,2.59,10.13,2.09,24.47,4.86,41.2,7.93l-.36.22c2.27-7.23,4.74-15.08,7.3-23.24l.22.43-2.53-.84-42-14-.24-.08,0-.24c2.29-12.13,4.2-22.22,5.55-29.33.68-3.5,1.22-6.26,1.6-8.19.19-.91.33-1.63.44-2.15s.17-.74.18-.74a3.47,3.47,0,0,1-.09.75c-.09.53-.21,1.25-.36,2.17-.34,1.94-.82,4.71-1.44,8.22-1.29,7.12-3.11,17.23-5.31,29.37l-.2-.33,42.07,13.89,2.52.83.32.11-.1.32c-2.58,8.15-5.06,16-7.34,23.22l-.08.27-.28-.05c-16.74-3.11-31.06-6-41.18-8.16-5.06-1.1-9.06-2.06-11.78-2.78-1.37-.37-2.41-.66-3.1-.91l-.79-.27Z" style="fill:#1a2e35"/><path d="M320.06,396a4.3,4.3,0,0,1-1.26-.48,18.22,18.22,0,0,1-3.13-2,21.3,21.3,0,0,1-7-9.88,17.67,17.67,0,0,1-1-6.68,5.76,5.76,0,0,1,2.77-4.75,3.57,3.57,0,0,1,3.7.16c.75.54.87,1.08.84,1.08s-.27-.42-1-.84a3.31,3.31,0,0,0-3.28.06,5.29,5.29,0,0,0-2.35,4.34,18,18,0,0,0,1,6.4,22.22,22.22,0,0,0,6.63,9.7C318.34,395.14,320.13,395.89,320.06,396Z" style="fill:#1a2e35"/><path d="M304.9,385.41c-.19-.09.39-1.58,1.28-3.32s1.77-3.07,1.95-3-.39,1.58-1.29,3.32S305.08,385.5,304.9,385.41Z" style="fill:#1a2e35"/><path d="M278.5,311.59a14.34,14.34,0,0,1-.21,3.22c-.22,2-.59,4.71-1,7.72-.07.48-.14,1-.21,1.42l-.16,1.08-.53-.95a39.92,39.92,0,0,0-3.1-4.72l.51-.17a18.77,18.77,0,0,1-.41,3.85,18.22,18.22,0,0,1-.16-3.87v-.75l.5.58a29.82,29.82,0,0,1,3.3,4.72l-.69.12c.07-.46.14-.94.21-1.42.45-3,.89-5.72,1.25-7.68A14.22,14.22,0,0,1,278.5,311.59Z" style="fill:#1a2e35"/><path d="M272.66,323.82a7.3,7.3,0,0,1-1-1.26L269.09,319l.45-.08c-.6,2.28-1.31,5-2.1,8.06l-.11.43-.39-.23c-2.56-1.5-5.39-3.2-8.32-5.06-5.63-3.55-10.59-7-14.11-9.55-1.76-1.29-3.17-2.35-4.13-3.11a8.94,8.94,0,0,1-1.44-1.23,9.78,9.78,0,0,1,1.61,1l4.26,2.9c3.6,2.46,8.59,5.81,14.21,9.36,2.93,1.85,5.73,3.58,8.26,5.1l-.5.21c.86-3,1.63-5.74,2.28-8l.15-.53.29.46,2.38,3.74A7.32,7.32,0,0,1,272.66,323.82Z" style="fill:#1a2e35"/><path d="M279.26,406.5a3.12,3.12,0,0,1-.16-.81c-.08-.62-.18-1.4-.3-2.35-.25-2-.58-5-.95-8.67-.76-7.33-1.67-17.47-2.47-28.67s-1.33-21.38-1.63-28.74c-.15-3.68-.25-6.66-.29-8.71,0-1,0-1.75,0-2.38a3.22,3.22,0,0,1,0-.83,3.52,3.52,0,0,1,.11.83c.05.62.1,1.4.17,2.36.13,2.16.31,5.11.53,8.71.43,7.34,1.05,17.5,1.85,28.7s1.63,21.34,2.24,28.68c.3,3.59.54,6.53.72,8.69.06,1,.12,1.74.16,2.36A3.29,3.29,0,0,1,279.26,406.5Z" style="fill:#1a2e35"/><path d="M239,439.71c0,.18-10.85.34-24.22.34s-24.23-.16-24.23-.34,10.84-.34,24.23-.34S239,439.52,239,439.71Z" style="fill:#1a2e35"/><path d="M218.12,427.19c0,.19-6.46.34-14.44.34s-14.44-.15-14.44-.34,6.47-.34,14.44-.34S218.12,427,218.12,427.19Z" style="fill:#1a2e35"/><path d="M346.56,372.41l-27.79,49.18L254.48,423l-.17,3,63.79-.48,2-.06,67.36.13,13.61-23.48L418,374.78a2.46,2.46,0,0,0-2-3.87l-67.24.26A2.45,2.45,0,0,0,346.56,372.41Z" style="fill:#e1e1e1"/><path d="M368.09,397.74a2.85,2.85,0,1,0,4.25-.5A3,3,0,0,0,368.09,397.74Z" style="fill:#fff"/><path d="M353.89,371.16c.17.09-6.62,12.31-15.15,27.28s-15.58,27-15.74,26.95,6.62-12.31,15.15-27.29S353.73,371.06,353.89,371.16Z" style="fill:#1a2e35"/><path d="M314,522.51s-30.61,14-60.39,14c-27.59,0-58.44-13.88-58.44-13.88Z" style="fill:#e1e1e1"/><rect x="250.5" y="523.84" width="11.81" height="123.71" transform="translate(512.81 1171.39) rotate(180)" style="fill:#e1e1e1"/><rect x="203.45" y="642.43" width="104.83" height="7.25" transform="translate(511.73 1292.11) rotate(180)" style="fill:#e1e1e1"/><path d="M296,652.81a8,8,0,1,0,8-8A8,8,0,0,0,296,652.81Z" style="fill:#1a2e35"/><path d="M249.41,652.81a8,8,0,1,0,8-8A8,8,0,0,0,249.41,652.81Z" style="fill:#1a2e35"/><path d="M195.45,652.81a8,8,0,1,0,8-8A8,8,0,0,0,195.45,652.81Z" style="fill:#1a2e35"/><rect x="253.62" y="568.36" width="16.07" height="6.65" transform="translate(523.3 1143.38) rotate(180)" style="fill:#e1e1e1"/><rect x="266.76" y="563.71" width="5.85" height="15.96" transform="translate(539.36 1143.38) rotate(180)" style="fill:#e1e1e1"/><path d="M193.31,522.51H333.16c5.22,0,9.46-2.91,9.46-8.88h0c0-4.91-4.24-8.88-9.46-8.88H181V511C181,517.35,186.53,522.51,193.31,522.51Z" style="fill:#375a64"/><path d="M200,439.44c.19,0,.34,15.42.34,34.45s-.15,34.45-.34,34.45-.34-15.42-.34-34.45S199.85,439.44,200,439.44Z" style="fill:#1a2e35"/><path d="M338.61,502.53a14.13,14.13,0,0,1,1.9,2.64,17.56,17.56,0,0,1,2.26,9,8.17,8.17,0,0,1-2.31,6.25,7.69,7.69,0,0,1-3.38,1.94,14.85,14.85,0,0,1-4.18.37l-19.54.07L200.25,523a69.34,69.34,0,0,1-8-.24,13.28,13.28,0,0,1-7.15-3.47,14.6,14.6,0,0,1-3.78-6.87,23.44,23.44,0,0,1-.64-7.68v0c.38-36.71.71-68.89,1-91.94.15-11.48.27-20.69.35-27.05.05-3.15.1-5.59.13-7.28,0-.81,0-1.43.05-1.88s0-.64,0-.64,0,.22,0,.64,0,1.08,0,1.88v7.28c0,6.36-.08,15.57-.14,27.06-.17,23-.41,55.23-.69,91.94h0v0a22.75,22.75,0,0,0,.62,7.42,13.91,13.91,0,0,0,3.59,6.52,12.59,12.59,0,0,0,6.75,3.27,70.87,70.87,0,0,0,7.89.22l113.11,0,19.54,0A14.57,14.57,0,0,0,337,522a7.25,7.25,0,0,0,3.24-1.82,7.84,7.84,0,0,0,2.26-6,17.64,17.64,0,0,0-2.09-8.92c-.52-.92-1-1.59-1.29-2S338.61,502.53,338.61,502.53Z" style="fill:#1a2e35"/><path d="M183.15,439.24l64.53.77a1.67,1.67,0,0,1,1.59,1.91l-9.67,80.62h15.14l7.82-88.75a5.19,5.19,0,0,0-5-5.83l-75.39-.45Z" style="fill:#375a64"/><path d="M183.15,439.24s0-.24-.09-.72-.12-1.24-.21-2.2q-.27-3-.8-8.8v-.14h.15l62.5.19,10.89.05a19.84,19.84,0,0,1,2.85.11,5.57,5.57,0,0,1,4.28,3.88,7.31,7.31,0,0,1,.12,3q-1,11.64-2.12,24.23c-1.47,16.75-3,34.61-4.66,53.16-.32,3.55-.63,7.08-.93,10.56l0,.34H239.18l0-.42c2.52-20.89,4.9-40.55,7-58.29q.81-6.66,1.57-12.94.38-3.13.75-6.17c.12-1,.24-2,.37-3a1.42,1.42,0,0,0-1.27-1.78l-21.9-.32-31.35-.5-8.41-.16-2.16-.05c-.49,0-.72,0-.72,0s.27,0,.77,0h2.2l8.48,0,31.32.24,21.79.21a2,2,0,0,1,1.49.8,2.05,2.05,0,0,1,.34,1.63c-.12,1-.24,2-.36,3q-.36,3-.73,6.17c-.49,4.19-1,8.51-1.53,12.94-2.12,17.75-4.47,37.41-7,58.3l-.36-.41h15.14l-.37.34c.31-3.48.62-7,.93-10.56,1.64-18.55,3.22-36.41,4.71-53.16q1.11-12.57,2.15-24.23a6.53,6.53,0,0,0-.09-2.76,4.87,4.87,0,0,0-3.76-3.42,20.37,20.37,0,0,0-2.74-.11l-10.89-.07-62.49-.54.13-.15c.28,3.84.49,6.76.64,8.74.07,1,.12,1.71.15,2.23S183.15,439.24,183.15,439.24Z" style="fill:#1a2e35"/><circle cx="248.08" cy="514.79" r="1.97" style="fill:#1a2e35"/><polygon points="115.02 394.8 119.74 425.86 147.2 425.86 153.57 395.25 115.02 394.8" style="fill:#ff735d"/><path d="M149.73,414.71c0,.09-7,.16-15.71.16s-15.71-.07-15.71-.16,7-.16,15.71-.16S149.73,414.62,149.73,414.71Z" style="fill:#fafafa"/><path d="M149.84,413.18c0,.09-7.08.16-15.82.16s-15.82-.07-15.82-.16S125.28,413,134,413,149.84,413.09,149.84,413.18Z" style="fill:#fafafa"/><path d="M149.79,411.45c0,.09-7.09.17-15.82.17s-15.82-.08-15.82-.17,7.08-.16,15.82-.16S149.79,411.37,149.79,411.45Z" style="fill:#fafafa"/><path d="M122.9,424.09a24.73,24.73,0,0,1-.85-3.91,25.31,25.31,0,0,1-.52-4,25.45,25.45,0,0,1,.84,3.91A26.13,26.13,0,0,1,122.9,424.09Z" style="fill:#fafafa"/><path d="M124.76,423.76a32,32,0,0,1-.34-3.82,27.61,27.61,0,0,1-.17-3.82,19.66,19.66,0,0,1,.5,3.8A18.2,18.2,0,0,1,124.76,423.76Z" style="fill:#fafafa"/><path d="M128.17,423.76a30.2,30.2,0,0,1-.92-7.89,34.56,34.56,0,0,1,.52,3.94A33.22,33.22,0,0,1,128.17,423.76Z" style="fill:#fafafa"/><path d="M130.56,423.92a19.13,19.13,0,0,1-.38-4,19.63,19.63,0,0,1,.12-4,34.17,34.17,0,0,1,.2,4A34.56,34.56,0,0,1,130.56,423.92Z" style="fill:#fafafa"/><path d="M134.79,423.76a22.11,22.11,0,0,1-.29-3.77,22.59,22.59,0,0,1,0-3.79,22.17,22.17,0,0,1,.29,3.78A22.44,22.44,0,0,1,134.79,423.76Z" style="fill:#fafafa"/><path d="M137.88,423.92a23.25,23.25,0,0,1-.13-3.9,24.11,24.11,0,0,1,.19-3.9,23.25,23.25,0,0,1,.13,3.9A22.82,22.82,0,0,1,137.88,423.92Z" style="fill:#fafafa"/><path d="M140.78,423.51a25.17,25.17,0,0,1,.23-4.08,25.59,25.59,0,0,1,.56-4.05,27.48,27.48,0,0,1-.24,4.08A26.61,26.61,0,0,1,140.78,423.51Z" style="fill:#fafafa"/><path d="M144.51,423.1a14,14,0,0,1,.47-3.47,13.15,13.15,0,0,1,1-3.35,32.63,32.63,0,0,1-.71,3.42A30.46,30.46,0,0,1,144.51,423.1Z" style="fill:#fafafa"/><path d="M111.87,388.65v5.81a2.28,2.28,0,0,0,2.28,2.29h39.77a2.28,2.28,0,0,0,2.28-2.29v-5.81Z" style="fill:#ff735d"/><g style="opacity:0.4"><polygon points="115.31 396.75 115.64 398.6 152.33 401.22 153.26 396.75 115.31 396.75"/></g><path d="M126.29,388.63c-5.84-3.38-9-11.26-9.2-17.71s2.45-13.18,7.74-16.88a17.74,17.74,0,0,1,19.23-.16,20,20,0,0,1,8.82,17.38,23.05,23.05,0,0,1-9.44,17.31" style="fill:#375a64"/><path d="M135.61,389.26a8.84,8.84,0,0,1-.1-1.48c0-1-.07-2.4-.12-4-.09-3.4-.22-8.09-.45-13.26s-.5-9.87-.72-13.26c-.09-1.61-.17-3-.23-4a9.25,9.25,0,0,1,0-1.48,7.28,7.28,0,0,1,.24,1.46c.11.94.26,2.31.41,4,.31,3.39.65,8.08.88,13.26s.3,9.88.29,13.28c0,1.7,0,3.08-.06,4A7.07,7.07,0,0,1,135.61,389.26Z" style="fill:#1a2e35"/><path d="M118.81,369.46c0,.15-.94.19-2.08.1s-2-.29-2-.44.94-.2,2.08-.11S118.83,369.31,118.81,369.46Z" style="fill:#1a2e35"/><path d="M119.13,363.67c-.06.14-.86-.08-1.79-.5s-1.64-.86-1.57-1,.86.08,1.79.49S119.2,363.53,119.13,363.67Z" style="fill:#1a2e35"/><path d="M122.11,359.37c-.08.13-1-.3-1.92-1.08s-1.53-1.58-1.42-1.68.86.51,1.77,1.26S122.19,359.24,122.11,359.37Z" style="fill:#1a2e35"/><path d="M125.11,355.32c-.14.06-.57-.61-1-1.51s-.61-1.67-.47-1.73.57.61,1,1.51S125.24,355.26,125.11,355.32Z" style="fill:#1a2e35"/><path d="M129.8,352.45c-.13.06-.6-.66-.91-1.66s-.33-1.86-.19-1.88.42.76.72,1.72S129.94,352.38,129.8,352.45Z" style="fill:#1a2e35"/><path d="M137.64,349.21c.15.05.06.66-.19,1.37s-.57,1.24-.71,1.19-.06-.66.19-1.37S137.5,349.15,137.64,349.21Z" style="fill:#1a2e35"/><path d="M143.46,351.7c.1.11-.27.62-.83,1.14s-1.11.86-1.21.75.27-.63.83-1.15S143.36,351.59,143.46,351.7Z" style="fill:#1a2e35"/><path d="M148.58,355c.08.12-.37.58-1,1s-1.24.7-1.32.57.37-.58,1-1S148.49,354.88,148.58,355Z" style="fill:#1a2e35"/><path d="M152.21,359.94c.06.13-.66.57-1.6,1s-1.76.61-1.81.47.65-.58,1.6-1S152.15,359.8,152.21,359.94Z" style="fill:#1a2e35"/><path d="M153.64,365.31c0,.15-.71.36-1.63.48s-1.67.08-1.69-.07.71-.36,1.63-.48S153.62,365.16,153.64,365.31Z" style="fill:#1a2e35"/><path d="M154.39,371.93c-.06.14-.84-.07-1.74-.46s-1.57-.82-1.51-1,.83.07,1.73.46S154.45,371.79,154.39,371.93Z" style="fill:#1a2e35"/><path d="M153.73,377.61a3.38,3.38,0,0,1-2-.77c-1-.67-1.64-1.48-1.54-1.58s.86.49,1.84,1.12S153.79,377.46,153.73,377.61Z" style="fill:#1a2e35"/><path d="M150.78,382.78c-.09.11-.88-.35-1.63-1.16s-1.15-1.62-1-1.7.71.56,1.43,1.33S150.87,382.65,150.78,382.78Z" style="fill:#1a2e35"/><path d="M122.7,383.38c.07.14-.75.7-1.83,1.27s-2,.91-2.09.77.75-.7,1.84-1.26S122.63,383.25,122.7,383.38Z" style="fill:#1a2e35"/><path d="M120.14,378.71c.06.13-.6.57-1.47,1s-1.64.61-1.7.47.6-.57,1.47-1S120.08,378.57,120.14,378.71Z" style="fill:#1a2e35"/><path d="M118.25,374.57c0,.15-.79.38-1.81.53s-1.86.14-1.88,0,.79-.39,1.81-.53S118.23,374.42,118.25,374.57Z" style="fill:#1a2e35"/><path d="M124.44,372.28c0,.14-.75.51-1.8.63s-1.91-.06-1.9-.21.84-.22,1.83-.33S124.39,372.13,124.44,372.28Z" style="fill:#1a2e35"/><path d="M129.57,367.17c.05.14-.58.46-1.43.54s-1.53-.1-1.51-.25.67-.21,1.46-.29S129.53,367,129.57,367.17Z" style="fill:#1a2e35"/><path d="M130.55,363.08c0,.14-.73,0-1.52-.24s-1.39-.61-1.34-.75.73,0,1.52.23S130.6,362.94,130.55,363.08Z" style="fill:#1a2e35"/><path d="M132.44,358.94c-.11.1-.58-.21-.91-.79s-.37-1.13-.22-1.17.4.39.7.9S132.55,358.83,132.44,358.94Z" style="fill:#1a2e35"/><path d="M130.17,375.89c0,.15-.56.42-1.32.6a5,5,0,0,1-1.11.17l-.11-.32c.2,0,.33,0,.36,0s-.06.16-.22.28l-.11-.32a4.9,4.9,0,0,1,1.06-.37C129.48,375.77,130.13,375.74,130.17,375.89Z" style="fill:#1a2e35"/><path d="M131.23,383.15c.05.14-.7.56-1.68,1s-1.83.59-1.88.45.69-.57,1.68-1S131.17,383,131.23,383.15Z" style="fill:#1a2e35"/><path d="M125.42,379.92c0,.15-.45.45-1.12.67s-1.24.3-1.29.15.45-.44,1.12-.67S125.37,379.78,125.42,379.92Z" style="fill:#1a2e35"/><path d="M125.87,365.15c0,.14-.91.06-1.92-.3s-1.74-.84-1.68-1,.88.12,1.86.46S125.9,365,125.87,365.15Z" style="fill:#1a2e35"/><path d="M139.91,363.54c.08.13-.41.6-1.1,1s-1.32.73-1.4.6.41-.6,1.1-1.05S139.82,363.42,139.91,363.54Z" style="fill:#1a2e35"/><path d="M140.67,370.83c0,.15-.48.38-1.15.52s-1.24.13-1.27,0,.49-.38,1.16-.52S140.64,370.68,140.67,370.83Z" style="fill:#1a2e35"/><path d="M141.56,379c-.06.13-.81-.08-1.66-.47s-1.5-.83-1.44-1,.81.08,1.67.47S141.62,378.89,141.56,379Z" style="fill:#1a2e35"/><path d="M139.68,387c-.12.09-.6-.3-1.08-.89s-.77-1.13-.65-1.23.6.3,1.07.89S139.8,386.91,139.68,387Z" style="fill:#1a2e35"/><path d="M139.3,358.18c.09.11-.23.51-.78.79s-1.06.29-1.1.14.36-.38.86-.63S139.2,358.05,139.3,358.18Z" style="fill:#1a2e35"/><path d="M146.18,365.53c0,.14-.59.49-1.46.61s-1.58,0-1.57-.19.68-.24,1.49-.36S146.13,365.38,146.18,365.53Z" style="fill:#1a2e35"/><path d="M144.81,358.93c.06.13-.57.58-1.47.87s-1.67.29-1.69.14.67-.39,1.53-.66S144.74,358.79,144.81,358.93Z" style="fill:#1a2e35"/><path d="M147.68,375.75a6.66,6.66,0,0,1-4.62-.84,7.34,7.34,0,0,1,2.33.3A7.09,7.09,0,0,1,147.68,375.75Z" style="fill:#1a2e35"/><path d="M145.12,385.33c-.09.12-.88-.35-1.68-1.15s-1.26-1.59-1.14-1.68.76.53,1.53,1.3S145.22,385.21,145.12,385.33Z" style="fill:#1a2e35"/><path d="M133.88,351.13a24.25,24.25,0,0,0-4.8,3.79,23.5,23.5,0,0,0-6,13.21,29.85,29.85,0,0,0,.36,8.1,63.4,63.4,0,0,0,1.52,6.5c.52,1.83,1,3.29,1.33,4.31a9.35,9.35,0,0,1,.46,1.59,9.19,9.19,0,0,1-.66-1.52c-.39-1-.93-2.45-1.5-4.27a55.56,55.56,0,0,1-1.64-6.52,28.87,28.87,0,0,1-.41-8.25,23,23,0,0,1,6.24-13.42,17.71,17.71,0,0,1,3.58-2.8c.46-.28.85-.44,1.1-.57S133.87,351.11,133.88,351.13Z" style="fill:#1a2e35"/><path d="M141.35,389a61,61,0,0,0,2.46-5.88A33.45,33.45,0,0,0,145.28,368a28.61,28.61,0,0,0-2.33-8.07,19.08,19.08,0,0,0-4-5.53,14.24,14.24,0,0,0-3.89-2.46c-1-.43-1.62-.53-1.61-.57a1.23,1.23,0,0,1,.44,0,8.36,8.36,0,0,1,1.24.34,13.25,13.25,0,0,1,4.08,2.37,18.64,18.64,0,0,1,4.17,5.61,27.87,27.87,0,0,1,2.42,8.2,32.05,32.05,0,0,1-1.65,15.32c-.31.95-.7,1.76-1,2.49s-.64,1.32-.91,1.8A12.83,12.83,0,0,1,141.35,389Z" style="fill:#1a2e35"/><path d="M332.2,353.82l-18.75,23.05h0a20.23,20.23,0,0,0,6.29,11.19,11.52,11.52,0,0,0,11.52,2.19h0s1.23-2.07,4.66-7.59c6.47-10.41,10.77-30.26,10.77-30.26Z" style="fill:#ffcfb3"/><path d="M361.69,309.26a2.11,2.11,0,0,0-1.94-.48l-12.26,2.85a4.21,4.21,0,0,0-2.57,1.82L320.8,351.84l2,.79,13.62-1.84,25.67-41.13Z" style="fill:#1a2e35"/><path d="M353.16,314.82a.84.84,0,0,0,1-.3c.3-.35.32-.78,0-1a.84.84,0,0,0-1,.31C352.91,314.21,352.89,314.64,353.16,314.82Z" style="fill:#fff"/><path d="M362.1,309.66a19.83,19.83,0,0,1-2.37.68L353.24,312,348.75,313a2.85,2.85,0,0,0-1.87,1.22c-.44.72-.9,1.45-1.37,2.21l-6.15,9.83c-4.39,7-8.4,13.25-11.33,17.79l-3.51,5.36a14.29,14.29,0,0,1-1.37,1.92,15.7,15.7,0,0,1,1.13-2l3.3-5.45c2.82-4.6,6.75-10.92,11.14-17.89l6.21-9.8,1.4-2.21a3.56,3.56,0,0,1,2.3-1.48l4.51-1,6.54-1.41A16.92,16.92,0,0,1,362.1,309.66Z" style="fill:#375a64"/><path d="M351.88,319.56s-1.24-.08-1.76,3.1-2.27,12.3-2.27,12.3l-6.6-2.51-8,1.78s-1.69,1.67-.36,2.36,6.47,1,6.47,1l4,4.61-11-3.71s-3.56,1.23-2.41,3.15,8.74,7.53,8.74,7.53l-5.43.17-6.6-3s-2,.28-1.16,1.76,7.77,6.41,7.77,6.41l8.29,2.81s4.41-.76,4.78-2a13.85,13.85,0,0,0,.39-3s2.32-.82,2.71-1.91a6,6,0,0,0,0-2.74s3.72.23,4.09-1.71a20,20,0,0,0-.64-7.07c-.45-1.42.84-15.18.67-15.57S354.15,318.43,351.88,319.56Z" style="fill:#ffcfb3"/><path d="M346.58,355.35a4.72,4.72,0,0,1-2.08.82,15.41,15.41,0,0,1-5.36.32,13.88,13.88,0,0,1-5-1.54c-1.15-.63-1.73-1.18-1.66-1.26s2.81,1.59,6.8,2S346.53,355.12,346.58,355.35Z" style="fill:#ff9d62"/><path d="M344.53,352.86c-.12.19-1.59-.36-3.18-1.37s-2.67-2.07-2.52-2.23,1.46.6,3,1.58S344.65,352.67,344.53,352.86Z" style="fill:#ff9a6a"/><path d="M348.48,346c-.11.18-1.57-.35-3.07-1.44s-2.41-2.25-2.24-2.39,1.33.73,2.78,1.77S348.61,345.79,348.48,346Z" style="fill:#ff9a6a"/><path d="M352.72,340.33c-.22.11-1.1-1.22-2.46-2.62s-2.66-2.37-2.52-2.56,1.73.53,3.16,2S352.92,340.24,352.72,340.33Z" style="fill:#ff9d62"/><polygon points="475.71 659.13 469.87 659.13 472.79 443.19 485.3 443.19 475.71 659.13" style="fill:#e1e1e1"/><path d="M475.72,659.13s0-.39,0-1.13.07-1.85.12-3.27c.11-2.89.28-7.11.5-12.54.46-10.89,1.11-26.63,1.93-46.11,1.69-39,4-92.88,6.63-152.9l.38.39H472.79l.38-.37c-1.44,105.86-2.76,193.93-3.22,215.93l-.08-.08,4.38,0,1.47,0s-.46,0-1.42,0l-4.43.05h-.08v-.08c.13-22,1.2-110.08,2.63-215.94v-.37h13.27l0,.39c-2.73,60.12-5.18,114.14-6.95,153.16-.91,19.44-1.65,35.15-2.15,46-.27,5.4-.47,9.59-.61,12.45-.07,1.4-.13,2.47-.17,3.22S475.72,659.13,475.72,659.13Z" style="fill:#1a2e35"/><polygon points="113.72 659.58 107.88 659.58 104.55 442.57 117.05 442.57 113.72 659.58" style="fill:#e1e1e1"/><path d="M113.72,659.58s0-.39,0-1.13,0-1.86,0-3.29c0-2.9.08-7.14.14-12.6.14-10.94.34-26.75.6-46.34.56-39.14,1.33-93.33,2.2-153.65l.37.38h-12.5l.37-.38c1.63,106.4,2.87,194.93,3,217l-.08-.08,4.38,0,1.46,0-1.42,0-4.42,0h-.08v-.09c-.5-22.07-2-110.6-3.62-217v-.38h13.26v.38c-1,60.42-1.87,114.72-2.51,153.92-.35,19.55-.63,35.33-.82,46.25-.11,5.42-.19,9.63-.25,12.51,0,1.41-.06,2.49-.07,3.24S113.72,659.58,113.72,659.58Z" style="fill:#1a2e35"/><rect x="75.87" y="425.97" width="420.04" height="17.99" style="fill:#375a64"/><path d="M75.87,426s.71,0,2.13,0l6.28,0,24.26-.06,89.55-.11,297.82-.15h.37v18.73h-.37l-420-.27h-.1V444c0-6.18,0-10.69.06-13.66l0-3.27c0-.72,0-1.06,0-1.06s0,.37,0,1.09l0,3.3c0,3,0,7.44,0,13.6l-.1-.1,420-.27-.38.37v0c0-6.16,0-12.28,0-18l.37.37-297.54-.15-89.65-.11L84.38,426l-6.33,0Z" style="fill:#1a2e35"/><path d="M163,426.24a2.07,2.07,0,0,1-.13.19l-.43.54a8.86,8.86,0,0,1-2.07,1.66,11.75,11.75,0,0,1-4,1.33,27.81,27.81,0,0,1-5.54.24,53.09,53.09,0,0,1-6.67-.76,58.58,58.58,0,0,0-7.6-.91c-5.4-.19-11.25,1.22-17.11,3.32s-11.35,4.48-16.6,5.93a45.24,45.24,0,0,1-7.57,1.51,32.09,32.09,0,0,1-6.73,0,22.62,22.62,0,0,1-9.22-2.95,14.3,14.3,0,0,1-2.86-2.13s.08,0,.2.12l.55.41a18.92,18.92,0,0,0,2.2,1.43,23.49,23.49,0,0,0,9.17,2.77,32.89,32.89,0,0,0,6.64-.05,47.7,47.7,0,0,0,7.49-1.53c5.2-1.47,10.66-3.86,16.56-6s11.81-3.53,17.29-3.31a59.59,59.59,0,0,1,7.65,1,54.11,54.11,0,0,0,6.62.83,28.42,28.42,0,0,0,5.49-.17,11.84,11.84,0,0,0,3.92-1.22A10.64,10.64,0,0,0,163,426.24Z" style="fill:#1a2e35"/><path d="M118,426.51a10.2,10.2,0,0,1-1.24,1.06A28.38,28.38,0,0,1,113,430a32.79,32.79,0,0,1-6.14,2.5,33.43,33.43,0,0,1-8,1.25,30.82,30.82,0,0,1-14.34-3A9.12,9.12,0,0,1,81.06,428a5.1,5.1,0,0,1-.56-1.08,1.69,1.69,0,0,1-.11-.41,14.73,14.73,0,0,0,.83,1.38,9.48,9.48,0,0,0,3.46,2.62,31.74,31.74,0,0,0,14.17,2.77,34.35,34.35,0,0,0,7.91-1.19,35.37,35.37,0,0,0,6.1-2.37,34.49,34.49,0,0,0,3.8-2.26A11,11,0,0,1,118,426.51Z" style="fill:#1a2e35"/><path d="M214.56,437.91a6.46,6.46,0,0,1,.64.23,11.24,11.24,0,0,0,9.1-.62l0,.23a17.19,17.19,0,0,0-8.92-3.48,17.43,17.43,0,0,0-11.62,3,1.84,1.84,0,0,0-.89,1.17,1.25,1.25,0,0,0,.77,1.16,5.65,5.65,0,0,0,1.59.56l1.75.39c2.36.53,4.79,1.05,7.31,1.42a43.14,43.14,0,0,0,7.76.52,26.93,26.93,0,0,0,4-.38c.67-.11,1.33-.24,2-.41a10.75,10.75,0,0,0,1.92-.62,6.42,6.42,0,0,0,2.49-1.81,2.83,2.83,0,0,0,.48-2.76,4.74,4.74,0,0,0-2-2.18A15,15,0,0,0,228.2,433a37.34,37.34,0,0,0-11.43-2.37,47.5,47.5,0,0,0-19.5,3,48.4,48.4,0,0,0-11.74,6.42c-1.26,1-2.23,1.73-2.84,2.3L182,443c-.16.13-.25.2-.26.19l.23-.23.69-.66c.6-.59,1.54-1.38,2.79-2.38a46.58,46.58,0,0,1,11.73-6.59,47.22,47.22,0,0,1,19.66-3.16,37.86,37.86,0,0,1,11.58,2.38,15.4,15.4,0,0,1,2.83,1.38,5.16,5.16,0,0,1,2.15,2.43,3.33,3.33,0,0,1-.55,3.24,6.86,6.86,0,0,1-2.69,2,11.38,11.38,0,0,1-2,.65,20.31,20.31,0,0,1-2,.42A29.36,29.36,0,0,1,222,443a44.17,44.17,0,0,1-7.86-.55c-2.53-.38-5-.91-7.33-1.44l-1.75-.4a5.89,5.89,0,0,1-1.73-.62,2.52,2.52,0,0,1-.72-.63,1.39,1.39,0,0,1-.26-1,2.27,2.27,0,0,1,1.08-1.48,17.73,17.73,0,0,1,11.91-3,17.42,17.42,0,0,1,9.07,3.63l.16.14-.18.09a11.19,11.19,0,0,1-7.36,1A8.34,8.34,0,0,1,214.56,437.91Z" style="fill:#1a2e35"/><path d="M267.5,426.7a2.73,2.73,0,0,1,.4.91,6.87,6.87,0,0,1,.28,2.7,13.32,13.32,0,0,1-4,7.85,20,20,0,0,1-3.74,3.18,16.24,16.24,0,0,1-3.62,1.75,17,17,0,0,1-2.61.66,3.22,3.22,0,0,1-1,.08c0-.09,1.38-.28,3.48-1.07a17.69,17.69,0,0,0,3.48-1.81,21,21,0,0,0,3.63-3.13,13.59,13.59,0,0,0,4-7.55A9.64,9.64,0,0,0,267.5,426.7Z" style="fill:#1a2e35"/><path d="M341.38,443a23.41,23.41,0,0,0-1.89-1.84,13.3,13.3,0,0,0-6.43-2.9,14.32,14.32,0,0,0-4.9.14,21.15,21.15,0,0,1-5.75.53c-2.11-.2-4-1.47-5.71-2.81a19.39,19.39,0,0,0-5.75-3.4,21,21,0,0,0-12.75-.2,30.22,30.22,0,0,0-9.44,4.78,50.59,50.59,0,0,0-5.47,4.67l-1.4,1.38a3.52,3.52,0,0,1-.5.46,2.87,2.87,0,0,1,.43-.53c.29-.34.74-.83,1.33-1.45a46.46,46.46,0,0,1,5.4-4.82,29.93,29.93,0,0,1,9.52-4.94,21.3,21.3,0,0,1,13.06.17,19.78,19.78,0,0,1,5.87,3.49c1.71,1.34,3.49,2.54,5.47,2.73a20.71,20.71,0,0,0,5.62-.48,14.68,14.68,0,0,1,5-.08,13.25,13.25,0,0,1,6.51,3.11A8.62,8.62,0,0,1,341.38,443Z" style="fill:#1a2e35"/><path d="M407.34,426.14a5,5,0,0,1-.45.62,21,21,0,0,1-1.41,1.67,38.44,38.44,0,0,1-6,5.34,48.57,48.57,0,0,1-10.42,5.77,42.63,42.63,0,0,1-6.72,2.15,34.7,34.7,0,0,1-7.52,1,37.26,37.26,0,0,1-14.26-3,48.29,48.29,0,0,1-10.37-5.88,40.73,40.73,0,0,1-6-5.39c-.66-.68-1.09-1.28-1.41-1.66a5,5,0,0,1-.45-.62,4.47,4.47,0,0,1,.53.55c.35.36.79.94,1.47,1.6a43.43,43.43,0,0,0,6,5.23,48.56,48.56,0,0,0,10.32,5.73,37.18,37.18,0,0,0,14.09,2.9,35.11,35.11,0,0,0,7.41-.95,42,42,0,0,0,6.65-2.09,48.79,48.79,0,0,0,10.39-5.64,41.72,41.72,0,0,0,6.07-5.18c.68-.65,1.13-1.24,1.47-1.6A4.47,4.47,0,0,1,407.34,426.14Z" style="fill:#1a2e35"/><path d="M397.92,426s-.11.11-.35.28-.59.43-1.07.73a42.85,42.85,0,0,1-4.12,2.33,44.17,44.17,0,0,1-6.51,2.65,28.52,28.52,0,0,1-8.5,1.45,34.85,34.85,0,0,1-15.08-3.81,33,33,0,0,1-4.08-2.4c-.47-.31-.81-.58-1-.76s-.35-.28-.34-.3a14.9,14.9,0,0,1,1.48.9,44.68,44.68,0,0,0,4.14,2.24,36.25,36.25,0,0,0,14.92,3.62,28.85,28.85,0,0,0,8.36-1.39,46.74,46.74,0,0,0,6.49-2.52c1.8-.86,3.22-1.62,4.18-2.18A11.72,11.72,0,0,1,397.92,426Z" style="fill:#1a2e35"/><path d="M469.87,427.81a4.79,4.79,0,0,1-.82,0l-2.32-.09-1.67-.07h-2c-1.43,0-3.06,0-4.86.05l-2.82.08-3,.21c-2.11.11-4.32.39-6.67.62-4.65.59-9.69,1.42-14.81,2.57a141.89,141.89,0,0,0-13.88,4c-2,.75-4,1.41-5.65,2.16l-2.48,1-2.2,1c-1.43.63-2.61,1.29-3.67,1.85l-1.48.77-1.17.7-1.64,1a3.2,3.2,0,0,1-.62.31,2.44,2.44,0,0,1,.49-.38l1.53-1,1.12-.74,1.43-.81c1-.58,2.2-1.26,3.61-1.92l2.18-1.07,2.48-1.07c1.68-.76,3.65-1.44,5.65-2.21a138.27,138.27,0,0,1,14-4c5.17-1.15,10.27-2,15-2.55,2.38-.21,4.61-.49,6.75-.58l3.07-.18,2.85-.05c1.81-.06,3.46,0,4.9,0l2,.05,1.68.11,2.31.19A5.56,5.56,0,0,1,469.87,427.81Z" style="fill:#1a2e35"/><path d="M348.77,442.65a20.62,20.62,0,0,0-2.26-2.69,21.14,21.14,0,0,0-8.29-4.63,45,45,0,0,0-6.47-1.43c-2.36-.37-4.91-.67-7.57-1.13a61.62,61.62,0,0,1-8.21-2.06,54.77,54.77,0,0,0-8.77-2.11A36.45,36.45,0,0,0,290.13,431a63.11,63.11,0,0,0-6.94,3.11c-2.13,1.09-4.08,2.17-5.85,3.17-3.54,2-6.36,3.71-8.31,4.9l-2.23,1.37-.59.35a.92.92,0,0,1-.2.1s.05-.06.18-.15l.55-.39c.5-.34,1.23-.83,2.19-1.45,1.91-1.24,4.71-3,8.23-5,1.76-1,3.71-2.12,5.83-3.23a62.15,62.15,0,0,1,7-3.18,36.51,36.51,0,0,1,17.3-2.42,52.14,52.14,0,0,1,8.84,2.14,64.14,64.14,0,0,0,8.15,2.07c2.64.47,5.19.78,7.55,1.18a44.16,44.16,0,0,1,6.52,1.5,20.56,20.56,0,0,1,8.31,4.83A10.49,10.49,0,0,1,348.77,442.65Z" style="fill:#1a2e35"/><path d="M256.1,426.24a3.73,3.73,0,0,1-.06,1.15,13,13,0,0,1-.8,3,17.44,17.44,0,0,1-6.32,8.09,42.38,42.38,0,0,1-9.38,4.32c-1.25.41-2.27.71-3,.9a5.2,5.2,0,0,1-1.12.23,5.35,5.35,0,0,1,1.06-.42l2.93-1.05a48.72,48.72,0,0,0,9.22-4.4,18,18,0,0,0,6.27-7.8A23.74,23.74,0,0,0,256.1,426.24Z" style="fill:#1a2e35"/><path d="M160.6,444a6.1,6.1,0,0,1,1-1c.66-.6,1.66-1.42,2.93-2.4A84.86,84.86,0,0,1,175,433.84c4.27-2.35,8.27-4.23,11.17-5.56,1.45-.66,2.63-1.19,3.45-1.54a8,8,0,0,1,1.29-.5,7,7,0,0,1-1.21.68l-3.38,1.68c-2.86,1.42-6.82,3.34-11.08,5.68a104.59,104.59,0,0,0-10.52,6.61c-1.29.93-2.32,1.71-3,2.26A6.85,6.85,0,0,1,160.6,444Z" style="fill:#1a2e35"/><path d="M180,427c0,.06-.95-.12-2.66,0a18.74,18.74,0,0,0-6.86,2.09,62.46,62.46,0,0,0-8.91,6,46.39,46.39,0,0,1-5.37,3.48,30.39,30.39,0,0,1-6.43,2.47,59.59,59.59,0,0,1-13.14,1.58c-4.07.12-7.72,0-10.78.16a53,53,0,0,0-7.21.71c-.84.16-1.5.28-1.94.39a2.82,2.82,0,0,1-.68.12,3.55,3.55,0,0,1,.66-.22c.43-.14,1.08-.3,1.92-.48a46.35,46.35,0,0,1,7.23-.87c3.08-.18,6.74-.13,10.79-.28a61,61,0,0,0,13-1.6,29.8,29.8,0,0,0,6.31-2.42,43.86,43.86,0,0,0,5.33-3.42,59.54,59.54,0,0,1,9-5.92,18.32,18.32,0,0,1,7-2,12.33,12.33,0,0,1,2,.07A4.17,4.17,0,0,1,180,427Z" style="fill:#1a2e35"/></svg>