<svg id="Layer_1" data-name="Layer 1" xmlns="http://www.w3.org/2000/svg" xmlns:xlink="http://www.w3.org/1999/xlink" viewBox="0 0 1920 1080"><defs><clipPath id="clip-path"><rect id="SVGID" x="-0.82" y="-100.34" width="1920" height="1280" style="fill:none"/></clipPath><linearGradient id="linear-gradient" x1="1364.69" y1="-1308.86" x2="211.47" y2="718.48" gradientUnits="userSpaceOnUse"><stop offset="0" stop-opacity="0"/><stop offset="0.19" stop-color="#000104" stop-opacity="0.03"/><stop offset="0.36" stop-color="#00060f" stop-opacity="0.11"/><stop offset="0.52" stop-color="#000e21" stop-opacity="0.24"/><stop offset="0.68" stop-color="#00183b" stop-opacity="0.43"/><stop offset="0.83" stop-color="#00265c" stop-opacity="0.67"/><stop offset="0.98" stop-color="#003784" stop-opacity="0.97"/><stop offset="1" stop-color="#003989"/></linearGradient><linearGradient id="linear-gradient-2" x1="924.26" y1="-296.46" x2="358.4" y2="698.31" gradientUnits="userSpaceOnUse"><stop offset="0" stop-opacity="0"/><stop offset="0.03" stop-color="#000408" stop-opacity="0.06"/><stop offset="0.17" stop-color="#001430" stop-opacity="0.35"/><stop offset="0.32" stop-color="#002150" stop-opacity="0.58"/><stop offset="0.48" stop-color="#002c69" stop-opacity="0.77"/><stop offset="0.64" stop-color="#00337b" stop-opacity="0.9"/><stop offset="0.8" stop-color="#003886" stop-opacity="0.97"/><stop offset="1" stop-color="#003989"/></linearGradient><linearGradient id="linear-gradient-3" x1="1897.65" y1="975.5" x2="1775.9" y2="1189.54" xlink:href="#linear-gradient-2"/><linearGradient id="linear-gradient-4" x1="1656.76" y1="276.23" x2="1072.07" y2="1304.1" xlink:href="#linear-gradient-2"/><linearGradient id="linear-gradient-5" x1="1072.37" y1="-948.02" x2="260.45" y2="479.32" xlink:href="#linear-gradient"/><linearGradient id="linear-gradient-6" x1="2021.09" y1="-1260.33" x2="486.04" y2="1438.25" gradientTransform="translate(2256.76 1543.61) rotate(180)" xlink:href="#linear-gradient"/><linearGradient id="linear-gradient-7" x1="1841.21" y1="-1059.53" x2="538.31" y2="1230.94" gradientTransform="translate(2256.76 1543.61) rotate(180)" xlink:href="#linear-gradient"/></defs><rect x="-0.82" y="-100.34" width="1920" height="1280" style="fill:#000935"/><g style="clip-path:url(#clip-path)"><path d="M-14.11-114.49V446.05c77.47,11.07,157.64,6.84,234.34-9.49C349.46,409.06,469.84,349,580.65,277.09,734.94,176.92,877.71,50.75,1053.92-2c86.22-25.82,178.14-33.15,260.54-69.34a304.14,304.14,0,0,0,70.23-43.11Z" style="fill:url(#linear-gradient)"/><path d="M4.29,496.85C51.76,509.37,100,517.53,149.17,518.5c47.15.93,94.26-4.74,140.14-15.48,47-11,91.9-27.82,136.44-46.32a1043.61,1043.61,0,0,0,117.53-57.52c76.87-43.91,147.85-97.64,212.49-158.06q12.42-11.6,24.52-23.51c9.08-8.94,19-16.68,28.93-24.64l13.44-10.75c4.1-3.29,6.32-6.56,9.42-10.74,4-5.42,10.33-9.63,15.44-14l15-12.83Q919.3,96.35,977,49.17c19.4-15.79,40.32-29.23,61.84-41.95C1060.2-5.41,1081.77-18,1103.65-29.7c43.88-23.47,91.69-38.16,139-52.87,11.9-3.7,23.81-7.41,35.68-11.22.76-.25.43-1.46-.34-1.21-47.25,15.2-95.25,28.5-141,47.87-21.38,9.05-41.73,20.25-61.69,32.06-20.86,12.36-42.18,23.8-62.6,36.93s-38.59,28-57.19,43.3q-28.14,23.13-56,46.6-28.9,24.31-57.6,48.9c-3.77,3.22-7.92,6.18-10.88,10.19-1.81,2.44-3.22,5.24-5.39,7.41s-5.17,4.14-7.68,6.14c-9.9,7.92-20.16,15.54-29.76,23.81-8.58,7.39-16.33,16-24.54,23.78s-16.43,15.44-24.8,23q-24.89,22.49-51,43.59A1113.23,1113.23,0,0,1,579.24,376.2a1035,1035,0,0,1-116.45,63c-43,19.8-87.24,37.92-132.64,51.58C283.83,504.72,236,514,187.67,516.59c-49.43,2.66-99-1.84-147.36-12.31-12-2.59-23.85-5.51-35.69-8.64a.63.63,0,0,0-.33,1.21Z" style="fill:url(#linear-gradient-2)"/><path d="M1917.28,986.5c-10.86,12.48-21.36,25.25-31.74,38.13s-20.5,25.72-30.8,38.55q-7.63,9.51-15.39,18.93c-5.17,6.25-10.26,12.61-15.95,18.39-11.44,11.63-22.39,23.75-33.1,36.07-10.49,12.07-20.75,24.33-31.07,36.54l-3.85,4.54c-.52.61.36,1.5.88.88,10.31-12.15,20.52-24.38,30.92-36.45,10.65-12.35,21.49-24.54,32.81-36.28,2.84-3,5.89-5.76,8.55-8.87s5.19-6.13,7.76-9.21q7.82-9.36,15.46-18.86c10.32-12.78,20.5-25.68,30.77-38.5s20.76-25.68,31.51-38.21q2.06-2.39,4.12-4.76c.53-.61-.35-1.49-.88-.89Z" style="fill:url(#linear-gradient-3)"/><path d="M853,1178.38c8.12-86.52,38.2-170,86.17-242.44,12.41-18.73,26.24-36,40.56-53.2,7-8.41,13.31-17.28,20.88-25.2s15.3-16,23.1-23.85c30.83-31,63.76-60.23,100.91-83.5q6.15-3.86,12.44-7.49c4.69-2.7,10.15-4.86,14.53-8,1.89-1.35,3.49-3.54,5.18-5.17a40.47,40.47,0,0,1,7.46-5.48q7.93-4.72,16-9.32,29.53-16.92,60.07-32a1358.64,1358.64,0,0,1,125.93-54.14c42-15.73,84.64-29.75,127.51-42.93q32.43-10,65-19.41c22.57-6.58,45.41-12.15,68-18.82,11.45-3.38,22.81-7.11,34-11.29,5.67-2.12,11.87-5.75,17.94-6.09,5.18-.3,9.38.34,14.3-1.51,23.28-8.76,46.45-17.79,69.65-26.76,21.94-8.48,44.21-16.23,65.56-26.13,21.19-9.82,41.7-21,61.94-32.65,4.58-2.64,8.59-4.95,12.41-8.56,4.27-4.05,8.76-7.22,14.43-9,.77-.24.44-1.45-.33-1.2-9.77,3.06-15.83,11.14-24.47,16.13-10.44,6-20.94,12-31.58,17.65a575.44,575.44,0,0,1-67.32,30.66c-23.18,8.82-46.28,17.85-69.42,26.76q-8.73,3.36-17.47,6.69c-6,2.29-12.9,6.07-19.33,6.67-4.41.41-8.94-.86-13.11.83-6.07,2.45-12.16,4.83-18.31,7.06-22.74,8.2-46,14-69.34,20.29-22.27,6-44.37,12.85-66.47,19.47-43.7,13.09-87.22,26.86-130.18,42.24-42.15,15.1-83.77,31.76-124.37,50.67q-31.49,14.67-62.07,31.16-15.28,8.26-30.32,17c-4.62,2.7-10.07,5.13-14.26,8.46-1.9,1.52-3.46,3.57-5.24,5.22a41.65,41.65,0,0,1-8.93,5.93c-37.52,20.49-71.11,47.24-102.07,76.58-16.1,15.25-32.24,30.93-46.93,47.56-7.44,8.41-13.68,17.81-21.32,26-7.14,7.68-13.44,16.23-19.67,24.66-51.31,69.43-86,150.85-99,236.3-1.52,10-2.72,20-3.67,30.09-.07.8,1.18.8,1.25,0Z" style="fill:url(#linear-gradient-4)"/><path d="M-14.11-114.49V240.08a326.57,326.57,0,0,0,88,61.16c84.09,39.77,182,44.58,273,25.21s175.73-61.63,253.75-112.28C709.19,143.66,809.7,54.82,933.77,17.66,994.47-.52,1059.18-5.68,1117.2-31.16c38.54-16.93,74.64-46.72,93.2-83.33Z" style="fill:url(#linear-gradient-5)"/><path d="M1935,501.5a957.38,957.38,0,0,0-109.69,16.79c-172,36.61-332.25,116.52-479.75,212.28-205.38,133.33-395.41,301.28-630,371.54-114.77,34.38-237.11,44.13-346.8,92.3l-2.54,1.14H1935Z" style="fill:url(#linear-gradient-6)"/><path d="M1346.56-114.49H1344c12,146.6,74.8,282.83,180,388C1634.61,384.18,1779.64,448,1935,455V452.4C1624,438.15,1372.13,193.46,1346.56-114.49Z" style="fill:#ff1c7d"/><path d="M1935,616.48c-75.2-6.36-151.85-.59-225.68,15.12-146,31.07-282,98.9-407.2,180.18-174.31,113.16-335.61,255.72-534.7,315.35-89,26.65-183.27,35.88-269.88,68.42H1935Z" style="fill:url(#linear-gradient-7)"/><path d="M532.05,1195.55C571,1019.67,728.15,887.72,915.58,887.72s344.58,131.95,383.52,307.83h2.62c-39-177.3-197.3-310.39-386.14-310.39s-347.16,133.09-386.15,310.39Z" style="fill:#ff1c7d"/><circle cx="1577.89" cy="555.54" r="78.31" transform="translate(69.32 1278.45) rotate(-45)" style="fill:none;stroke:#ff1c7d;stroke-miterlimit:10"/><circle cx="198.41" cy="22.38" r="3.11" style="fill:#ff1c7d"/><path d="M234.41,22.38a3.11,3.11,0,1,1-3.1-3.11A3.1,3.1,0,0,1,234.41,22.38Z" style="fill:#ff1c7d"/><path d="M267.31,22.38a3.11,3.11,0,1,1-3.1-3.11A3.1,3.1,0,0,1,267.31,22.38Z" style="fill:#ff1c7d"/><circle cx="297.11" cy="22.38" r="3.11" style="fill:#ff1c7d"/><circle cx="330.01" cy="22.38" r="3.11" style="fill:#fff"/><path d="M366,22.38a3.11,3.11,0,1,1-3.11-3.11A3.1,3.1,0,0,1,366,22.38Z" style="fill:#ff1c7d"/><circle cx="395.81" cy="22.38" r="3.11" style="fill:#ff1c7d"/><path d="M201.51,58.78a3.11,3.11,0,1,1-3.1-3.1A3.1,3.1,0,0,1,201.51,58.78Z" style="fill:#fff"/><path d="M234.41,58.78a3.11,3.11,0,1,1-3.1-3.1A3.1,3.1,0,0,1,234.41,58.78Z" style="fill:#ff1c7d"/><path d="M267.31,58.78a3.11,3.11,0,1,1-3.1-3.1A3.1,3.1,0,0,1,267.31,58.78Z" style="fill:#ff1c7d"/><path d="M300.22,58.78a3.11,3.11,0,1,1-3.11-3.1A3.11,3.11,0,0,1,300.22,58.78Z" style="fill:#ff1c7d"/><path d="M333.12,58.78a3.11,3.11,0,1,1-3.11-3.1A3.11,3.11,0,0,1,333.12,58.78Z" style="fill:#ff1c7d"/><path d="M366,58.78a3.11,3.11,0,1,1-3.11-3.1A3.11,3.11,0,0,1,366,58.78Z" style="fill:#ff1c7d"/><path d="M398.92,58.78a3.11,3.11,0,1,1-3.11-3.1A3.11,3.11,0,0,1,398.92,58.78Z" style="fill:#ff1c7d"/><circle cx="198.41" cy="95.19" r="3.11" style="fill:#ff1c7d"/><path d="M234.41,95.19a3.11,3.11,0,1,1-3.1-3.11A3.1,3.1,0,0,1,234.41,95.19Z" style="fill:#ff1c7d"/><path d="M267.31,95.19a3.11,3.11,0,1,1-3.1-3.11A3.1,3.1,0,0,1,267.31,95.19Z" style="fill:#fff"/><circle cx="297.11" cy="95.19" r="3.11" style="fill:#ff1c7d"/><circle cx="330.01" cy="95.19" r="3.11" style="fill:#ff1c7d"/><path d="M366,95.19a3.11,3.11,0,1,1-3.11-3.11A3.11,3.11,0,0,1,366,95.19Z" style="fill:#ff1c7d"/><circle cx="395.81" cy="95.19" r="3.11" style="fill:#ff1c7d"/><path d="M201.51,131.6a3.11,3.11,0,1,1-3.1-3.11A3.1,3.1,0,0,1,201.51,131.6Z" style="fill:#ff1c7d"/><path d="M234.41,131.6a3.11,3.11,0,1,1-3.1-3.11A3.1,3.1,0,0,1,234.41,131.6Z" style="fill:#ff1c7d"/><path d="M267.31,131.6a3.11,3.11,0,1,1-3.1-3.11A3.1,3.1,0,0,1,267.31,131.6Z" style="fill:#ff1c7d"/><path d="M300.22,131.6a3.11,3.11,0,1,1-3.11-3.11A3.11,3.11,0,0,1,300.22,131.6Z" style="fill:#ff1c7d"/><path d="M333.12,131.6a3.11,3.11,0,1,1-3.11-3.11A3.1,3.1,0,0,1,333.12,131.6Z" style="fill:#fff"/><path d="M366,131.6a3.11,3.11,0,1,1-3.11-3.11A3.1,3.1,0,0,1,366,131.6Z" style="fill:#ff1c7d"/><path d="M398.92,131.6a3.11,3.11,0,1,1-3.11-3.11A3.1,3.1,0,0,1,398.92,131.6Z" style="fill:#ff1c7d"/><circle cx="198.41" cy="168" r="3.11" style="fill:#ff1c7d"/><path d="M234.41,168a3.11,3.11,0,1,1-3.1-3.1A3.1,3.1,0,0,1,234.41,168Z" style="fill:#ff1c7d"/><path d="M267.31,168a3.11,3.11,0,1,1-3.1-3.1A3.1,3.1,0,0,1,267.31,168Z" style="fill:#ff1c7d"/><circle cx="297.11" cy="168" r="3.11" style="fill:#ff1c7d"/><circle cx="330.01" cy="168" r="3.11" style="fill:#ff1c7d"/><path d="M366,168a3.11,3.11,0,1,1-3.11-3.1A3.11,3.11,0,0,1,366,168Z" style="fill:#ff1c7d"/><circle cx="395.81" cy="168" r="3.11" style="fill:#ff1c7d"/><circle cx="198.41" cy="204.41" r="3.11" style="fill:#ff1c7d"/><path d="M234.41,204.41a3.11,3.11,0,1,1-3.1-3.11A3.11,3.11,0,0,1,234.41,204.41Z" style="fill:#ff1c7d"/><path d="M267.31,204.41a3.11,3.11,0,1,1-3.1-3.11A3.11,3.11,0,0,1,267.31,204.41Z" style="fill:#ff1c7d"/><circle cx="297.11" cy="204.41" r="3.11" style="fill:#fff"/><circle cx="330.01" cy="204.41" r="3.11" style="fill:#ff1c7d"/><path d="M366,204.41a3.11,3.11,0,1,1-3.11-3.11A3.11,3.11,0,0,1,366,204.41Z" style="fill:#ff1c7d"/><circle cx="395.81" cy="204.41" r="3.11" style="fill:#ff1c7d"/><path d="M201.51,240.81a3.11,3.11,0,1,1-3.1-3.1A3.1,3.1,0,0,1,201.51,240.81Z" style="fill:#ff1c7d"/><path d="M234.41,240.81a3.11,3.11,0,1,1-3.1-3.1A3.1,3.1,0,0,1,234.41,240.81Z" style="fill:#ff1c7d"/><path d="M267.31,240.81a3.11,3.11,0,1,1-3.1-3.1A3.1,3.1,0,0,1,267.31,240.81Z" style="fill:#ff1c7d"/><path d="M300.22,240.81a3.11,3.11,0,1,1-3.11-3.1A3.11,3.11,0,0,1,300.22,240.81Z" style="fill:#ff1c7d"/><path d="M333.12,240.81a3.11,3.11,0,1,1-3.11-3.1A3.11,3.11,0,0,1,333.12,240.81Z" style="fill:#ff1c7d"/><path d="M366,240.81a3.11,3.11,0,1,1-3.11-3.1A3.11,3.11,0,0,1,366,240.81Z" style="fill:#fff"/><path d="M398.92,240.81a3.11,3.11,0,1,1-3.11-3.1A3.11,3.11,0,0,1,398.92,240.81Z" style="fill:#ff1c7d"/><circle cx="198.41" cy="277.22" r="3.11" style="fill:#ff1c7d"/><path d="M234.41,277.22a3.11,3.11,0,1,1-3.1-3.11A3.1,3.1,0,0,1,234.41,277.22Z" style="fill:#fff"/><path d="M267.31,277.22a3.11,3.11,0,1,1-3.1-3.11A3.1,3.1,0,0,1,267.31,277.22Z" style="fill:#ff1c7d"/><circle cx="297.11" cy="277.22" r="3.11" style="fill:#ff1c7d"/><circle cx="330.01" cy="277.22" r="3.11" style="fill:#ff1c7d"/><path d="M366,277.22a3.11,3.11,0,1,1-3.11-3.11A3.11,3.11,0,0,1,366,277.22Z" style="fill:#ff1c7d"/><circle cx="395.81" cy="277.22" r="3.11" style="fill:#ff1c7d"/><circle cx="1463.07" cy="797.61" r="3.11" style="fill:#ff1c7d"/><circle cx="1495.97" cy="797.61" r="3.11" style="fill:#ff1c7d"/><path d="M1532,797.61a3.11,3.11,0,1,1-3.11-3.11A3.11,3.11,0,0,1,1532,797.61Z" style="fill:#ff1c7d"/><path d="M1564.88,797.61a3.11,3.11,0,1,1-3.11-3.11A3.11,3.11,0,0,1,1564.88,797.61Z" style="fill:#ff1c7d"/><path d="M1597.78,797.61a3.11,3.11,0,1,1-3.11-3.11A3.11,3.11,0,0,1,1597.78,797.61Z" style="fill:#fff"/><circle cx="1627.57" cy="797.61" r="3.11" style="fill:#ff1c7d"/><path d="M1663.58,797.61a3.11,3.11,0,1,1-3.11-3.11A3.11,3.11,0,0,1,1663.58,797.61Z" style="fill:#ff1c7d"/><circle cx="1463.07" cy="834.02" r="3.11" style="fill:#fff"/><circle cx="1495.97" cy="834.02" r="3.11" style="fill:#ff1c7d"/><path d="M1532,834a3.11,3.11,0,1,1-3.11-3.11A3.11,3.11,0,0,1,1532,834Z" style="fill:#ff1c7d"/><path d="M1564.88,834a3.11,3.11,0,1,1-3.11-3.11A3.1,3.1,0,0,1,1564.88,834Z" style="fill:#ff1c7d"/><path d="M1597.78,834a3.11,3.11,0,1,1-3.11-3.11A3.1,3.1,0,0,1,1597.78,834Z" style="fill:#ff1c7d"/><circle cx="1627.57" cy="834.02" r="3.11" style="fill:#ff1c7d"/><path d="M1663.58,834a3.11,3.11,0,1,1-3.11-3.11A3.1,3.1,0,0,1,1663.58,834Z" style="fill:#ff1c7d"/><path d="M1466.17,870.42a3.11,3.11,0,1,1-3.1-3.1A3.1,3.1,0,0,1,1466.17,870.42Z" style="fill:#ff1c7d"/><path d="M1499.07,870.42a3.11,3.11,0,1,1-3.1-3.1A3.1,3.1,0,0,1,1499.07,870.42Z" style="fill:#ff1c7d"/><path d="M1532,870.42a3.11,3.11,0,1,1-3.11-3.1A3.11,3.11,0,0,1,1532,870.42Z" style="fill:#fff"/><path d="M1564.88,870.42a3.11,3.11,0,1,1-3.11-3.1A3.11,3.11,0,0,1,1564.88,870.42Z" style="fill:#ff1c7d"/><path d="M1597.78,870.42a3.11,3.11,0,1,1-3.11-3.1A3.11,3.11,0,0,1,1597.78,870.42Z" style="fill:#ff1c7d"/><path d="M1630.68,870.42a3.11,3.11,0,1,1-3.11-3.1A3.11,3.11,0,0,1,1630.68,870.42Z" style="fill:#ff1c7d"/><path d="M1663.58,870.42a3.11,3.11,0,1,1-3.11-3.1A3.11,3.11,0,0,1,1663.58,870.42Z" style="fill:#ff1c7d"/><circle cx="1463.07" cy="906.83" r="3.11" style="fill:#ff1c7d"/><circle cx="1495.97" cy="906.83" r="3.11" style="fill:#ff1c7d"/><path d="M1532,906.83a3.11,3.11,0,1,1-3.11-3.11A3.11,3.11,0,0,1,1532,906.83Z" style="fill:#ff1c7d"/><path d="M1564.88,906.83a3.11,3.11,0,1,1-3.11-3.11A3.11,3.11,0,0,1,1564.88,906.83Z" style="fill:#ff1c7d"/><path d="M1597.78,906.83a3.11,3.11,0,1,1-3.11-3.11A3.11,3.11,0,0,1,1597.78,906.83Z" style="fill:#fff"/><circle cx="1627.57" cy="906.83" r="3.11" style="fill:#ff1c7d"/><path d="M1663.58,906.83a3.11,3.11,0,1,1-3.11-3.11A3.11,3.11,0,0,1,1663.58,906.83Z" style="fill:#ff1c7d"/><path d="M1466.17,943.24a3.11,3.11,0,1,1-3.1-3.11A3.1,3.1,0,0,1,1466.17,943.24Z" style="fill:#ff1c7d"/><path d="M1499.07,943.24a3.11,3.11,0,1,1-3.1-3.11A3.1,3.1,0,0,1,1499.07,943.24Z" style="fill:#ff1c7d"/><path d="M1532,943.24a3.11,3.11,0,1,1-3.11-3.11A3.11,3.11,0,0,1,1532,943.24Z" style="fill:#ff1c7d"/><path d="M1564.88,943.24a3.11,3.11,0,1,1-3.11-3.11A3.1,3.1,0,0,1,1564.88,943.24Z" style="fill:#ff1c7d"/><path d="M1597.78,943.24a3.11,3.11,0,1,1-3.11-3.11A3.1,3.1,0,0,1,1597.78,943.24Z" style="fill:#ff1c7d"/><path d="M1630.68,943.24a3.11,3.11,0,1,1-3.11-3.11A3.1,3.1,0,0,1,1630.68,943.24Z" style="fill:#ff1c7d"/><path d="M1663.58,943.24a3.11,3.11,0,1,1-3.11-3.11A3.1,3.1,0,0,1,1663.58,943.24Z" style="fill:#ff1c7d"/><circle cx="1463.07" cy="979.64" r="3.11" style="fill:#ff1c7d"/><circle cx="1495.97" cy="979.64" r="3.11" style="fill:#ff1c7d"/><path d="M1532,979.64a3.11,3.11,0,1,1-3.11-3.11A3.11,3.11,0,0,1,1532,979.64Z" style="fill:#ff1c7d"/><path d="M1564.88,979.64a3.11,3.11,0,1,1-3.11-3.11A3.11,3.11,0,0,1,1564.88,979.64Z" style="fill:#fff"/><path d="M1597.78,979.64a3.11,3.11,0,1,1-3.11-3.11A3.11,3.11,0,0,1,1597.78,979.64Z" style="fill:#ff1c7d"/><circle cx="1627.57" cy="979.64" r="3.11" style="fill:#ff1c7d"/><path d="M1663.58,979.64a3.11,3.11,0,1,1-3.11-3.11A3.11,3.11,0,0,1,1663.58,979.64Z" style="fill:#ff1c7d"/><circle cx="1463.07" cy="1016.05" r="3.11" style="fill:#ff1c7d"/><circle cx="1495.97" cy="1016.05" r="3.11" style="fill:#ff1c7d"/><path d="M1532,1016.05a3.11,3.11,0,1,1-3.11-3.11A3.11,3.11,0,0,1,1532,1016.05Z" style="fill:#ff1c7d"/><path d="M1564.88,1016.05a3.11,3.11,0,1,1-3.11-3.11A3.1,3.1,0,0,1,1564.88,1016.05Z" style="fill:#ff1c7d"/><path d="M1597.78,1016.05a3.11,3.11,0,1,1-3.11-3.11A3.1,3.1,0,0,1,1597.78,1016.05Z" style="fill:#ff1c7d"/><circle cx="1627.57" cy="1016.05" r="3.11" style="fill:#fff"/><path d="M1663.58,1016.05a3.11,3.11,0,1,1-3.11-3.11A3.1,3.1,0,0,1,1663.58,1016.05Z" style="fill:#ff1c7d"/><path d="M1466.17,1052.45a3.11,3.11,0,1,1-3.1-3.1A3.1,3.1,0,0,1,1466.17,1052.45Z" style="fill:#ff1c7d"/><path d="M1499.07,1052.45a3.11,3.11,0,1,1-3.1-3.1A3.1,3.1,0,0,1,1499.07,1052.45Z" style="fill:#fff"/><path d="M1532,1052.45a3.11,3.11,0,1,1-3.11-3.1A3.11,3.11,0,0,1,1532,1052.45Z" style="fill:#ff1c7d"/><path d="M1564.88,1052.45a3.11,3.11,0,1,1-3.11-3.1A3.11,3.11,0,0,1,1564.88,1052.45Z" style="fill:#ff1c7d"/><path d="M1597.78,1052.45a3.11,3.11,0,1,1-3.11-3.1A3.11,3.11,0,0,1,1597.78,1052.45Z" style="fill:#ff1c7d"/><path d="M1630.68,1052.45a3.11,3.11,0,1,1-3.11-3.1A3.11,3.11,0,0,1,1630.68,1052.45Z" style="fill:#ff1c7d"/><path d="M1663.58,1052.45a3.11,3.11,0,1,1-3.11-3.1A3.11,3.11,0,0,1,1663.58,1052.45Z" style="fill:#ff1c7d"/><path d="M1935-114.49H1769.71l.79,1.1-5.09,3.76-3.56-4.86h-15.77l-2.16,1.56-1.14-1.56h-63.52c1.54,2.31,3.47,5.21,5.16,7.73l-8,5.9-6.48-8.58,8.37-5h-18a15.35,15.35,0,0,0,5.34,4.36c-6,.67-10,3.48-11,9-1.05,5.8,2.06,9.77,7.48,12.33-7.56,1.63-11,4.9-11.35,10.4-.27,4.43,2.6,9.19,7,10.24a13.35,13.35,0,0,0,8-.51c2.43-1.09,4.18-3.7,5.49-5,1.59,2.85,3.48,6.23,5.4,9.7-4,.79-6.67,3.76-8.37,7.79-.7,5.68,1.26,10,6.53,12.58.45.22.72.8,1.07,1.22-6-.09-10.09,3-11.13,8.57a10.42,10.42,0,0,0,6.71,11.52c5.61,2,10.36-.42,14.17-7.42-.12,5.65,2.4,9.44,7.41,11.77-7.76,2.35-11,5.65-11,11,0,4.54,3,9,7.47,9.88a16.58,16.58,0,0,0,8-.79,27.33,27.33,0,0,0,5.92-3.32c.75,3.83,3.26,6.55,7.1,8.52-7.38,2-10.57,5.06-10.93,10.36-.3,4.42,2.55,9.26,6.92,10.28a15.89,15.89,0,0,0,8.39-.58c2.52-.89,4.59-3.08,5.84-4-.09,3.4,2.88,6.72,7.73,9.33-6,.82-10.06,3.31-11,9s2.23,9.42,7.29,12.1c-6.48.57-10.23,3.67-10.88,8.66a10.07,10.07,0,0,0,6.3,11c4.43,1.73,9.84.37,12-3.87a13.68,13.68,0,0,0,1.2-8.64c-.62-2.57-3.19-4.68-4.93-7,4.19-.72,7.59-2.83,9.22-7.24.17-.47.82-.77,1.24-1.15-1.48,5.28,1.73,8.46,5.34,11.46-7.38,3.25-10,6.8-9.13,12.33a10.12,10.12,0,0,0,8.83,8.7,10.22,10.22,0,0,0,10.82-6.1c2.1-4.84.53-9.23-4.43-13.38l8.3-5.47,6.86,8c-5.09,1-8.72,4.16-9.31,10a10.2,10.2,0,0,0,5.86,9.92c6,2.79,10.58.38,14.49-4.78,1.17,5.64,4.21,9.12,9.43,9.79,5.54.72,9.33-2.26,11.88-7.68.23,5.66,2.8,9.17,7.83,11.47-1.54.37-2.52.58-3.48.85a10.35,10.35,0,0,0,.54,20.18,10.29,10.29,0,0,0,11.47-5.51c.48-.92,1.07-1.77,1.63-2.65-.24,5.89,2,10.36,6.86,11.54a15.72,15.72,0,0,0,8.39-.58c2.59-.87,4.77-3,6.1-3.82.75,4.5,3.39,7.95,8.55,8.84,6,1,9.81-2.1,12.36-7.47,1.27,7.08,4.11,10.71,9.31,11.41,5.82.79,9.61-2.23,12-7.52,1.42,7.11,4.2,10.64,9.34,11.34,5.82.79,9.62-2.22,12.23-7.92.3,5.33,2.36,9,7.18,11.4-7,1.52-10.31,5-10.39,10.33a10.24,10.24,0,0,0,7.31,10,10.36,10.36,0,0,0,12-5.14c2.52-4.85,1-9.5-4.17-14l8.44-5.54,6.41,8.4c-5.82,1.83-8.71,5.3-8.51,10.69a10.11,10.11,0,0,0,7.56,9.42,10.74,10.74,0,0,0,8.07-1.18V135.66c-.15-.17-.3-.34-.42-.5l.42-.37V71.44l-4.75,3.35c-1.54-2.32-3.18-4.81-4.83-7.29l7-4.68,2.58,3.44v-14l-.73.54-4.43-6.58,5.16-3.5V26.08l-.71-1.06.71-.48Zm-16.57,132,3.88,5.34-5.53,4.08c-1.23-1.88-2.47-3.77-3.75-5.7Zm-.51-17,4.21-3,2.87,4-4.22,3.43C1919.78,3.42,1918.88,2,1917.88.47Zm1.28,43.92-5.77,3.82L1909,42.3l5.69-4.1ZM1908-47.91l2.45,3.18-3.3,2.27-2.22-3.1C1905.9-46.3,1906.84-47,1908-47.91ZM1904.28-27l2.9,3.69-4,3c-1-1.48-1.76-2.62-2.7-4Zm-3.63,20.69,2.83,3.93-4.41,3.59L1895.9-3Zm-3.59,20.39,3.8,4.89-5,3.43-3.25-4.71ZM1892.23,45l-4.44-6.41,5.67-3.47,4.49,5.6Zm3,17.05-7.07,5.08-4.75-7.25,6.91-4.56ZM1886.66-51.9l2.34,3.33-3.31,2.41-2.32-3.29Zm-3.71,21,2.83,3.85-3.46,2.48-2.93-4Zm-3.49,21.11,3.22,4.17-4.27,3.08-3.22-4.44ZM1875.74,11l3.48,4.65-4.5,3.72-3.41-5.25Zm-4.94,30.2-4.44-6.35,6.26-4.25,4.34,6.13Zm3,17c-2.43,1.77-4.83,3.51-7.08,5.16-1.55-2.36-3.23-4.9-4.83-7.31l7-4.55Zm-8.32-113.6,2.28,3.06-2.93,2.11-2.47-2.94Zm-3.78,20.93,3,3.85-3.65,3.06-3-4.58Zm-3.13,20.35c1.14,1.56,2.28,3.12,3.52,4.8l-4.93,3.67-3.5-5.22ZM1855,6.57l3.33,5-5.27,4.22-3.91-5.3Zm-5.75,30.91c-1.27-2-2.54-3.94-3.82-6l5.93-4.4,4.37,5.72Zm3.24,16.9-7.12,5.2-5-7.41,7.08-4.71Zm-8-114.17,3,3.64-3.94,2.85-2.71-4ZM1840.91-39c1.07,1.42,2.11,2.8,3.29,4.34l-4.57,3.38-3.16-4.67Zm-3.61,20.8,3.56,5-5.14,3.9c-1.32-1.93-2.51-3.69-3.7-5.44Zm-44.46,1.8-4.3-6.1,6-4,4.05,5.76ZM1795.37.77l-6.43,4.8-4.79-6.78,6.75-4.42C1792.27-3.68,1793.77-1.52,1795.37.77ZM1805,39.9c1.79,2.34,3.59,4.71,5.21,6.84l-7.84,5.68L1797.93,45Zm1.29-9.25L1801.52,24l7-4.63,4.15,6.19Zm4.14-21.6-4.49-6.39,6.34-4.19,4.18,6.07Zm3.91-22-4-5.66,5.63-3.74c1.21,1.72,2.43,3.47,3.81,5.42Zm11.82,56.37,5.16,7.13-7.4,5.35-5-7.64Zm1.7-9.49-4-6.26,6-4.42,4,6.06C1831.88,30.87,1829.76,32.48,1827.83,34Zm4.05-21.29-4.29-6.09,6-4,4,5.79ZM1827-85l2.54,3.52-3.6,2.86-2.73-3.85Zm-3.86,20.91,3.13,4.15L1822-56.71,1819-61.18Zm-3.52,20.92,3.34,4.75-4.71,3.58-3.66-5.1Zm-10.31-66.53,2.38,3.21-3.61,2.87-2.55-3.32ZM1805.9-88.8l2.84,3.65-4.28,3.21-2.64-3.89ZM1802-68.37l3.47,4.66-4.82,3.57-3.55-5Zm-3.63,20.89,3.61,5.24-5.21,3.91c-1.38-2-2.61-3.7-3.89-5.53ZM1788.16-114l3.13,4.41-4.44,3.27-3.3-4.62ZM1784.41-93l2.88,4.37c-1.49,1.16-2.84,2.2-4.27,3.29-1.06-1.54-2-3-3.09-4.52Zm-3.67,20.27c1.28,1.83,2.42,3.49,3.64,5.25l-5.17,3.91L1775.28-69Zm-3.74,21,4,5.72-5.73,4.17L1771-47.69Zm-3.76,21,4.34,6.25-6.2,4.6c-1.58-2.22-3.1-4.35-4.66-6.52ZM1774.33-3l-6.89,5.11-5-7.3,7.12-4.64ZM1763.2-97.38l3.17,4.91-5.1,4-3.86-5.09Zm-3.61,20.8,3.83,5.33-5.82,4.33L1754-72.4ZM1755.69-56l4.27,6.3-6.16,4.54-4.68-6.46Zm1,27.85-6.23,4.31-5-6.66,6.46-4.6Zm-14.74-73.62,4.15,6.16-6,4.43-4.51-6.28Zm-3.74,21,3.87,6.18-5.37,3.93-4.22-5.92Zm-3.56,21.09,4.56,6.22-6.33,4.5-4.93-6.66Zm-5.47,33.26-5.38-8,7.08-4.18c1.71,2.2,3.52,4.55,5.26,6.81Zm4.07,15.94-7.94,5.91c-1.82-2.64-4-5.82-5.92-8.55l8.39-5C1729.53-15.65,1731.47-12.94,1733.2-10.51Zm-12.61-95.72c1.48,2.23,3,4.52,4.61,6.94L1719.12-95l-5.11-6.59Zm-3.48,21.89,4.32,6L1715.25-73l-5.1-7.22Zm-3,20.17,5,6.9-7.62,5.77L1706.74-59Zm1.64,28.4-8,6-6-8.57,8.52-5.14C1712-40.93,1714-38.11,1715.7-35.77Zm-16.11-74,5.17,6.88-7,5.44-5.58-8.08Zm-3.25,20.53,5.39,7.68-7.76,5.8c-1.8-2.59-4-5.68-5.81-8.37Zm-3.63,20.72,4.74,7.82L1690-54.59,1685-63Zm-20.78-10.06a11.46,11.46,0,0,0-7.72-9.62c5.11-.31,8.68-2.75,10.59-6.18l6.15,9.08Zm13.75,45.87c-.81-4.61-3.34-8.87-9.57-9.55,5.25-.54,10.34-1.37,12.39-6.5l6.42,9.34Zm17.63,25.13a11.56,11.56,0,0,0-7.64-9.49c5-.39,8.57-2.77,10.47-6.23l6.09,9.15Zm17.56,25.32c-.52-3.9-2.69-7.63-6.66-9.08l9.9-6,5.76,8.36ZM1739,45.74c-1.13-5.27-2.18-10.58-8.58-12.47,5.09-.3,8.92-2.42,10.88-6.35,2.17,3.18,4.43,6.51,6.64,9.77C1743.91,37.67,1739.52,39.73,1739,45.74Zm3.91-24.84-6-8.88,7.91-4.43,5.59,7.19ZM1746.5-2c-1.63-2.22-3.44-4.68-5.24-7.11l7.18-4.28,5.09,6.67Zm13.66,46.59c-2.11-2.5-4.34-5.12-6.14-7.24l8.48-4.79c1.44,2.08,3.18,4.59,4.74,6.86Zm3.95-21.24L1758.56,16l7.24-4.91,5.4,7.55Zm17.77,43.3a27.66,27.66,0,0,0-3.81,3.43l-6.85-8.36,8.56-5.7,6.28,8.9A21.18,21.18,0,0,0,1781.88,66.65ZM1781,49.08l-4.7-8.12,7.25-5,4.74,7.2C1785.92,45,1783.35,47.13,1781,49.08Zm4-21.46L1779.87,20l7.32-4.81,4.93,7.05Zm13.64,46.8c-1.79-2.67-4-6-6-8.88l8.58-5.25c1.75,2.4,3.93,5.42,5.79,8Zm17.36,28.1c-1-5.14-2.22-10.09-8.34-11.94,5.18-.3,9.05-2.54,10.86-6.29l6.88,9.79C1821,94.57,1817.42,97.36,1815.93,102.52Zm4-24.36-5.59-8.75,8.08-5c1.89,2.55,4,5.31,5.69,7.64Zm17.26,28.3c-.57-6-2.69-9.92-6.58-11.46l9.56-6.06,6.4,8.89C1842.86,98.46,1839.18,100.71,1837.22,106.46Zm4.13-24.71-5.3-8.34,7.85-5.14,5.51,7.61Zm17.08,26.32a11,11,0,0,0-6.26-9.27l9.42-5.93,5.92,8.23Zm4.33-22.6-5.19-8.23,7.63-5.09c1.86,2.48,3.9,5.22,5.59,7.49Zm17.14,28.79c-.24-6.11-2.52-9.69-6.13-11.57l9.17-6,6.4,8.81C1885.47,106.15,1881.9,108.43,1879.9,114.26Zm4.25-25L1879,81l7.61-5c1.75,2.38,3.78,5.12,5.48,7.44Zm17.25,28.29c-.52-5.53-2.51-9.36-6.35-11l9.39-6,6.49,8.8C1906.94,109.81,1903.46,112.19,1901.4,117.55Zm4.18-24.38-5.18-8.38,7-4.39,5.66,7Zm3.8-22.88-4.75-6.61,6.62-4,4.74,6.17Zm13.54,47.65-6.19-8.11,8.47-4.72,6.3,7.62Zm5.75-34.43,5.74,7.78-7.56,4.87-5.47-7.54Zm-4-100-2.87-4.08,4-2.66,2.88,3.86Zm4-22.13-2.51-3.25,3.3-2.2c.85,1.16,1.58,2.15,2.36,3.23Z" style="fill:#00205c"/><path d="M1773.14,94.58c3.44-6.61,8-9.09,13.59-7.36a10.37,10.37,0,0,1,7.07,10.6,10.19,10.19,0,0,1-9.33,9.47c-5.65.52-9.34-2.61-11.49-9.53-2.25,1.7-4.34,4.29-6.92,4.94a13.61,13.61,0,0,1-8.65-1.11c-4.26-2.08-5.7-7.49-4-11.94a10.15,10.15,0,0,1,11.31-6.41C1769.84,84,1772.79,88,1773.14,94.58Z" style="fill:#00205c"/><path d="M1886.53,147.74a10.2,10.2,0,1,1,10.34-10A10.08,10.08,0,0,1,1886.53,147.74Z" style="fill:#00205c"/><path d="M1875.48,133.73a10.2,10.2,0,1,1-10.1-10.21A10.08,10.08,0,0,1,1875.48,133.73Z" style="fill:#00205c"/><path d="M1688.93,24.76a10.1,10.1,0,0,1-10.31-10,10.2,10.2,0,1,1,20.4-.22A10.09,10.09,0,0,1,1688.93,24.76Z" style="fill:#00205c"/><path d="M1716.55,39.66a10.16,10.16,0,1,1-10.17-10.06A10,10,0,0,1,1716.55,39.66Z" style="fill:#00205c"/><path d="M1832.6,126.17a10.1,10.1,0,1,1-10-10.18A9.92,9.92,0,0,1,1832.6,126.17Z" style="fill:#00205c"/><path d="M1843.78,140.07a10.17,10.17,0,1,1,10.27-10A10,10,0,0,1,1843.78,140.07Z" style="fill:#00205c"/><path d="M1801.27,112.24a10,10,0,1,1-10.18,9.67A9.9,9.9,0,0,1,1801.27,112.24Z" style="fill:#00205c"/><path d="M1790.45,118.4a10,10,0,1,1-9.91-9.92A9.88,9.88,0,0,1,1790.45,118.4Z" style="fill:#00205c"/><path d="M1892.77,158.13a9.92,9.92,0,1,1-9.94-9.88A10,10,0,0,1,1892.77,158.13Z" style="fill:#00205c"/><path d="M1871.38,154.42a9.92,9.92,0,1,1-9.84-10A10,10,0,0,1,1871.38,154.42Z" style="fill:#00205c"/><path d="M1712.5,61a9.93,9.93,0,1,1-10-9.81A9.9,9.9,0,0,1,1712.5,61Z" style="fill:#00205c"/><path d="M1695,36a10,10,0,1,1-9.81-10A9.9,9.9,0,0,1,1695,36Z" style="fill:#00205c"/><path d="M1741.37,79.42a10,10,0,1,1-9.84,10A9.87,9.87,0,0,1,1741.37,79.42Z" style="fill:#00205c"/><path d="M1667.31.77a9.9,9.9,0,0,1,10.09,9.74,10,10,0,1,1-19.93.26A9.89,9.89,0,0,1,1667.31.77Z" style="fill:#00205c"/><path d="M1769,114.56a9.88,9.88,0,1,1-10-9.82A10,10,0,0,1,1769,114.56Z" style="fill:#00205c"/><path d="M1840.08,161.18a9.89,9.89,0,1,1,9.87-10A10,10,0,0,1,1840.08,161.18Z" style="fill:#00205c"/><path d="M1730,85.73a9.88,9.88,0,1,1-9.84-10A10,10,0,0,1,1730,85.73Z" style="fill:#00205c"/><path d="M1914.14,161.92a9.9,9.9,0,1,1-10.06-9.83A10,10,0,0,1,1914.14,161.92Z" style="fill:#00205c"/><path d="M1807.08,143.52a9.79,9.79,0,1,1-9.82-9.65A10,10,0,0,1,1807.08,143.52Z" style="fill:#00205c"/><path d="M1818.54,137.61a9.86,9.86,0,1,1-9.72,9.82A10,10,0,0,1,1818.54,137.61Z" style="fill:#00205c"/><path d="M1663.6,22.34a10,10,0,0,1,9.8,9.67,9.79,9.79,0,1,1-19.57,0A10,10,0,0,1,1663.6,22.34Z" style="fill:#00205c"/><path d="M1935,162.69a10.12,10.12,0,0,0-8.83-6.73,9.86,9.86,0,1,0,8.83,12.85Z" style="fill:#00205c"/><path d="M1737.64,120.56a9.76,9.76,0,1,1,9.82-9.69A9.95,9.95,0,0,1,1737.64,120.56Z" style="fill:#00205c"/><path d="M1646.17-2.84a10,10,0,0,1,9.63,9.89,9.76,9.76,0,0,1-19.51-.26A10,10,0,0,1,1646.17-2.84Z" style="fill:#00205c"/><path d="M1690.94,57.25a9.76,9.76,0,1,1-9.84-9.67A10,10,0,0,1,1690.94,57.25Z" style="fill:#00205c"/><path d="M1698.68,72.09a9.69,9.69,0,1,1-9.61,9.86A9.87,9.87,0,0,1,1698.68,72.09Z" style="fill:#00205c"/><path d="M1786.31,139.79a9.64,9.64,0,1,1-9.78-9.6A9.78,9.78,0,0,1,1786.31,139.79Z" style="fill:#00205c"/><path d="M1642.18,37.66a9.18,9.18,0,0,1-9.31-9.49,9.36,9.36,0,0,1,18.71.08A9.19,9.19,0,0,1,1642.18,37.66Z" style="fill:#00205c"/><path d="M1716.2,116.46a9.48,9.48,0,1,1,9.6-9.26A9.37,9.37,0,0,1,1716.2,116.46Z" style="fill:#00205c"/><path d="M1669.15,53.4a9.36,9.36,0,1,1-9.57-9.24A9.18,9.18,0,0,1,1669.15,53.4Z" style="fill:#00205c"/><path d="M1921.66,196.55a9.36,9.36,0,1,1,9.5-9.3A9.19,9.19,0,0,1,1921.66,196.55Z" style="fill:#00205c"/><path d="M1909.85,183.44a9.43,9.43,0,1,1-9.37-9.49A9.3,9.3,0,0,1,1909.85,183.44Z" style="fill:#00205c"/><path d="M1879,189a9.43,9.43,0,1,1,9.51-9.35A9.31,9.31,0,0,1,1879,189Z" style="fill:#00205c"/><path d="M1857.63,166.31a9.43,9.43,0,1,1-9.42,9.44A9.28,9.28,0,0,1,1857.63,166.31Z" style="fill:#00205c"/><path d="M1845.64,171.84a9.39,9.39,0,1,1-9.47-9.31A9.22,9.22,0,0,1,1845.64,171.84Z" style="fill:#00205c"/><path d="M1755.36,145.45a9.44,9.44,0,1,1,9.35-9.52A9.3,9.3,0,0,1,1755.36,145.45Z" style="fill:#00205c"/><path d="M1624.76,12.39a9.11,9.11,0,0,1-9.4-9.28A9.3,9.3,0,0,1,1634,2.89,9.13,9.13,0,0,1,1624.76,12.39Z" style="fill:#00205c"/><path d="M1677.49,69.43a9.3,9.3,0,1,1-9.42,9.26A9.13,9.13,0,0,1,1677.49,69.43Z" style="fill:#00205c"/><path d="M1695,93.94a9.23,9.23,0,1,1-9.29,9.06A9.13,9.13,0,0,1,1695,93.94Z" style="fill:#00205c"/><path d="M1803.48,165a9.25,9.25,0,1,1-9.14-9.16A9.11,9.11,0,0,1,1803.48,165Z" style="fill:#00205c"/><path d="M1743.14,132.11A9.25,9.25,0,1,1,1734,123,9.11,9.11,0,0,1,1743.14,132.11Z" style="fill:#00205c"/><path d="M1824.19,169.18a9.33,9.33,0,1,1-9.1-9.64A9.16,9.16,0,0,1,1824.19,169.18Z" style="fill:#00205c"/><path d="M1782,161.14a9.19,9.19,0,1,1-9.28-9.1A9.15,9.15,0,0,1,1782,161.14Z" style="fill:#00205c"/><path d="M1630,24.79a9.12,9.12,0,0,1-18.23-.61,9.12,9.12,0,0,1,18.23.61Z" style="fill:#00205c"/><path d="M1721.63,128.57a9.14,9.14,0,1,1-9-9.33A9.25,9.25,0,0,1,1721.63,128.57Z" style="fill:#00205c"/><path d="M1638.26,58.83a9.14,9.14,0,1,1,9.28-9.09A9.24,9.24,0,0,1,1638.26,58.83Z" style="fill:#00205c"/><path d="M1853.94,206.22a9.09,9.09,0,1,1,9-9A9.26,9.26,0,0,1,1853.94,206.22Z" style="fill:#00205c"/><path d="M1665.09,75.09a9.12,9.12,0,1,1-8.74-9.3A9.26,9.26,0,0,1,1665.09,75.09Z" style="fill:#00205c"/><path d="M1884.3,201a9.09,9.09,0,1,1-8.89-9.1A9.25,9.25,0,0,1,1884.3,201Z" style="fill:#00205c"/><path d="M1760.55,157.33a9.09,9.09,0,1,1-9-9A9.25,9.25,0,0,1,1760.55,157.33Z" style="fill:#00205c"/><path d="M1613.09-.68a9.22,9.22,0,0,1-9,9A9.24,9.24,0,0,1,1595-.95a9.26,9.26,0,0,1,9.2-8.84A9.24,9.24,0,0,1,1613.09-.68Z" style="fill:#00205c"/><path d="M1905.67,204.79a9.07,9.07,0,1,1-9-9.09A9.25,9.25,0,0,1,1905.67,204.79Z" style="fill:#00205c"/><path d="M1832.38,184.24a9.07,9.07,0,1,1-9,9A9.26,9.26,0,0,1,1832.38,184.24Z" style="fill:#00205c"/><path d="M1673.59,108.41a9.07,9.07,0,1,1,9-9A9.24,9.24,0,0,1,1673.59,108.41Z" style="fill:#00205c"/><path d="M1799.3,185.48a8.89,8.89,0,1,1-8.88-8.7A9,9,0,0,1,1799.3,185.48Z" style="fill:#00205c"/><path d="M1820.82,189.45a9,9,0,1,1-9-9A9.18,9.18,0,0,1,1820.82,189.45Z" style="fill:#00205c"/><path d="M1909,208.29a9,9,0,1,1,8.71,9.3A9.21,9.21,0,0,1,1909,208.29Z" style="fill:#00205c"/><path d="M1700,124.55a8.89,8.89,0,1,1-8.7-8.88A9,9,0,0,1,1700,124.55Z" style="fill:#00205c"/><path d="M1729.89,144.7a8.89,8.89,0,1,1-8.7,8.87A9,9,0,0,1,1729.89,144.7Z" style="fill:#00205c"/><path d="M1609,46a8.77,8.77,0,1,1,8.8,8.65A8.75,8.75,0,0,1,1609,46Z" style="fill:#00205c"/><path d="M1769.1,191.27a8.66,8.66,0,1,1,8.59-8.73A8.51,8.51,0,0,1,1769.1,191.27Z" style="fill:#00205c"/><path d="M1644.05,71.07a8.71,8.71,0,1,1-8.72-8.69A8.59,8.59,0,0,1,1644.05,71.07Z" style="fill:#00205c"/><path d="M1608.87,20.62a8.66,8.66,0,1,1-17.32.09,8.66,8.66,0,0,1,17.32-.09Z" style="fill:#00205c"/><path d="M1660.81,95.71a8.66,8.66,0,1,1-8.48-8.84A8.53,8.53,0,0,1,1660.81,95.71Z" style="fill:#00205c"/><path d="M1708.79,158.35a8.58,8.58,0,1,1,8.47-8.79A8.42,8.42,0,0,1,1708.79,158.35Z" style="fill:#00205c"/><path d="M1661.22,120.18a8.52,8.52,0,1,1,7.76,9A8.38,8.38,0,0,1,1661.22,120.18Z" style="fill:#00205c"/><path d="M1837.06,214.82a8.45,8.45,0,1,1-8.32-8.57A8.38,8.38,0,0,1,1837.06,214.82Z" style="fill:#00205c"/><path d="M1850,227a8.47,8.47,0,1,1,8.48-8.36A8.34,8.34,0,0,1,1850,227Z" style="fill:#00205c"/><path d="M1879.86,222.28a8.47,8.47,0,1,1-8.43-8.41A8.36,8.36,0,0,1,1879.86,222.28Z" style="fill:#00205c"/><path d="M1901.22,226a8.44,8.44,0,1,1-8.61-8.28A8.37,8.37,0,0,1,1901.22,226Z" style="fill:#00205c"/><path d="M1591.16-4.59A8.36,8.36,0,0,1,1582.5,4a8.36,8.36,0,0,1-8.38-8.46,8.37,8.37,0,0,1,8.66-8.57A8.37,8.37,0,0,1,1591.16-4.59Z" style="fill:#00205c"/><path d="M1747.6,170.3a8.49,8.49,0,1,1-8.45,8.44A8.37,8.37,0,0,1,1747.6,170.3Z" style="fill:#00205c"/><path d="M1622.35,67.34a8.39,8.39,0,1,1-8.41-8.47A8.42,8.42,0,0,1,1622.35,67.34Z" style="fill:#00205c"/><path d="M1687.25,137.56a8.39,8.39,0,1,1-8.35,8.52A8.42,8.42,0,0,1,1687.25,137.56Z" style="fill:#00205c"/><path d="M1799.59,210.57a8.41,8.41,0,1,1,8.19,8.71A8.41,8.41,0,0,1,1799.59,210.57Z" style="fill:#00205c"/><path d="M1922.57,230a8.4,8.4,0,1,1-8.47-8.42A8.4,8.4,0,0,1,1922.57,230Z" style="fill:#00205c"/><path d="M1649.05,108.6a8.32,8.32,0,1,1-8.27,8.28A8.49,8.49,0,0,1,1649.05,108.6Z" style="fill:#00205c"/><path d="M1786.77,198.71a8.35,8.35,0,1,1-8.52,8.08A8.47,8.47,0,0,1,1786.77,198.71Z" style="fill:#00205c"/><path d="M1588,41.75a8.38,8.38,0,1,1,7.88,8.66A8.46,8.46,0,0,1,1588,41.75Z" style="fill:#00205c"/><path d="M1726.17,183.34a8.37,8.37,0,1,1,8.45-8.09A8.45,8.45,0,0,1,1726.17,183.34Z" style="fill:#00205c"/><path d="M1570.5,16.86a8.32,8.32,0,1,1,16.64.16,8.32,8.32,0,0,1-16.64-.16Z" style="fill:#00205c"/><path d="M1639.9,92.6a8.37,8.37,0,1,1-8.05-8.49A8.45,8.45,0,0,1,1639.9,92.6Z" style="fill:#00205c"/><path d="M1765.21,195a8.22,8.22,0,1,1-8.22,8.31A8.42,8.42,0,0,1,1765.21,195Z" style="fill:#00205c"/><path d="M1704.88,179.33a8.18,8.18,0,1,1,8.16-8A8.33,8.33,0,0,1,1704.88,179.33Z" style="fill:#00205c"/><path d="M1674,142.13a8.13,8.13,0,1,1-7.93-8.13A8.26,8.26,0,0,1,1674,142.13Z" style="fill:#00205c"/><path d="M1751.83,199.32a8,8,0,1,1-8.1-7.91A8,8,0,0,1,1751.83,199.32Z" style="fill:#00205c"/><path d="M1635.55,113a7.84,7.84,0,1,1-7.75-7.75A7.67,7.67,0,0,1,1635.55,113Z" style="fill:#00205c"/><path d="M1582.81,38.34a7.81,7.81,0,1,1-7.52-7.91A7.66,7.66,0,0,1,1582.81,38.34Z" style="fill:#00205c"/><path d="M1610.17,80.77a7.89,7.89,0,1,1-7.92,8A7.75,7.75,0,0,1,1610.17,80.77Z" style="fill:#00205c"/><path d="M1683.44,175.1a7.77,7.77,0,1,1,7.8-7.64A7.58,7.58,0,0,1,1683.44,175.1Z" style="fill:#00205c"/><path d="M1910.22,243.59a7.77,7.77,0,1,1-7.64,7.81A7.59,7.59,0,0,1,1910.22,243.59Z" style="fill:#00205c"/><path d="M1889.13,255.35a7.81,7.81,0,1,1,7.64-7.79A7.63,7.63,0,0,1,1889.13,255.35Z" style="fill:#00205c"/><path d="M1557.54,20.74a7.58,7.58,0,0,1-7.82-7.6,7.71,7.71,0,0,1,15.42-.23A7.58,7.58,0,0,1,1557.54,20.74Z" style="fill:#00205c"/><path d="M1867.62,251.57a7.85,7.85,0,1,1,7.8-7.7A7.68,7.68,0,0,1,1867.62,251.57Z" style="fill:#00205c"/><path d="M1854,239.73a7.85,7.85,0,1,1-7.83-7.67A7.69,7.69,0,0,1,1854,239.73Z" style="fill:#00205c"/><path d="M1825.49,243.89a7.81,7.81,0,1,1,7.87-7.55A7.64,7.64,0,0,1,1825.49,243.89Z" style="fill:#00205c"/><path d="M1722.46,204.07a7.71,7.71,0,1,1,7.68-7.73A7.57,7.57,0,0,1,1722.46,204.07Z" style="fill:#00205c"/><path d="M1811.91,232.14a7.74,7.74,0,1,1-7.77-7.61A7.58,7.58,0,0,1,1811.91,232.14Z" style="fill:#00205c"/><path d="M1600.46,63.62a7.89,7.89,0,1,1-7.81-8.06A7.78,7.78,0,0,1,1600.46,63.62Z" style="fill:#00205c"/><path d="M1645.15,130.6a7.71,7.71,0,1,1-7.58,7.84A7.56,7.56,0,0,1,1645.15,130.6Z" style="fill:#00205c"/><path d="M1769,224.81a7.6,7.6,0,1,1-7.32-7.78A7.71,7.71,0,0,1,1769,224.81Z" style="fill:#00205c"/><path d="M1782.89,220.78a7.67,7.67,0,1,1-7.77,7.65A7.61,7.61,0,0,1,1782.89,220.78Z" style="fill:#00205c"/><path d="M1588.7,92.38a7.55,7.55,0,1,1,7.6-7.5A7.73,7.73,0,0,1,1588.7,92.38Z" style="fill:#00205c"/><path d="M1700.87,185a7.58,7.58,0,1,1-7.4,7.65A7.74,7.74,0,0,1,1700.87,185Z" style="fill:#00205c"/><path d="M1662.84,155.94a7.58,7.58,0,1,1-7.57,7.49A7.73,7.73,0,0,1,1662.84,155.94Z" style="fill:#00205c"/><path d="M1606.61,101.77a7.51,7.51,0,1,1-7.8,7.31A7.71,7.71,0,0,1,1606.61,101.77Z" style="fill:#00205c"/><path d="M1623.85,127.11a7.38,7.38,0,1,1-7.34,7.33A7.51,7.51,0,0,1,1623.85,127.11Z" style="fill:#00205c"/><path d="M1553.77,27a7.38,7.38,0,1,1-7.53,7.12A7.52,7.52,0,0,1,1553.77,27Z" style="fill:#00205c"/><path d="M1571.16,52.11a7.52,7.52,0,1,1-7.49,7.63A7.71,7.71,0,0,1,1571.16,52.11Z" style="fill:#00205c"/><path d="M1747.43,220.7a7.43,7.43,0,1,1-7.35-7.32A7.62,7.62,0,0,1,1747.43,220.7Z" style="fill:#00205c"/><path d="M1686.82,188.59a7.17,7.17,0,1,1-7.39-7A7,7,0,0,1,1686.82,188.59Z" style="fill:#00205c"/><path d="M1913.6,272.78a7.07,7.07,0,1,1-6.85-7.1A6.92,6.92,0,0,1,1913.6,272.78Z" style="fill:#00205c"/><path d="M1641.37,152.58a7.12,7.12,0,1,1-7,7A7,7,0,0,1,1641.37,152.58Z" style="fill:#00205c"/><path d="M1800.36,260.68a7,7,0,1,1,7-6.94A6.86,6.86,0,0,1,1800.36,260.68Z" style="fill:#00205c"/><path d="M1828.86,257.45a7.12,7.12,0,1,1-7-7.09A7,7,0,0,1,1828.86,257.45Z" style="fill:#00205c"/><path d="M1536.2,16.28a6.93,6.93,0,0,1-7.23-7.1,7.07,7.07,0,1,1,14.14.06A6.9,6.9,0,0,1,1536.2,16.28Z" style="fill:#00205c"/><path d="M1842.35,268.46a7.17,7.17,0,1,1,7.18-7.25A7,7,0,0,1,1842.35,268.46Z" style="fill:#00205c"/><path d="M1725.68,217.05a7.07,7.07,0,1,1-6.81-7.13A6.93,6.93,0,0,1,1725.68,217.05Z" style="fill:#00205c"/><path d="M1863.73,272.28a7.17,7.17,0,1,1,7.19-7.24A7.05,7.05,0,0,1,1863.73,272.28Z" style="fill:#00205c"/><path d="M1885.17,276.05a7.12,7.12,0,1,1,7.09-6.95A7,7,0,0,1,1885.17,276.05Z" style="fill:#00205c"/><path d="M1556.67,55.7a6.88,6.88,0,1,1-6.8-6.77A6.91,6.91,0,0,1,1556.67,55.7Z" style="fill:#00205c"/><path d="M1591.83,106.23a6.9,6.9,0,1,1-7-6.91A6.85,6.85,0,0,1,1591.83,106.23Z" style="fill:#00205c"/><path d="M1665.91,184.84a6.88,6.88,0,1,1-6.75-6.82A6.91,6.91,0,0,1,1665.91,184.84Z" style="fill:#00205c"/><path d="M1757.61,239.16a6.86,6.86,0,1,1-6.9,6.73A6.92,6.92,0,0,1,1757.61,239.16Z" style="fill:#00205c"/><path d="M1779.13,242.91a6.93,6.93,0,1,1-7.1,6.85A6.86,6.86,0,0,1,1779.13,242.91Z" style="fill:#00205c"/><path d="M1574.26,80.93a6.9,6.9,0,1,1-7.08-6.82A6.85,6.85,0,0,1,1574.26,80.93Z" style="fill:#00205c"/><path d="M1602.46,137.55a6.88,6.88,0,1,1,6.92-6.65A6.9,6.9,0,0,1,1602.46,137.55Z" style="fill:#00205c"/><path d="M1704.08,213.47a6.86,6.86,0,1,1-6.46-7.15A6.94,6.94,0,0,1,1704.08,213.47Z" style="fill:#00205c"/><path d="M1539,30.68a6.77,6.77,0,1,1-13.53-.35,6.77,6.77,0,0,1,13.53.35Z" style="fill:#00205c"/><path d="M1620.19,162.64a6.77,6.77,0,1,1,6.65-7A6.93,6.93,0,0,1,1620.19,162.64Z" style="fill:#00205c"/><path d="M1742.87,242.26a6.69,6.69,0,1,1-6.43-6.75A6.89,6.89,0,0,1,1742.87,242.26Z" style="fill:#00205c"/><path d="M1683.08,210.18a6.49,6.49,0,1,1-6.51-6.55A6.49,6.49,0,0,1,1683.08,210.18Z" style="fill:#00205c"/><path d="M1631.24,181.21a6.4,6.4,0,1,1,6.33,6.28A6.35,6.35,0,0,1,1631.24,181.21Z" style="fill:#00205c"/><path d="M1714.8,232.08a6.3,6.3,0,1,1-6.3,6.2A6.16,6.16,0,0,1,1714.8,232.08Z" style="fill:#00205c"/><path d="M1587.36,127a6.25,6.25,0,1,1-6.13-6.37A6.09,6.09,0,0,1,1587.36,127Z" style="fill:#00205c"/><path d="M1545.81,71a6.25,6.25,0,1,1-6.08,6.41A6.11,6.11,0,0,1,1545.81,71Z" style="fill:#00205c"/><path d="M1521.06,5.37a6.41,6.41,0,1,1-12.81,0,6.41,6.41,0,0,1,12.81,0Z" style="fill:#00205c"/><path d="M1824.21,278.94a6.29,6.29,0,1,1-6.12-6.37A6.16,6.16,0,0,1,1824.21,278.94Z" style="fill:#00205c"/><path d="M1845.65,282.86a6.34,6.34,0,1,1-6-6.51A6.24,6.24,0,0,1,1845.65,282.86Z" style="fill:#00205c"/><path d="M1563.52,108.7a6.3,6.3,0,1,1,6.31-6.18A6.16,6.16,0,0,1,1563.52,108.7Z" style="fill:#00205c"/><path d="M1860.11,292.84a6.34,6.34,0,1,1,6.16-6.32A6.23,6.23,0,0,1,1860.11,292.84Z" style="fill:#00205c"/><path d="M1887.66,289.64a6.34,6.34,0,1,1-6.07-6.42A6.24,6.24,0,0,1,1887.66,289.64Z" style="fill:#00205c"/><path d="M1909,293.21a6.25,6.25,0,1,1-6.41-6.08A6.11,6.11,0,0,1,1909,293.21Z" style="fill:#00205c"/><path d="M1687.34,234.26a6.07,6.07,0,1,1,5.77,6.36A6.19,6.19,0,0,1,1687.34,234.26Z" style="fill:#00205c"/><path d="M1781.26,271.08a6.12,6.12,0,1,1-6.17-6A6.1,6.1,0,0,1,1781.26,271.08Z" style="fill:#00205c"/><path d="M1598.5,145.88a6.18,6.18,0,1,1-6,6.46A6.07,6.07,0,0,1,1598.5,145.88Z" style="fill:#00205c"/><path d="M1796.69,281.25a6.21,6.21,0,1,1,6-6.46A6.07,6.07,0,0,1,1796.69,281.25Z" style="fill:#00205c"/><path d="M1528.37,45.84a6.15,6.15,0,1,1-6.11,6A6.08,6.08,0,0,1,1528.37,45.84Z" style="fill:#00205c"/><path d="M1655.36,200.18a6.12,6.12,0,1,1-6.27,5.87A6.11,6.11,0,0,1,1655.36,200.18Z" style="fill:#00205c"/><path d="M1924.25,303.34a6.15,6.15,0,1,1,6-6.1A6.06,6.06,0,0,1,1924.25,303.34Z" style="fill:#00205c"/><path d="M1610.22,177.08a6,6,0,1,1,5.94,6.21A6.2,6.2,0,0,1,1610.22,177.08Z" style="fill:#00205c"/><path d="M1753.71,273.39a6,6,0,1,1,6-5.75A6.18,6.18,0,0,1,1753.71,273.39Z" style="fill:#00205c"/><path d="M1511,20.75a6.2,6.2,0,0,1,5.89,6.26,6,6,0,0,1-12.06-.28A6.2,6.2,0,0,1,1511,20.75Z" style="fill:#00205c"/><path d="M1732.4,269.31a5.73,5.73,0,1,1,5.69-5.86A5.73,5.73,0,0,1,1732.4,269.31Z" style="fill:#00205c"/><path d="M1678.41,230.84a5.63,5.63,0,1,1-5.34-5.73A5.55,5.55,0,0,1,1678.41,230.84Z" style="fill:#00205c"/><path d="M1559.83,117.4a5.63,5.63,0,1,1-5.74,5.34A5.53,5.53,0,0,1,1559.83,117.4Z" style="fill:#00205c"/><path d="M1547.78,98.4a5.63,5.63,0,1,1-5.62-5.45A5.53,5.53,0,0,1,1547.78,98.4Z" style="fill:#00205c"/><path d="M1633.73,208a5.57,5.57,0,1,1,5.65-5.38A5.4,5.4,0,0,1,1633.73,208Z" style="fill:#00205c"/><path d="M1493.18,7.9a5.4,5.4,0,0,1-5.48-5.55,5.57,5.57,0,1,1,11.13.16A5.42,5.42,0,0,1,1493.18,7.9Z" style="fill:#00205c"/><path d="M1524.41,67.87a5.51,5.51,0,1,1-5.33,5.68A5.35,5.35,0,0,1,1524.41,67.87Z" style="fill:#00205c"/><path d="M1582.8,148.39a5.51,5.51,0,1,1-5.36-5.66A5.34,5.34,0,0,1,1582.8,148.39Z" style="fill:#00205c"/><path d="M1882.89,311.14a5.39,5.39,0,1,1-5-5.57A5.33,5.33,0,0,1,1882.89,311.14Z" style="fill:#00205c"/><path d="M1840.91,303.35a5.42,5.42,0,1,1-5.19-5.46A5.33,5.33,0,0,1,1840.91,303.35Z" style="fill:#00205c"/><path d="M1856.05,301.7a5.43,5.43,0,1,1-5.36,5.3A5.34,5.34,0,0,1,1856.05,301.7Z" style="fill:#00205c"/><path d="M1716.36,259.8a5.39,5.39,0,1,1-5.16-5.42A5.33,5.33,0,0,1,1716.36,259.8Z" style="fill:#00205c"/><path d="M1904.22,314.64a5.33,5.33,0,1,1-5.46-5.2A5.42,5.42,0,0,1,1904.22,314.64Z" style="fill:#00205c"/><path d="M1819.45,300.27a5.35,5.35,0,1,1-5.24-5.37A5.36,5.36,0,0,1,1819.45,300.27Z" style="fill:#00205c"/><path d="M1594.8,168.09a5.36,5.36,0,1,1-5.29,5.32A5.38,5.38,0,0,1,1594.8,168.09Z" style="fill:#00205c"/><path d="M1512.37,48.11a5.36,5.36,0,1,1-5.32-5.3A5.37,5.37,0,0,1,1512.37,48.11Z" style="fill:#00205c"/><path d="M1792.64,291.14a5.42,5.42,0,0,1,5.36,5.32,5.3,5.3,0,0,1-5.41,5.23,5.11,5.11,0,0,1-5.14-5.09A5.32,5.32,0,0,1,1792.64,291.14Z" style="fill:#00205c"/><path d="M1612.53,193.52a5.14,5.14,0,1,1-5.23,5A5.28,5.28,0,0,1,1612.53,193.52Z" style="fill:#00205c"/><path d="M1925.47,318.58a5.19,5.19,0,1,1-5.1-5.19A5.35,5.35,0,0,1,1925.47,318.58Z" style="fill:#00205c"/><path d="M1771.42,297.75a5.14,5.14,0,1,1,5-5.23A5.26,5.26,0,0,1,1771.42,297.75Z" style="fill:#00205c"/><path d="M1656.64,227.1a5.25,5.25,0,1,1-4.88-5.42A5.44,5.44,0,0,1,1656.64,227.1Z" style="fill:#00205c"/><path d="M1489.26,17.9a5.17,5.17,0,0,1,5.25,5,5.06,5.06,0,0,1-5.07,5.12,4.9,4.9,0,0,1-5-4.75A5.07,5.07,0,0,1,1489.26,17.9Z" style="fill:#00205c"/><path d="M1690.24,261a5.17,5.17,0,0,1-5-5.27,5.05,5.05,0,0,1,5.35-4.82,4.89,4.89,0,0,1,4.74,5A5.06,5.06,0,0,1,1690.24,261Z" style="fill:#00205c"/><path d="M1538.27,115.16c3,.22,4.78,1.72,4.81,4.75s-1.67,4.77-4.68,4.8-4.76-1.66-4.81-4.67S1535.31,115.46,1538.27,115.16Z" style="fill:#00205c"/><path d="M1560.72,144.49c-.3,3-1.86,4.72-4.88,4.67s-4.72-1.81-4.68-4.81,1.81-4.7,4.81-4.68S1560.49,141.53,1560.72,144.49Z" style="fill:#00205c"/><path d="M1754.77,288.66c-.32,3.16-1.88,4.93-4.9,4.88s-4.72-1.81-4.68-4.81,1.8-4.69,4.8-4.68S1754.47,285.94,1754.77,288.66Z" style="fill:#00205c"/><path d="M1634.67,223.63c-.35,3-1.77,4.78-4.65,4.78a4.18,4.18,0,0,1-4.56-4.52c0-2.85,1.67-4.53,4.52-4.58S1634.23,221.13,1634.67,223.63Z" style="fill:#00205c"/><path d="M1525.55,94.51c-.29,3.19-1.8,5-4.85,4.94s-4.68-1.83-4.62-4.84c.06-2.83,1.73-4.46,4.56-4.54C1523.72,90,1525.15,91.85,1525.55,94.51Z" style="fill:#00205c"/><path d="M1477.3-1.95c-.24,3.08-1.61,4.91-4.48,5a4.19,4.19,0,0,1-4.72-4.37c-.12-2.84,1.52-4.58,4.36-4.72S1476.76-4.35,1477.3-1.95Z" style="fill:#00205c"/><path d="M1578.11,170a4.33,4.33,0,0,1-4.43,4.25,4.43,4.43,0,0,1-4.81-4.68c.14-2.85,1.74-4.43,4.59-4.53C1576,164.93,1578,166.94,1578.11,170Z" style="fill:#00205c"/><path d="M1673.6,252.08c-.3,2.79-1.72,4.58-4.59,4.59a4.55,4.55,0,0,1-.1-9.09C1671.79,247.54,1673.24,249.3,1673.6,252.08Z" style="fill:#00205c"/><path d="M1502.82,74.22c-2.69-.47-4.28-2-4.23-4.87a4.46,4.46,0,0,1,5.09-4.38c2.83.39,4.32,2.16,4.09,5S1505.69,74.12,1502.82,74.22Z" style="fill:#00205c"/><path d="M1485.4,49.35c-1.13-1.7-3-3.3-3.23-5.12-.33-2.53,1.67-4.27,4.31-4.21s4.58,1.87,4.13,4.39c-.32,1.81-2.24,3.33-3.45,5Z" style="fill:#00205c"/><path d="M1596,195.83c-1.7,1.13-3.3,3-5.12,3.22-2.53.34-4.27-1.67-4.21-4.31s1.87-4.58,4.4-4.13c1.8.33,3.32,2.24,5,3.45Z" style="fill:#00205c"/><path d="M1733.18,284.77c-.39,3-1.85,4.78-4.72,4.71a4.51,4.51,0,0,1,0-9C1731.33,280.41,1732.71,282.25,1733.18,284.77Z" style="fill:#00205c"/><path d="M1836.46,325.79c-1.7,1-3.5,3-5.08,2.83s-3.48-2.48-3.72-4.09a3.42,3.42,0,0,1,4.3-3.87c1.68.35,3,2.2,4.54,3.38C1836.49,324.63,1836.48,325.21,1836.46,325.79Z" style="fill:#00205c"/><path d="M1707.67,275.24c2,2.57,3.91,3.92,4.28,5.6.57,2.55-1.21,4.36-3.87,4.47s-4.57-1.57-4.21-4.15C1704.1,279.46,1705.84,278,1707.67,275.24Z" style="fill:#00205c"/><path d="M1857.9,329.37c-1.65,1.12-3.35,3.16-4.94,3.08-1.43-.07-3.59-2.3-3.92-3.89a3.42,3.42,0,0,1,4.1-4.09c1.69.27,3.15,2,4.71,3.14C1857.87,328.2,1857.89,328.78,1857.9,329.37Z" style="fill:#00205c"/><path d="M1648.5,252.86c-3.45-.8-5.28-2.22-4.68-4.67a5.89,5.89,0,0,1,3.76-3.64c2.46-.51,4.23,1.4,3.78,3.89C1651.08,250,1649.5,251.4,1648.5,252.86Z" style="fill:#00205c"/><path d="M1473.33,20c-1.45,1-2.79,2.64-4.37,2.92a3.12,3.12,0,0,1-3.84-3.81,5.57,5.57,0,0,1,3.75-3.55c1.36-.16,3,1.69,4.44,2.66C1473.31,18.76,1473.32,19.36,1473.33,20Z" style="fill:#00205c"/><path d="M1790.2,312.6c.87,1.65,2.58,3.44,2.34,4.92s-2.46,3.1-4,3.29c-2.52.3-4.08-1.8-3.44-4.22.41-1.56,2.13-2.77,3.26-4.14Z" style="fill:#00205c"/><path d="M1809.48,325.58c-1.09-1.54-2.8-3-3.12-4.64-.47-2.45,1.27-4.05,3.84-4.1s4.37,1.46,4,3.93c-.26,1.7-1.9,3.2-2.92,4.78Z" style="fill:#00205c"/><path d="M1874.56,327.64c1.06,1.56,2.75,3,3,4.7.43,2.45-1.34,4-3.9,4s-4.35-1.52-4-4c.27-1.7,1.94-3.17,3-4.74Z" style="fill:#00205c"/><path d="M1893.76,340.62c-.86-1.66-2.58-3.45-2.34-4.92s2.46-3.11,4-3.29c2.51-.31,4.07,1.8,3.43,4.21-.41,1.56-2.13,2.78-3.26,4.15Z" style="fill:#00205c"/><path d="M1609.67,215.65c.92,1.52,2.74,3.18,2.52,4.51s-2.45,3.48-3.72,3.43-3.31-2.3-3.44-3.72,1.83-2.85,2.87-4.29Z" style="fill:#00205c"/><path d="M1533.71,145.05c-1-1.46-2.92-3-2.77-4.35s2.23-3.62,3.5-3.65,3.45,2.1,3.66,3.51-1.66,2.95-2.61,4.45Z" style="fill:#00205c"/><path d="M1521.38,117.05c-1.48,1-3.08,2.86-4.41,2.68s-2.58-2.3-3.85-3.58c1.28-1.27,2.44-3.39,3.86-3.58s2.92,1.71,4.4,2.69Z" style="fill:#00205c"/><path d="M1917.52,335.65c.91,1.53,2.73,3.25,2.48,4.54s-2.45,3.15-3.93,3.3c-1,.09-3.15-2.31-3.15-3.6s1.84-2.89,2.88-4.33Z" style="fill:#00205c"/><path d="M1767.76,319.29c-1.86-2.33-3.92-3.83-3.74-5,.23-1.49,2.25-2.71,3.5-4,1.24,1.22,3.3,2.33,3.48,3.69S1769.37,316.8,1767.76,319.29Z" style="fill:#00205c"/><path d="M1557.37,165.55c-2.33,1.85-3.83,3.92-5,3.74-1.49-.23-2.7-2.25-4-3.5,1.22-1.24,2.33-3.3,3.69-3.48S1554.88,163.94,1557.37,165.55Z" style="fill:#00205c"/><path d="M1505.44,91c-2.44,1.72-4,3.69-5.19,3.44-1.48-.32-2.58-2.39-3.84-3.71,1.28-1.17,2.51-3.16,3.88-3.27S1503,89.24,1505.44,91Z" style="fill:#00205c"/><path d="M1691.83,277.45c-2.46,1.68-4.09,3.63-5.23,3.37-1.47-.33-2.55-2.42-3.8-3.75,1.3-1.16,2.55-3.14,3.92-3.23S1689.44,275.66,1691.83,277.45Z" style="fill:#00205c"/><path d="M1487.42,66c-2.29,1.48-3.86,3.24-4.88,3-1.35-.37-2.28-2.32-3.39-3.6,1.23-1,2.45-2.81,3.71-2.84S1485.31,64.29,1487.42,66Z" style="fill:#00205c"/><path d="M1751,310.17c-2.42,1.6-3.84,3.26-5,3.08a4.7,4.7,0,0,1-3-3.28c-.14-.85,1.87-2.83,3-2.87C1747.28,307.05,1748.6,308.58,1751,310.17Z" style="fill:#00205c"/><path d="M1574.57,190.9c-2.39,1.65-3.76,3.33-4.9,3.19a4.7,4.7,0,0,1-3.08-3.22c-.16-.85,1.8-2.87,2.9-2.94C1570.75,187.86,1572.11,189.36,1574.57,190.9Z" style="fill:#00205c"/><path d="M1630.72,244.66c-2.17,1.4-3.58,3-4.51,2.75-1.25-.33-2.12-2.09-3.15-3.23,1.11-.94,2.19-2.56,3.34-2.62S1628.67,243.1,1630.72,244.66Z" style="fill:#00205c"/><path d="M1665,277.88c-1.34-2.14-2.75-3.41-2.67-4.58.06-1,2.09-2.79,2.79-2.59a4.65,4.65,0,0,1,2.84,3.07C1668.11,274.7,1666.5,275.91,1665,277.88Z" style="fill:#00205c"/><path d="M1464.87,36.27c1.45,2,3,3.12,2.88,4.14s-1.68,2.81-2.66,2.84-2.68-1.58-2.84-2.65S1463.54,38.33,1464.87,36.27Z" style="fill:#00205c"/><path d="M1729,306.5c-2.06,1.32-3.31,2.76-4.33,2.61s-1.92-1.83-2.86-2.85c1-.94,2-2.55,3-2.64S1727,305.05,1729,306.5Z" style="fill:#00205c"/><path d="M1587.29,220.38c-1.38-2-2.85-3.19-2.71-4.17a4.1,4.1,0,0,1,2.82-2.63c.7-.14,2.45,1.58,2.48,2.51C1589.92,217.19,1588.61,218.33,1587.29,220.38Z" style="fill:#00205c"/><path d="M1531.19,158.56c1.24,1.52,2.53,2.4,2.5,3.24s-1.31,1.72-2,2.57c-.85-.73-2.24-1.36-2.41-2.23S1530.19,160.26,1531.19,158.56Z" style="fill:#00205c"/><path d="M1496.28,109c1.11,1.63,2.3,2.62,2.19,3.41a3.42,3.42,0,0,1-2.35,2.1c-.53.12-2-1.3-2-2C1494.16,111.54,1495.21,110.62,1496.28,109Z" style="fill:#00205c"/><path d="M1707.46,302.3c-1.56,1.21-2.47,2.46-3.27,2.39a3.38,3.38,0,0,1-2.24-2.21c-.15-.54,1.17-2.05,1.9-2.09C1704.76,300.33,1705.74,301.32,1707.46,302.3Z" style="fill:#00205c"/><path d="M1513.68,140.18c-1-1.51-2.31-2.6-2.13-3.32.26-1,1.6-1.73,2.48-2.58.79.95,2,1.82,2.19,2.86C1516.32,137.86,1514.9,138.8,1513.68,140.18Z" style="fill:#00205c"/><path d="M1873,354c-1.44.9-2.52,2-3.11,1.84-.91-.32-1.47-1.58-2.18-2.44.82-.63,1.65-1.74,2.47-1.73S1871.66,352.84,1873,354Z" style="fill:#00205c"/><path d="M1827.74,343c1.07,1.34,2.34,2.28,2.19,2.9-.22.93-1.42,1.63-2.2,2.42-.7-.75-1.89-1.45-2-2.26S1826.77,344.39,1827.74,343Z" style="fill:#00205c"/><path d="M1852.34,349.73c-1.33,1.11-2.25,2.39-2.86,2.26-.94-.21-1.66-1.39-2.47-2.16.74-.72,1.42-1.92,2.23-2S1850.92,348.79,1852.34,349.73Z" style="fill:#00205c"/><path d="M-14.11,1144.52v51H133.62l-3-4.06,4.54-3.35,3.32,4.74-4.08,2.67h17.33l-.25-.33,4.56-3.15,2.63,3.48h17.81l.82-.6.45.6h64.83l-4.82-6.84,7.91-5.84,6,8.48-7,4.2h15.94l-2.23-3.06,8.91-6.5,5.12,8.6c-.4.31-.84.64-1.28,1H281l7.79-6.2a12.79,12.79,0,0,0,2.59,6.2H306.5a9.66,9.66,0,0,0,2.12-3.61c1.4-4.52-.36-9.89-4.66-11.75a13.45,13.45,0,0,0-8.36-.73c-2.48.69-4.46,3.17-6.75,4.94-.8-5.32-3.77-9.07-9.43-9.74s-9.27,2.56-11.64,7.94c-.57-6.33-1.56-7.91-7.14-11.86,7-1.87,10.23-4.94,10.64-10.2.35-4.41-2.4-9.29-6.76-10.41a14.16,14.16,0,0,0-8.38.44c-2.37,1-4.09,3.57-6,5.36-.59-5.09-1.72-6.81-7-10.43.82-.19,1.54-.32,2.24-.52,4.77-1.35,8-4.89,8.42-9.29.46-4.56-2.15-8.79-6.72-11-.56-.26-1.1-.58-1.65-.87l.12.08c-5.76-.36-10.17,1.7-12.84,8-.26-5.68-2.59-9.18-7.82-11.66,6.22-.56,9.57-3.73,11.43-8.65l-.09.15c.37-5.27-1.24-9.57-6.23-12-5.4-2.62-10.52-.43-14.3,5.38l-5.56-9.74c3.81-.9,6.62-3.6,8.29-7.54.69-6.41-1.77-11-6.88-12.84-5.37-1.93-9.75.15-14.11,6.87,0-5.38-2.77-8.83-7.52-11.28l2.65-.67c5.18-1.38,8.52-5.51,8.4-10.39a10.51,10.51,0,0,0-8.38-10c-4.73-1.06-9.16,1.2-11.64,5.86a15.07,15.07,0,0,1-1.72,2.14,10,10,0,0,0-6.24-11.47c-5.39-2.18-10.27,0-14.14,6.16-.71-1.89-1.13-4.23-2.36-6s-3.33-3.18-5.16-4.84c.89-.21,1.75-.38,2.59-.6a10.32,10.32,0,0,0-.35-20.2c-4.8-1-9.28,1.29-11.57,5.91a20.09,20.09,0,0,1-1.46,2.25c.27-5.89-2-10.37-6.85-11.56a15.62,15.62,0,0,0-8.39.59c-2.57.87-4.71,3-6,3.85-.26-3.08-2.38-7-7.58-8.62-5.52-1.71-9.42.91-12.8,5.32-1.37-5.49-4.37-9.12-9.85-9.63a10.39,10.39,0,0,0-10.87,6.36l-5.91-9.85c6-2.2,8.88-5.82,8.54-11a10.28,10.28,0,0,0-7.69-9.37c-4.55-1.14-9.57.59-11.39,4.75a13.89,13.89,0,0,0-.87,8.37c.63,2.49,3,4.54,4.12,6l-8.42,6.64-5.86-9.28c6-2,9-5.7,8.67-11a10.29,10.29,0,0,0-19.53-3.83c-2.38,4.92-.82,9.55,4,13.52-3.08,2.44-6.33,5-9.28,7.32-.69-4.58-3.6-8.58-9.4-9.33-5.59-.73-9.34,2.34-11.88,7.84-.47-6.3-3.18-10.42-8.94-11.5-5.92-1.1-9.78,2.11-12.4,7.69-.22-1.29-.32-2-.49-2.77a11,11,0,0,0-5.6-7.7v18.78a10.55,10.55,0,0,0,5.18-5.69l5.21,9.54-7.8,5.91-2.59-3.42v12l1.69-1.35,5.05,7.82-6.74,4.66v13c.82,1.23,1.64,2.49,2.47,3.74l-2.47,1.52v85.77l3.86-2.78c.94,1.43,1.8,2.74,2.76,4.18l-4,2.77Zm23.59,6.29L7.23,1148l3.32-2.53,2.08,3.13Zm4-20.34-3.29-4.19,4.11-3.26,3.21,4.84Zm3.21-20.38L12.86,1105l5.38-4c1.14,1.72,2.35,3.52,3.72,5.57Zm3.7-20.71L16,1083.47l6.15-4.44,4.33,6.27Zm10.31,65.37-2.28-3.15,3.6-2.92,2.54,3.44Zm3.54-20.55-3.14-3.81,4.69-3.49c1,1.55,1.76,2.83,2.6,4.17Zm3.88-20.29c-1.19-1.62-2.37-3.23-3.72-5.09l5.23-4,3.66,5.51Zm-.55-26.57,6-4.49,4.24,6.25-6.08,4Zm11,92.07c-.84-1.09-1.58-2.06-2.46-3.18l3.29-2.15,2.15,3.11Zm3.57-20.86-2.8-3.69,3.9-2.87,2.83,3.92Zm3.66-20.72-2.68-3.93,4-3.21,2.83,4.28C58.48,1136,57.15,1136.87,55.74,1137.83Zm3.72-20.07c-1.18-1.64-2.35-3.28-3.68-5.12l5.29-3.91,3.73,5.53ZM59,1091.12l5.91-4.43,4.36,6.25-6.1,4Zm10.8,92.37-2.38-3.26c1.1-.85,2.13-1.66,3.36-2.6l2.32,3.35Zm3.73-21c-1-1.3-1.88-2.49-2.89-3.83l4-3.05,2.92,4.31Zm3.57-20.72c-.92-1.38-1.81-2.69-2.75-4.09l4.44-3.59c1.15,1.59,2.1,2.91,3.17,4.41Zm3.61-20.47-3.7-4.79,5.49-4.09,3.37,5ZM80.34,1095l6.07-4.54c1.49,2.15,3,4.31,4.4,6.39L84.6,1101C83.3,1099.12,81.87,1097.12,80.34,1095Zm10.85,92.52-2.6-3.6,3.58-2.69,2.71,3.74Zm3.68-20.86-3.05-4.12,4.27-3.25,3,4.51Zm3.7-20.9-3.52-4.8,5-3.71,3.54,5.18C102,1143.48,100.35,1144.55,98.57,1145.74Zm3.63-20.61L98.82,1120l5.08-3.94,3.56,5.33Zm-.67-26.41,6.31-4.57c1.57,2.25,3.08,4.39,4.55,6.49l-6.47,4.35Zm11.08,93c-1-1.35-2-2.62-3-4l4.1-3,2.86,4.23C115.23,1189.85,114,1190.68,112.61,1191.67Zm3.62-20.9-3.29-4.45,4.63-3.51c1.15,1.68,2.15,3.13,3.32,4.82Zm3.68-20.91-3.63-5.12,5.19-3.92,3.8,5.52Zm3.68-20.7-3.59-5.4,5-3.85,4.13,5.31Zm3.28-21.2c-1.41-1.78-2.83-3.6-4.26-5.42l6.23-4.28,3.84,5.71Zm-1.32-27.06,6.94-5.33,5.16,7.83-6.82,4.1C129,1085.21,127.14,1082.88,125.55,1080.9Zm12.07,94.18L134,1170c1.44-1,2.87-2,4.52-3.15l3.72,4.9Zm3.43-21.57c-1.22-1.6-2.45-3.19-3.84-5l5.19-3.55,4,5.32Zm3.72-20.84-4.48-5.86,5.76-4.36,4.62,6.6Zm3.1-20.21c-1.29-2-2.73-4.17-4.18-6.38l6.38-5,4.14,6.83Zm-1.56-27.63,7.63-5.75,5.32,8.12-7.66,5Zm12.3,93.91-3.91-5.18,5-3.81c1.43,2,2.82,3.84,4.22,5.73Zm3.2-20.38-4.15-6.06,5.93-4.49,4.46,6.37Zm3.66-21-4.54-6.56,6.6-4.91,4.86,6.91Zm13.94,46.24-4.18-6.13c2-1.48,3.91-2.9,5.91-4.4l4.52,6.28Zm3.67-21.08-4.5-6.48,6.56-4.79,4.75,6.79Zm3.81-20.91c-1.59-2.27-3.36-4.81-4.95-7.1l7.12-5.32,5,7.56Zm-1.8-28.52,7.86-5.92,5.63,8.43-8.06,5Zm15.56,74.78-4.53-6.58,6.59-4.89,4.88,6.88Zm3.78-21-4.88-7.06,7.07-5.31c1.68,2.47,3.46,5.11,5.13,7.56ZM222,1192.19,217,1185l7.2-5.47,5.2,7.71Zm3.7-21-5.36-7.62,7.82-5.73c1.68,2.46,3.75,5.52,5.62,8.28Zm24.39-10.45a10.81,10.81,0,0,0,6.64,8.93l-9.83,5.88c-1.76-2.54-4-5.72-5.68-8.19ZM231.92,1136l6.31,8.82-8.89,5.37-5.67-8.09Zm-17.06-25.67a10.92,10.92,0,0,0,6.38,8.86l-9.4,5.73-5.81-8.05Zm-4.34,22.23c1.7,2.5,3.73,5.5,5.59,8.26l-8,5-5.33-7.49Zm-13.65-46.73,5.14,8.66-7.9,5.68-4.82-7.9Zm-17.67-28.23c.64,2.3.83,4.9,2.07,6.83,1.48,2.33,3.85,4.09,5.63,5.87a11.1,11.1,0,0,0-9.93,5.91l-6.87-9.57C174.32,1065.66,178.65,1063.65,179.2,1057.58Zm-3.64,24.84,4.68,8.19-7.41,5.36-5.49-7.33Zm-3.92,21.91,5.09,7.24-7.55,5-4.36-6.64Zm-13.77-47.15,6,8.82-8.7,5.49c-1.77-2.52-3.93-5.58-5.77-8.18Zm-17.4-28.1c1,5.11,2.23,10.12,8.43,11.92-5.2.29-9.09,2.51-11,6.32l-6.84-9.81C135.38,1037,139,1034.25,140.47,1029.08Zm-4,24.36c1.62,2.53,3.71,5.78,5.63,8.79l-8.14,5-5.64-7.69Zm-17-26.17a10.85,10.85,0,0,0,6.61,9.5l-9.27,5c-1.9-2.33-4.21-5.16-6.15-7.52Zm-4.23,23.45,5.38,7.47-7.5,4.5c-1.75-2.26-3.7-4.76-5.46-7Zm-4,22c1.63,2.24,3.32,4.56,5,6.86l-6.58,4.64-5-7Zm-13.57-47.51c1.87,2.45,4.16,5.42,6.16,8l-8.16,5.56-6.11-8.47Zm-3.31,21c1.59,2.47,3.48,5.43,5.24,8.16l-7.66,5-5.43-7.4Zm-4,22.18c1.51,2.28,3.13,4.73,4.79,7.22l-6.89,4.59-4.87-6.75Zm-13.56-48,5.92,9-8.55,5.52-5.8-8.14ZM73,1042.44c1.52,2.4,3.33,5.27,5.12,8.12l-7.48,4.89-5.44-7.32Zm-4,22.21,4.78,7-6.89,4.57c-1.57-2.16-3.24-4.47-4.82-6.63Zm-13.5-48.29c1.65,2.63,3.82,6.1,5.74,9.15l-8.4,5.4-5.81-8Zm-3.85,22.32,5,8-7.42,4.94-5.49-7.26Zm-4.1,22.19,4.79,7-6.85,4.55-4.76-6.65C42.8,1064.26,45.15,1062.58,47.52,1060.87ZM34.16,1013c1.72,2.57,3.93,5.85,5.75,8.55l-8.64,5.66-4.75-7.57Zm-4,21.78,5.11,8-7.46,5-5.51-7.31Zm-4,22.18,4.81,7-6.88,4.6L19.19,1062Zm-13.35-47.82c1.32,2.47,3.11,5.77,4.78,8.89L10,1023.73l-5-8Zm-4,21.74c1.53,2.43,3.34,5.33,5.1,8.14l-7.56,5.11c-1.79-2.43-3.82-5.17-5.54-7.52Zm-4,22.18c1.54,2.28,3.18,4.73,4.82,7.17l-6.95,4.62-5.05-6.74ZM.82,1075l4.31,6.47-6.2,4.2c-1.37-1.9-2.85-3.93-4.42-6.09Zm-4,22,3.84,5.79-4.91,3.15-4-5Zm-4.58,30.36-3.44-4.72,4.25-3.07,3.42,4.64Z" style="fill:#00205c"/><path d="M218.4,1088c1.63-6.16,5.13-10.23,11.9-10.64l-.1-.07c7.06,2.72,9.91,6.16,9.5,11.47a10.32,10.32,0,0,1-20.31,1.82c-.25-.93-.64-1.82-1-2.71A.83.83,0,0,0,218.4,1088Z" style="fill:#00205c"/><path d="M102.14,998.29a10.25,10.25,0,1,1-10-10.66C97.89,987.73,102.14,992.26,102.14,998.29Z" style="fill:#00205c"/><path d="M102.31,1001.27c0-5.24,4.58-9.72,10.09-9.78a10.2,10.2,0,0,1,.39,20.4C106.79,1012,102.36,1007.54,102.31,1001.27Z" style="fill:#00205c"/><path d="M6.33,993.56a10.21,10.21,0,1,1,.21-20.41,10.21,10.21,0,0,1-.21,20.41Z" style="fill:#00205c"/><path d="M183.11,1034.37a10.24,10.24,0,1,1-10.22-10.08A10.17,10.17,0,0,1,183.11,1034.37Z" style="fill:#00205c"/><path d="M222.07,1063.65a10.25,10.25,0,1,1-10-10.33A10.18,10.18,0,0,1,222.07,1063.65Z" style="fill:#00205c"/><path d="M38,987a10.24,10.24,0,1,1-10.2-10.1A10.18,10.18,0,0,1,38,987Z" style="fill:#00205c"/><path d="M144,1005.68a10.13,10.13,0,1,1-10-10.3A10,10,0,0,1,144,1005.68Z" style="fill:#00205c"/><path d="M194.34,1048.43a10.08,10.08,0,1,1,10-10.25A9.92,9.92,0,0,1,194.34,1048.43Z" style="fill:#00205c"/><path d="M230.3,1077.32c-4.08-2-7.1-4.85-7.11-9.86a10,10,0,1,1,10.78,9.91c-1.25.08-2.51-.08-3.77-.12Z" style="fill:#00205c"/><path d="M165.32,1009.39a10,10,0,1,1-9.77-10.09A9.89,9.89,0,0,1,165.32,1009.39Z" style="fill:#00205c"/><path d="M176.5,1023.09a9.95,9.95,0,1,1,10.13-9.66A9.89,9.89,0,0,1,176.5,1023.09Z" style="fill:#00205c"/><path d="M52.9,979.55a9.95,9.95,0,1,1,10-9.81A9.89,9.89,0,0,1,52.9,979.55Z" style="fill:#00205c"/><path d="M41.47,965.66a9.93,9.93,0,1,1-10-9.8A9.89,9.89,0,0,1,41.47,965.66Z" style="fill:#00205c"/><path d="M116.38,971.14a9.92,9.92,0,1,1-10,9.89A10,10,0,0,1,116.38,971.14Z" style="fill:#00205c"/><path d="M94.44,987.23c-5,0-9.43-4.65-9.44-10a10,10,0,0,1,19.9-.2C105,982.87,100.54,987.2,94.44,987.23Z" style="fill:#00205c"/><path d="M74.27,983.37a9.95,9.95,0,1,1,10-9.8A9.89,9.89,0,0,1,74.27,983.37Z" style="fill:#00205c"/><path d="M215.68,1052.12a9.95,9.95,0,1,1,9.91-9.89A9.88,9.88,0,0,1,215.68,1052.12Z" style="fill:#00205c"/><path d="M263.71,1071.74a9.89,9.89,0,1,1-9.43-10.41A10,10,0,0,1,263.71,1071.74Z" style="fill:#00205c"/><path d="M10.46,952.07a9.9,9.9,0,1,1-.8,19.79,9.9,9.9,0,0,1,.8-19.79Z" style="fill:#00205c"/><path d="M246.85,1046.18a9.82,9.82,0,1,1-9.54-10A10,10,0,0,1,246.85,1046.18Z" style="fill:#00205c"/><path d="M159.11,997.73A9.79,9.79,0,1,1,168.9,988,10,10,0,0,1,159.11,997.73Z" style="fill:#00205c"/><path d="M207.93,1017.36a9.86,9.86,0,1,1-9.27-10.24A10,10,0,0,1,207.93,1017.36Z" style="fill:#00205c"/><path d="M137.19,994a9.86,9.86,0,1,1,10.37-9.13A10,10,0,0,1,137.19,994Z" style="fill:#00205c"/><path d="M229.15,1020.67a9.69,9.69,0,1,1-9.9-9.57A9.85,9.85,0,0,1,229.15,1020.67Z" style="fill:#00205c"/><path d="M66.35,948a9.6,9.6,0,1,1-9.58-9.42A9.67,9.67,0,0,1,66.35,948Z" style="fill:#00205c"/><path d="M180.7,1001.35a9.59,9.59,0,1,1,9.4-9.59A9.67,9.67,0,0,1,180.7,1001.35Z" style="fill:#00205c"/><path d="M284.79,1074.8a9.58,9.58,0,1,1-8.84-10.09A9.59,9.59,0,0,1,284.79,1074.8Z" style="fill:#00205c"/><path d="M44.9,944.45a9.54,9.54,0,1,1-9.39-9.59A9.52,9.52,0,0,1,44.9,944.45Z" style="fill:#00205c"/><path d="M86.94,952.6a9.58,9.58,0,1,1-8.8-10.11A9.6,9.6,0,0,1,86.94,952.6Z" style="fill:#00205c"/><path d="M257.61,1059.35a9.54,9.54,0,1,1,9.58-9.39A9.52,9.52,0,0,1,257.61,1059.35Z" style="fill:#00205c"/><path d="M98.22,965.42a9.58,9.58,0,1,1,10.09-8.83A9.59,9.59,0,0,1,98.22,965.42Z" style="fill:#00205c"/><path d="M249.44,1024.47a9.35,9.35,0,1,1-9.58-9.22A9.17,9.17,0,0,1,249.44,1024.47Z" style="fill:#00205c"/><path d="M23.41,940.75A9.31,9.31,0,0,1,13.8,950a9.43,9.43,0,0,1,.35-18.86A9.29,9.29,0,0,1,23.41,940.75Z" style="fill:#00205c"/><path d="M120.28,969.15a9.48,9.48,0,1,1,9.35-9.5A9.4,9.4,0,0,1,120.28,969.15Z" style="fill:#00205c"/><path d="M132.19,963.34a9.36,9.36,0,1,1,9.3,9.51A9.19,9.19,0,0,1,132.19,963.34Z" style="fill:#00205c"/><path d="M211.25,995.44a9.36,9.36,0,1,1-9.59-9.22A9.18,9.18,0,0,1,211.25,995.44Z" style="fill:#00205c"/><path d="M296.53,1068.85a9.23,9.23,0,1,1-9.14,9.22A9.13,9.13,0,0,1,296.53,1068.85Z" style="fill:#00205c"/><path d="M288.27,1053.64a9.23,9.23,0,1,1-9.12-9.23A9.12,9.12,0,0,1,288.27,1053.64Z" style="fill:#00205c"/><path d="M223.18,1008.6a9.21,9.21,0,1,1,9.31-9A9.13,9.13,0,0,1,223.18,1008.6Z" style="fill:#00205c"/><path d="M-7.64,927.43a9.21,9.21,0,0,0-6.47,2.73v13.2a9.3,9.3,0,0,0,6.73,2.72,9.14,9.14,0,0,0,9.29-9.45A9.15,9.15,0,0,0-7.64,927.43Z" style="fill:#00205c"/><path d="M162.94,957.3a9.25,9.25,0,1,1-9.25,9.05A9.11,9.11,0,0,1,162.94,957.3Z" style="fill:#00205c"/><path d="M184.35,961.2a9.17,9.17,0,1,1-9.19,9.14A9.17,9.17,0,0,1,184.35,961.2Z" style="fill:#00205c"/><path d="M261.55,1019.26a9.17,9.17,0,1,1-9.24,9.09A9.18,9.18,0,0,1,261.55,1019.26Z" style="fill:#00205c"/><path d="M30.05,922.84a9.14,9.14,0,1,1,9.06,9.3A9.26,9.26,0,0,1,30.05,922.84Z" style="fill:#00205c"/><path d="M17.87,928.28a9.09,9.09,0,1,1-.14-18.18,9.09,9.09,0,1,1,.14,18.18Z" style="fill:#00205c"/><path d="M124,947.38a9.1,9.1,0,1,1,9.06-8.94A9.25,9.25,0,0,1,124,947.38Z" style="fill:#00205c"/><path d="M102.74,925.33a9.14,9.14,0,1,1-9.28,9.08A9.25,9.25,0,0,1,102.74,925.33Z" style="fill:#00205c"/><path d="M81.16,921.49a9.16,9.16,0,1,1-9.11,9.3A9.23,9.23,0,0,1,81.16,921.49Z" style="fill:#00205c"/><path d="M69.73,926.94a9.16,9.16,0,1,1-9.14-9.27A9.23,9.23,0,0,1,69.73,926.94Z" style="fill:#00205c"/><path d="M253,1003.15a9.07,9.07,0,1,1-9-9A9.24,9.24,0,0,1,253,1003.15Z" style="fill:#00205c"/><path d="M145.46,933.07a9,9,0,1,1-9.13,8.94A9.24,9.24,0,0,1,145.46,933.07Z" style="fill:#00205c"/><path d="M205.73,983.25a9.07,9.07,0,1,1,9.05-9A9.24,9.24,0,0,1,205.73,983.25Z" style="fill:#00205c"/><path d="M-3.49,924.38a9.22,9.22,0,0,1-9.11-8.91,9.21,9.21,0,0,1,8.91-9.11,9.2,9.2,0,0,1,9.1,8.91A9.21,9.21,0,0,1-3.49,924.38Z" style="fill:#00205c"/><path d="M166.78,937a8.89,8.89,0,1,1-8.91,8.67A9,9,0,0,1,166.78,937Z" style="fill:#00205c"/><path d="M309.41,1056.82a9,9,0,1,1-8.94-9.1A9.17,9.17,0,0,1,309.41,1056.82Z" style="fill:#00205c"/><path d="M318.12,1090.87a9,9,0,1,1,8.86-9.19A9.14,9.14,0,0,1,318.12,1090.87Z" style="fill:#00205c"/><path d="M282.78,1041.17a8.93,8.93,0,1,1,9-8.94A9.09,9.09,0,0,1,282.78,1041.17Z" style="fill:#00205c"/><path d="M226.28,986.84a8.83,8.83,0,1,1,8.89-8.59A8.89,8.89,0,0,1,226.28,986.84Z" style="fill:#00205c"/><path d="M196.8,949.82a8.66,8.66,0,1,1-8.58-8.73A8.51,8.51,0,0,1,196.8,949.82Z" style="fill:#00205c"/><path d="M274,1007.11a8.71,8.71,0,1,1-8.62-8.78A8.6,8.6,0,0,1,274,1007.11Z" style="fill:#00205c"/><path d="M149.12,929.14a8.43,8.43,0,1,1,8.49-8.35A8.4,8.4,0,0,1,149.12,929.14Z" style="fill:#00205c"/><path d="M256.22,981.68a8.49,8.49,0,1,1-8.55-8.34A8.37,8.37,0,0,1,256.22,981.68Z" style="fill:#00205c"/><path d="M30.08,897.67a8.47,8.47,0,1,1-8.5-8.34A8.38,8.38,0,0,1,30.08,897.67Z" style="fill:#00205c"/><path d="M136.29,916.74a8.49,8.49,0,1,1-8.55-8.33A8.38,8.38,0,0,1,136.29,916.74Z" style="fill:#00205c"/><path d="M218,952.9a8.47,8.47,0,1,1-8.27-8.57A8.37,8.37,0,0,1,218,952.9Z" style="fill:#00205c"/><path d="M72.18,905.48a8.55,8.55,0,1,1-8.31-8.59A8.4,8.4,0,0,1,72.18,905.48Z" style="fill:#00205c"/><path d="M85.17,900.71a8.55,8.55,0,1,1-8.7,8.2A8.4,8.4,0,0,1,85.17,900.71Z" style="fill:#00205c"/><path d="M295.11,1011a8.43,8.43,0,1,1-8.28-8.57A8.38,8.38,0,0,1,295.11,1011Z" style="fill:#00205c"/><path d="M321.94,1052a8.49,8.49,0,1,1-8.6,8.28A8.36,8.36,0,0,1,321.94,1052Z" style="fill:#00205c"/><path d="M304.14,1044.55a8.49,8.49,0,1,1,8.61-8.27A8.35,8.35,0,0,1,304.14,1044.55Z" style="fill:#00205c"/><path d="M43.15,893.1a8.52,8.52,0,1,1-8.66,8.19A8.37,8.37,0,0,1,43.15,893.1Z" style="fill:#00205c"/><path d="M347.89,1085.74a8.49,8.49,0,1,1-8.38-8.51A8.38,8.38,0,0,1,347.89,1085.74Z" style="fill:#00205c"/><path d="M106.09,921.62a8.55,8.55,0,1,1,8.85-8A8.42,8.42,0,0,1,106.09,921.62Z" style="fill:#00205c"/><path d="M8.63,894a8.39,8.39,0,0,1-8.5,8.39,8.4,8.4,0,0,1-8.31-8.6,8.4,8.4,0,0,1,8.32-8.2A8.39,8.39,0,0,1,8.63,894Z" style="fill:#00205c"/><path d="M178.94,924.65a8.37,8.37,0,1,1-8.06-8.48A8.44,8.44,0,0,1,178.94,924.65Z" style="fill:#00205c"/><path d="M277.43,985.58a8.32,8.32,0,1,1-8.29-8.25A8.46,8.46,0,0,1,277.43,985.58Z" style="fill:#00205c"/><path d="M230.34,965a8.35,8.35,0,1,1,8.16-8.43A8.49,8.49,0,0,1,230.34,965Z" style="fill:#00205c"/><path d="M192,920.13a8.23,8.23,0,1,1-8.22,8.32A8.44,8.44,0,0,1,192,920.13Z" style="fill:#00205c"/><path d="M317.42,1039.7a8.23,8.23,0,1,1,8.14,8.41A8.44,8.44,0,0,1,317.42,1039.7Z" style="fill:#00205c"/><path d="M351.44,1064.14a8.23,8.23,0,1,1-8.51-8A8.44,8.44,0,0,1,351.44,1064.14Z" style="fill:#00205c"/><path d="M308.22,1022.8a8.13,8.13,0,1,1,8-8.08A8.27,8.27,0,0,1,308.22,1022.8Z" style="fill:#00205c"/><path d="M67.56,892.12a8.07,8.07,0,1,1,8-8.09A8.15,8.15,0,0,1,67.56,892.12Z" style="fill:#00205c"/><path d="M80.77,887.87a8.07,8.07,0,1,1,8,8.07A8.16,8.16,0,0,1,80.77,887.87Z" style="fill:#00205c"/><path d="M118.24,891.79a8,8,0,1,1-7.91-8.11A8,8,0,0,1,118.24,891.79Z" style="fill:#00205c"/><path d="M259.62,960.57a8.07,8.07,0,1,1-7.85-8.2A8.16,8.16,0,0,1,259.62,960.57Z" style="fill:#00205c"/><path d="M160.81,899.18a7.81,7.81,0,1,1-7.76-7.66A7.63,7.63,0,0,1,160.81,899.18Z" style="fill:#00205c"/><path d="M131.52,887.62a7.89,7.89,0,1,1-7.79,8.07A7.75,7.75,0,0,1,131.52,887.62Z" style="fill:#00205c"/><path d="M11.81,873.37a7.58,7.58,0,0,1-7.68,7.75,7.77,7.77,0,1,1,0-15.53A7.58,7.58,0,0,1,11.81,873.37Z" style="fill:#00205c"/><path d="M298.39,989.45a7.89,7.89,0,1,1-8-7.87A7.74,7.74,0,0,1,298.39,989.45Z" style="fill:#00205c"/><path d="M25.31,868.57a7.84,7.84,0,1,1,.25,15.68,7.84,7.84,0,1,1-.25-15.68Z" style="fill:#00205c"/><path d="M220.53,932.12a7.94,7.94,0,1,1-8-7.89A7.86,7.86,0,0,1,220.53,932.12Z" style="fill:#00205c"/><path d="M280.62,964.22a7.69,7.69,0,1,1-7.72-7.65A7.57,7.57,0,0,1,280.62,964.22Z" style="fill:#00205c"/><path d="M233.85,928.28a7.71,7.71,0,1,1-7.58,7.84A7.57,7.57,0,0,1,233.85,928.28Z" style="fill:#00205c"/><path d="M46.77,888.17a7.94,7.94,0,1,1,8-7.88A7.87,7.87,0,0,1,46.77,888.17Z" style="fill:#00205c"/><path d="M174.36,895.46a7.69,7.69,0,1,1-7.65,7.72A7.58,7.58,0,0,1,174.36,895.46Z" style="fill:#00205c"/><path d="M364.42,1060.48a7.67,7.67,0,1,1-7.48,8A7.62,7.62,0,0,1,364.42,1060.48Z" style="fill:#00205c"/><path d="M319.49,993.17a7.6,7.6,0,1,1-7.62-7.48A7.7,7.7,0,0,1,319.49,993.17Z" style="fill:#00205c"/><path d="M347,1035.28a7.66,7.66,0,1,1-7.63,7.79A7.6,7.6,0,0,1,347,1035.28Z" style="fill:#00205c"/><path d="M337.13,1018.64a7.67,7.67,0,1,1-7.61-7.81A7.62,7.62,0,0,1,337.13,1018.64Z" style="fill:#00205c"/><path d="M195.71,899.39a7.58,7.58,0,1,1-7.5,7.55A7.74,7.74,0,0,1,195.71,899.39Z" style="fill:#00205c"/><path d="M50,867a7.38,7.38,0,1,1,7.22-7.44A7.54,7.54,0,0,1,50,867Z" style="fill:#00205c"/><path d="M106.67,870.3a7.38,7.38,0,1,1,7.28,7.37A7.51,7.51,0,0,1,106.67,870.3Z" style="fill:#00205c"/><path d="M223.78,911a7.38,7.38,0,1,1-7.09-7.56A7.51,7.51,0,0,1,223.78,911Z" style="fill:#00205c"/><path d="M262.88,939.14a7.51,7.51,0,1,1-7.52-7.6A7.71,7.71,0,0,1,262.88,939.14Z" style="fill:#00205c"/><path d="M301.76,967.92a7.43,7.43,0,1,1-7.4-7.27A7.63,7.63,0,0,1,301.76,967.92Z" style="fill:#00205c"/><path d="M71.35,870.09a7.43,7.43,0,1,1,7.35-7.32A7.62,7.62,0,0,1,71.35,870.09Z" style="fill:#00205c"/><path d="M100.09,866.53a7.43,7.43,0,1,1-7.19-7.48A7.62,7.62,0,0,1,100.09,866.53Z" style="fill:#00205c"/><path d="M29.16,863a7.25,7.25,0,1,1,7.34-7.15A7.21,7.21,0,0,1,29.16,863Z" style="fill:#00205c"/><path d="M142.75,874.26a7.31,7.31,0,1,1-7.07-7.46A7.37,7.37,0,0,1,142.75,874.26Z" style="fill:#00205c"/><path d="M340.36,997.11a7.08,7.08,0,1,1-6.88-7.08A6.94,6.94,0,0,1,340.36,997.11Z" style="fill:#00205c"/><path d="M375.54,1046.69a7.12,7.12,0,1,1-7-7A7,7,0,0,1,375.54,1046.69Z" style="fill:#00205c"/><path d="M156.83,885.06a7.12,7.12,0,1,1,7.11-6.94A7,7,0,0,1,156.83,885.06Z" style="fill:#00205c"/><path d="M350.79,1029.48a7.17,7.17,0,1,1,7.23-7.2A7,7,0,0,1,350.79,1029.48Z" style="fill:#00205c"/><path d="M7.75,859A7.08,7.08,0,1,1,8,844.89,7.08,7.08,0,1,1,7.75,859Z" style="fill:#00205c"/><path d="M283.78,943a7,7,0,1,1-6.84-7.11A6.84,6.84,0,0,1,283.78,943Z" style="fill:#00205c"/><path d="M237.94,907.58a7,7,0,1,1-7.17,6.78A6.86,6.86,0,0,1,237.94,907.58Z" style="fill:#00205c"/><path d="M393.06,1072.06a7.07,7.07,0,1,1-6.79-7.16A6.92,6.92,0,0,1,393.06,1072.06Z" style="fill:#00205c"/><path d="M178.14,888.71a7,7,0,1,1,7-6.88A6.82,6.82,0,0,1,178.14,888.71Z" style="fill:#00205c"/><path d="M308.79,971.72a6.93,6.93,0,1,1,6.85,7.1A6.86,6.86,0,0,1,308.79,971.72Z" style="fill:#00205c"/><path d="M259,925.23a6.81,6.81,0,1,1,7-6.65A7,7,0,0,1,259,925.23Z" style="fill:#00205c"/><path d="M205.7,885.42a6.86,6.86,0,1,1-6.92-6.7A6.93,6.93,0,0,1,205.7,885.42Z" style="fill:#00205c"/><path d="M298.12,939.92a6.77,6.77,0,1,1-6.74,6.89A6.92,6.92,0,0,1,298.12,939.92Z" style="fill:#00205c"/><path d="M379,1026a6.73,6.73,0,1,1-6.91-6.64A6.91,6.91,0,0,1,379,1026Z" style="fill:#00205c"/><path d="M395.73,1050.51a6.69,6.69,0,1,1-6.56-6.62A6.88,6.88,0,0,1,395.73,1050.51Z" style="fill:#00205c"/><path d="M220.42,882.77a6.63,6.63,0,1,1-6.82,6.34A6.79,6.79,0,0,1,220.42,882.77Z" style="fill:#00205c"/><path d="M354.5,1007.61a6.69,6.69,0,1,1,6.85-6.33A6.88,6.88,0,0,1,354.5,1007.61Z" style="fill:#00205c"/><path d="M96.49,839.17a6.69,6.69,0,1,1-6.7,6.48A6.88,6.88,0,0,1,96.49,839.17Z" style="fill:#00205c"/><path d="M75.17,835.35a6.69,6.69,0,1,1-6.76,6.41A6.89,6.89,0,0,1,75.17,835.35Z" style="fill:#00205c"/><path d="M53.67,844.84a6.63,6.63,0,1,1,6.66-6.5A6.8,6.8,0,0,1,53.67,844.84Z" style="fill:#00205c"/><path d="M406.47,1082.27a6.49,6.49,0,1,1,6.63-6.43A6.5,6.5,0,0,1,406.47,1082.27Z" style="fill:#00205c"/><path d="M337.2,982.2a6.49,6.49,0,1,1,6.39-6.67A6.49,6.49,0,0,1,337.2,982.2Z" style="fill:#00205c"/><path d="M139.16,846.24a6.49,6.49,0,1,1-6.39,6.68A6.5,6.5,0,0,1,139.16,846.24Z" style="fill:#00205c"/><path d="M118,842.35a6.56,6.56,0,1,1-6.66,6.47A6.64,6.64,0,0,1,118,842.35Z" style="fill:#00205c"/><path d="M39.56,834.27a6.49,6.49,0,1,1-6.71-6.36A6.49,6.49,0,0,1,39.56,834.27Z" style="fill:#00205c"/><path d="M17.93,830.6a6.09,6.09,0,0,1-6.27,6.22,6.25,6.25,0,0,1,.05-12.49A6.09,6.09,0,0,1,17.93,830.6Z" style="fill:#00205c"/><path d="M286.91,922.38a6.34,6.34,0,1,1-6-6.47A6.23,6.23,0,0,1,286.91,922.38Z" style="fill:#00205c"/><path d="M166.94,856.4a6.3,6.3,0,1,1-6.35-6.14A6.16,6.16,0,0,1,166.94,856.4Z" style="fill:#00205c"/><path d="M247.86,893.05a6.25,6.25,0,1,1-6.41-6.08A6.1,6.1,0,0,1,247.86,893.05Z" style="fill:#00205c"/><path d="M398.93,1029.27a6.06,6.06,0,1,1-6-6.14A6.18,6.18,0,0,1,398.93,1029.27Z" style="fill:#00205c"/><path d="M319.37,944.3a6.21,6.21,0,1,1-6,6.47A6.07,6.07,0,0,1,319.37,944.3Z" style="fill:#00205c"/><path d="M381.36,1004.83a6.06,6.06,0,1,1-6-6.15A6.18,6.18,0,0,1,381.36,1004.83Z" style="fill:#00205c"/><path d="M187.44,860.5a6.18,6.18,0,1,1-6.13-6.3A6.08,6.08,0,0,1,187.44,860.5Z" style="fill:#00205c"/><path d="M357.66,973.55a6,6,0,1,1-5.92,5.86A6.18,6.18,0,0,1,357.66,973.55Z" style="fill:#00205c"/><path d="M202.77,858.16a6,6,0,1,1-6.14,6A6.2,6.2,0,0,1,202.77,858.16Z" style="fill:#00205c"/><path d="M269,896.93a6,6,0,1,1-5.9-5.88A6.18,6.18,0,0,1,269,896.93Z" style="fill:#00205c"/><path d="M416.42,1054.3a6,6,0,1,1-5.89-5.89A6.21,6.21,0,0,1,416.42,1054.3Z" style="fill:#00205c"/><path d="M308,925.22a6,6,0,1,1-5.87-5.91A6.17,6.17,0,0,1,308,925.22Z" style="fill:#00205c"/><path d="M433.73,1079.89a5.72,5.72,0,1,1-5.53-6A5.72,5.72,0,0,1,433.73,1079.89Z" style="fill:#00205c"/><path d="M346.65,954.41a5.73,5.73,0,1,1-5.74-5.81A5.74,5.74,0,0,1,346.65,954.41Z" style="fill:#00205c"/><path d="M84.54,820.61A5.63,5.63,0,1,1,79.06,815,5.53,5.53,0,0,1,84.54,820.61Z" style="fill:#00205c"/><path d="M105.93,824.65a5.63,5.63,0,1,1-5.26-5.81A5.54,5.54,0,0,1,105.93,824.65Z" style="fill:#00205c"/><path d="M127.25,828.24a5.57,5.57,0,1,1-5.51-5.52A5.41,5.41,0,0,1,127.25,828.24Z" style="fill:#00205c"/><path d="M57.37,811.26A5.57,5.57,0,1,1,52,816.88,5.41,5.41,0,0,1,57.37,811.26Z" style="fill:#00205c"/><path d="M224,862.38a5.63,5.63,0,1,1-5.62,5.44A5.53,5.53,0,0,1,224,862.38Z" style="fill:#00205c"/><path d="M284.23,895.39a5.47,5.47,0,1,1-5.3,5.72A5.32,5.32,0,0,1,284.23,895.39Z" style="fill:#00205c"/><path d="M36,807.54a5.47,5.47,0,1,1-5.3,5.73A5.32,5.32,0,0,1,36,807.54Z" style="fill:#00205c"/><path d="M137.61,831.8a5.47,5.47,0,1,1,5.25,5.77A5.35,5.35,0,0,1,137.61,831.8Z" style="fill:#00205c"/><path d="M328.74,929.21a5.39,5.39,0,1,1-5.11-5.47A5.34,5.34,0,0,1,328.74,929.21Z" style="fill:#00205c"/><path d="M250.79,871.85a5.36,5.36,0,1,1-5.24-5.38A5.36,5.36,0,0,1,250.79,871.85Z" style="fill:#00205c"/><path d="M164.62,829.81a5.36,5.36,0,1,1-5.51,5.1A5.36,5.36,0,0,1,164.62,829.81Z" style="fill:#00205c"/><path d="M402,1008.69a5.33,5.33,0,1,1-5.19-5.45A5.41,5.41,0,0,1,402,1008.69Z" style="fill:#00205c"/><path d="M20.86,809.3a5.36,5.36,0,1,1-5.15-5.47A5.36,5.36,0,0,1,20.86,809.3Z" style="fill:#00205c"/><path d="M366.68,958.06a5.14,5.14,0,1,1-5.22-5A5.27,5.27,0,0,1,366.68,958.06Z" style="fill:#00205c"/><path d="M384.41,983.19a5.42,5.42,0,0,1-5.22,5.45,5.3,5.3,0,0,1-5.33-5.31,5.11,5.11,0,0,1,5-5.23A5.32,5.32,0,0,1,384.41,983.19Z" style="fill:#00205c"/><path d="M414.17,1038.3a5.43,5.43,0,0,1-5.2-5.48,5.32,5.32,0,0,1,5.56-5.07,5.12,5.12,0,0,1,5,5.25A5.31,5.31,0,0,1,414.17,1038.3Z" style="fill:#00205c"/><path d="M190.34,838.83a5.25,5.25,0,1,1-5.21-5.1A5.43,5.43,0,0,1,190.34,838.83Z" style="fill:#00205c"/><path d="M437,1058.31a5.14,5.14,0,1,1-5-5.23A5.27,5.27,0,0,1,437,1058.31Z" style="fill:#00205c"/><path d="M305.6,899.61a5.17,5.17,0,0,1,5.25,5,5.06,5.06,0,0,1-5.07,5.13,4.91,4.91,0,0,1-5-4.76A5.07,5.07,0,0,1,305.6,899.61Z" style="fill:#00205c"/><path d="M266.68,870.68a4.91,4.91,0,0,1,5.08,5.17,4.7,4.7,0,0,1-4.95,4.73,5,5,0,0,1-.13-9.9Z" style="fill:#00205c"/><path d="M211.36,842.73c-.21,2.93-1.7,4.71-4.7,4.91a4.66,4.66,0,0,1-5-4.95c.17-3,1.86-4.71,4.85-4.71S211.06,839.76,211.36,842.73Z" style="fill:#00205c"/><path d="M227.65,842c2.83.21,4.66,1.59,4.76,4.46a4.55,4.55,0,0,1-9.09.36C223.19,843.92,224.92,842.42,227.65,842Z" style="fill:#00205c"/><path d="M444.65,1083.48c.18-3.08,2.41-5,5.15-4.74,3,.34,4.52,2.2,4.26,5.18-.25,2.83-2.07,4.32-4.88,4.19C446.13,1088,444.74,1086.07,444.65,1083.48Z" style="fill:#00205c"/><path d="M344.05,928.17c3,.32,4.71,1.89,4.61,4.92s-1.93,4.65-4.93,4.53a4.26,4.26,0,0,1-4.44-4.65C339.28,929.92,341.08,928.42,344.05,928.17Z" style="fill:#00205c"/><path d="M293.31,880.31c-1.66,1.21-3.17,3-5,3.48-2.25.65-4.76-2.1-4.51-4.49.27-2.62,2-4.58,4.48-4.13,1.83.32,3.38,2.22,5.05,3.41Z" style="fill:#00205c"/><path d="M66.4,796.47c-1.7,1.15-3.28,2.83-5.15,3.29-2.28.56-4.68-2.3-4.34-4.66.38-2.59,2.12-4.5,4.64-4,1.81.39,3.28,2.35,4.91,3.6Z" style="fill:#00205c"/><path d="M423.2,1013.09c-1.63,1.25-3.09,3-4.93,3.62-2.22.71-4.8-2-4.63-4.38.19-2.64,1.84-4.61,4.37-4.24,1.83.27,3.43,2.12,5.14,3.27C423.16,1011.94,423.18,1012.51,423.2,1013.09Z" style="fill:#00205c"/><path d="M108.81,801.77c-.45,4-1.89,5.78-4.75,5.76a4.14,4.14,0,0,1-4.4-4.32c0-2.84,1.75-4.87,4.49-4.48C106,799,107.56,800.9,108.81,801.77Z" style="fill:#00205c"/><path d="M405.58,988.15c-1.69,1.16-3.24,2.87-5.11,3.35-2.26.59-4.71-2.24-4.4-4.6.35-2.6,2.06-4.53,4.59-4,1.82.37,3.31,2.3,4.95,3.53Z" style="fill:#00205c"/><path d="M326.38,913.53c-1.2-1.65-3.11-3.18-3.43-5-.44-2.53,1.51-4.33,4.14-4.38s4.64,1.69,4.3,4.22c-.24,1.81-2.1,3.41-3.24,5.1Z" style="fill:#00205c"/><path d="M130.6,807.79c-1.68,1.19-3.2,2.92-5.06,3.43-2.26.62-4.74-2.15-4.47-4.54.3-2.61,2-4.55,4.53-4.08,1.82.34,3.35,2.25,5,3.46C130.6,806.64,130.6,807.22,130.6,807.79Z" style="fill:#00205c"/><path d="M81.45,794.55c4,.49,5.77,1.93,5.73,4.79a4.12,4.12,0,0,1-4.35,4.37c-2.84,0-4.86-1.78-4.44-4.52C78.67,797.37,80.58,795.79,81.45,794.55Z" style="fill:#00205c"/><path d="M387.91,962.67c-1.63,1.2-3.13,3.12-4.92,3.44a3.52,3.52,0,0,1-4.17-4.12c.3-1.62,2.41-3.94,3.87-4.06,1.61-.14,3.41,1.87,5.13,2.94Z" style="fill:#00205c"/><path d="M146,815.65c-1.14-1.68-3-3.26-3.24-5a3.51,3.51,0,0,1,4.27-4c1.62.36,3.83,2.56,3.9,4s-2,3.34-3.13,5Z" style="fill:#00205c"/><path d="M44.85,792.63c-1.7,1.1-3.32,2.94-5.12,3.12a3.52,3.52,0,0,1-3.89-4.38c.4-1.6,2.66-3.76,4.12-3.79,1.63,0,3.3,2.07,4.94,3.25C44.89,791.43,44.87,792,44.85,792.63Z" style="fill:#00205c"/><path d="M440.45,1037.85c-1.69,1.06-3.46,3.05-5,2.91s-3.51-2.44-3.78-4a3.43,3.43,0,0,1,4.25-3.94c1.68.33,3.07,2.17,4.59,3.33Z" style="fill:#00205c"/><path d="M250.37,845.79c1,1.61,2.6,3.14,2.81,4.85.31,2.48-1.56,3.93-4.1,3.83s-4.26-1.76-3.75-4.18c.36-1.68,2.11-3.06,3.24-4.57Z" style="fill:#00205c"/><path d="M457.73,1063.12c-1.5,1-2.91,2.47-4.52,2.71-2.52.37-4-1.39-3.89-4s1.79-4.17,4.23-3.62c1.57.36,2.84,2,4.25,3.11Z" style="fill:#00205c"/><path d="M366.28,932.2c1,1.47,2.59,2.82,2.88,4.41.45,2.49-1.21,4-3.81,4s-4.24-1.6-3.77-4.07c.3-1.59,1.9-2.93,2.92-4.38Z" style="fill:#00205c"/><path d="M18.32,792.33c-1-1.48-2.53-2.87-2.79-4.46-.41-2.51,1.31-4,3.89-4s4.21,1.7,3.7,4.16c-.33,1.58-2,2.88-3,4.31Z" style="fill:#00205c"/><path d="M172.21,815.41c-1.55,1.06-3,2.75-4.69,3.05-2.46.43-4-1.34-4-3.9s1.53-4.35,4-3.95c1.7.28,3.16,1.94,4.73,3Z" style="fill:#00205c"/><path d="M193.37,819.06c-1.44,1-3,3-4.29,2.87s-2.67-2.2-4-3.42c1.23-1.33,2.31-3.5,3.72-3.74s3,1.6,4.5,2.53Z" style="fill:#00205c"/><path d="M3.24,784c-2.44,1.71-4.05,3.68-5.19,3.44-1.48-.32-2.58-2.4-3.85-3.72,1.29-1.16,2.52-3.16,3.88-3.26S.84,782.27,3.24,784Z" style="fill:#00205c"/><path d="M314.89,883.56c-2.49,1.6-4.18,3.5-5.31,3.21-1.47-.37-2.48-2.49-3.69-3.86,1.33-1.12,2.63-3.07,4-3.12S312.56,881.7,314.89,883.56Z" style="fill:#00205c"/><path d="M274.72,855.14c-1.42.9-3,2.67-4.22,2.45s-3-2.24-3.18-3.64c-.11-.93,2.12-3,3.32-3,1.36,0,2.75,1.7,4.12,2.66Z" style="fill:#00205c"/><path d="M210.43,826.27c-1.65-2.16-3.42-3.46-3.36-4.66S209,819.18,210,818c1.24,1.15,3.17,2.12,3.51,3.49C213.77,822.49,212,824,210.43,826.27Z" style="fill:#00205c"/><path d="M347.06,915.66c-.94-1.39-2.76-2.9-2.59-4.13s2.12-3.08,3.51-3.3c.94-.15,3.1,2,3.16,3.19.07,1.36-1.59,2.81-2.5,4.22Z" style="fill:#00205c"/><path d="M231.57,821c1.44,2,3,3.13,2.86,4.15s-1.71,2-2.66,3c-1-.95-2.67-1.81-2.83-2.88S230.23,823,231.57,821Z" style="fill:#00205c"/><path d="M444.05,1015.46c-2.27,1.47-3.6,3-4.66,2.84a4.42,4.42,0,0,1-2.78-3.1c-.13-.77,1.77-2.61,2.78-2.63C440.58,1012.54,441.8,1014,444.05,1015.46Z" style="fill:#00205c"/><path d="M330.1,891.36c-1.33-2.06-2.77-3.31-2.62-4.32s1.83-1.93,2.84-2.87c.95,1,2.56,2,2.65,3S331.55,889.4,330.1,891.36Z" style="fill:#00205c"/><path d="M408.92,965.69c-2.24,1.53-3.53,3.1-4.6,3a4.45,4.45,0,0,1-2.85-3c-.14-.77,1.69-2.66,2.71-2.71C405.36,962.86,406.62,964.25,408.92,965.69Z" style="fill:#00205c"/><path d="M421.69,986.45c1.58,2,3.29,3.33,3.12,4.27-.22,1.27-1.9,2.28-3,3.4-1-1-2.73-2-2.88-3.11S420.31,988.63,421.69,986.45Z" style="fill:#00205c"/><path d="M107.79,785.49c-1.18-1.77-2.59-3-2.37-3.76.31-1.09,1.81-1.83,2.8-2.72.8,1,2.2,1.89,2.23,2.88S109.11,783.82,107.79,785.49Z" style="fill:#00205c"/><path d="M386.52,944.73c-1.24-2.1-2.62-3.41-2.41-4.38a4.11,4.11,0,0,1,3-2.39c.71-.08,2.32,1.76,2.27,2.69C389.36,941.75,388,942.79,386.52,944.73Z" style="fill:#00205c"/><path d="M296.19,858.2c-2.06,1.29-3.33,2.7-4.3,2.52a4.12,4.12,0,0,1-2.5-3c-.1-.69,1.7-2.36,2.63-2.35C293.13,855.43,294.21,856.79,296.19,858.2Z" style="fill:#00205c"/><path d="M461.19,1040.58c-2,1.38-3.19,2.85-4.17,2.71a4.1,4.1,0,0,1-2.63-2.82c-.14-.7,1.58-2.45,2.51-2.48C458,1038,459.15,1039.26,461.19,1040.58Z" style="fill:#00205c"/><path d="M90.34,778.12c-1.8,1.13-3.06,2.5-3.83,2.26-1.07-.33-1.76-1.86-2.62-2.88,1-.77,2-2.14,2.93-2.15S88.71,776.76,90.34,778.12Z" style="fill:#00205c"/><path d="M47.13,770c-1.56,1.21-2.47,2.46-3.27,2.39a3.35,3.35,0,0,1-2.24-2.2c-.15-.54,1.17-2.06,1.89-2.1C44.43,768,45.41,769,47.13,770Z" style="fill:#00205c"/><path d="M133,785.76c-1.8,1-2.88,2.16-3.86,2.08-.82-.06-2.28-1.8-2.1-2.33a4,4,0,0,1,2.59-2.34C130.32,783.05,131.3,784.42,133,785.76Z" style="fill:#00205c"/><path d="M372.56,915.27c-1.62,1.14-2.49,2.23-3.41,2.26-.73,0-2.21-1.35-2.11-1.88a3.43,3.43,0,0,1,2-2.43C369.85,913.07,370.89,914.23,372.56,915.27Z" style="fill:#00205c"/><path d="M253.25,832.15c-1.1-1.33-2.39-2.25-2.25-2.86.2-.94,1.38-1.66,2.15-2.47.72.74,1.93,1.42,2,2.23S254.18,830.73,253.25,832.15Z" style="fill:#00205c"/><path d="M150.61,785.88c1.18,1.59,2.4,2.53,2.33,3.36a3.2,3.2,0,0,1-2.16,2.3,3.22,3.22,0,0,1-2.3-2.17C148.36,788.55,149.54,787.54,150.61,785.88Z" style="fill:#00205c"/><path d="M478,1065.68c-1.59,1.18-2.52,2.41-3.32,2.32a3.39,3.39,0,0,1-2.2-2.25c-.13-.54,1.22-2,1.95-2C475.31,1063.66,476.27,1064.67,478,1065.68Z" style="fill:#00205c"/><path d="M174.44,793.29c-1.42,1-2.45,2.13-3.05,1.94-.92-.29-1.53-1.53-2.28-2.36.81-.65,1.6-1.79,2.42-1.81S173.1,792.2,174.44,793.29Z" style="fill:#00205c"/><path d="M68.82,774c-1.73,1.18-2.73,2.37-3.71,2.36-.82,0-1.63-1.41-2.45-2.19.85-.88,1.58-2.22,2.59-2.48C66,771.53,67.05,772.81,68.82,774Z" style="fill:#00205c"/><circle cx="140.51" cy="410.26" r="6.83" style="fill:#fff"/><circle cx="1441.83" cy="305.67" r="11.77" style="fill:#fff"/><circle cx="71.75" cy="1.49" r="5.88" style="fill:#ff1c7d"/><path d="M1684.11,121.3a5.89,5.89,0,1,1-5.88-5.89A5.88,5.88,0,0,1,1684.11,121.3Z" style="fill:#ff1c7d"/><circle cx="1092.57" cy="197.78" r="5.88" style="fill:#fff"/><circle cx="603.59" cy="679.15" r="5.88" style="fill:#ff1c7d"/><path d="M1825.07,852.12a5.88,5.88,0,1,1-5.88-5.88A5.89,5.89,0,0,1,1825.07,852.12Z" style="fill:#ff1c7d"/><path d="M705.65,1024.56a8,8,0,1,1-8-8A8,8,0,0,1,705.65,1024.56Z" style="fill:#fff"/><rect x="1287.97" y="-29.06" width="10.81" height="36.43" style="fill:#ff1c7d"/><rect x="564.6" y="305.63" width="7.01" height="23.62" style="fill:#ff1c7d"/><rect x="564.6" y="305.63" width="7.01" height="23.62" transform="translate(885.54 -250.66) rotate(90)" style="fill:#ff1c7d"/><rect x="1360.59" y="1020.75" width="7.01" height="23.62" style="fill:#fff"/><rect x="1360.59" y="1020.75" width="7.01" height="23.62" transform="translate(2396.65 -331.54) rotate(90)" style="fill:#fff"/><rect x="275.6" y="1014.72" width="12.66" height="42.69" style="fill:#fff"/><rect x="275.6" y="1014.72" width="12.66" height="42.69" transform="translate(1318 754.12) rotate(90)" style="fill:#fff"/><line x1="705.65" y1="-29.06" x2="608.99" y2="67.6" style="fill:none;stroke:#ff1c7d;stroke-miterlimit:10"/><line x1="1386.83" y1="802.69" x2="1287.97" y2="901.55" style="fill:none;stroke:#ff1c7d;stroke-miterlimit:10"/><line x1="588.38" y1="893.91" x2="492.36" y2="989.94" style="fill:none;stroke:#fff;stroke-miterlimit:10"/><line x1="1352.29" y1="108.7" x2="1256.27" y2="204.72" style="fill:none;stroke:#fff;stroke-miterlimit:10"/><circle cx="288.27" cy="739.1" r="183.56" style="fill:none;stroke:#ff1c7d;stroke-miterlimit:10"/></g></svg>